# Created by Kenney (www.kenney.nl)

mtllib barricade-doorway-b.mtl

g barricade-doorway-b

v 0 0.9782747 -0.6277728 1 1 1
v 0 0.7871974 -0.6097107 1 1 1
v 0 1.095251 0.6097107 1 1 1
v 0 0.904174 0.6277728 1 1 1
v -0.05 0.7871974 -0.6097107 1 1 1
v -0.05 0.9782747 -0.6277728 1 1 1
v -0.05 0.904174 0.6277728 1 1 1
v -0.05 1.095251 0.6097107 1 1 1
v 0 -0.008586317 -0.6268592 1 1 1
v 0 -0.2 -0.6128026 1 1 1
v 0 0.08244878 0.6128026 1 1 1
v 0 -0.1089649 0.6268592 1 1 1
v -0.05 -0.2 -0.6128026 1 1 1
v -0.05 -0.008586317 -0.6268592 1 1 1
v -0.05 -0.1089649 0.6268592 1 1 1
v -0.05 0.08244878 0.6128026 1 1 1
v 0 0.3790102 -0.6257802 1 1 1
v 0 0.3117903 0.6154009 1 1 1
v 0 0.5706585 -0.6154009 1 1 1
v 0 0.5034385 0.6257802 1 1 1
v -0.025 0.3790102 -0.6257802 1 1 1
v -0.025 0.5706585 -0.6154009 1 1 1
v -0.025 0.3117903 0.6154009 1 1 1
v -0.025 0.5034385 0.6257802 1 1 1
v 0 -0.4209898 -0.6257802 1 1 1
v 0 -0.4882098 0.6154009 1 1 1
v 0 -0.2293415 -0.6154009 1 1 1
v 0 -0.2965615 0.6257802 1 1 1
v -0.025 -0.4209898 -0.6257802 1 1 1
v -0.025 -0.2293415 -0.6154009 1 1 1
v -0.025 -0.4882098 0.6154009 1 1 1
v -0.025 -0.2965615 0.6257802 1 1 1
v -0.075 0.8634821 -0.55253 1 1 1
v -0.075 0.9134821 -0.55253 1 1 1
v -0.075 0.8634821 -0.50253 1 1 1
v -0.075 0.9134821 -0.50253 1 1 1
v -0.05 0.8634821 -0.50253 1 1 1
v -0.05 0.8634821 -0.55253 1 1 1
v -0.05 0.9134821 -0.50253 1 1 1
v -0.05 0.9134821 -0.55253 1 1 1
v -0.075 0.9747253 0.5099244 1 1 1
v -0.075 1.024725 0.5099244 1 1 1
v -0.075 0.9747253 0.5599244 1 1 1
v -0.075 1.024725 0.5599244 1 1 1
v -0.05 0.9747253 0.5599244 1 1 1
v -0.05 0.9747253 0.5099244 1 1 1
v -0.05 1.024725 0.5599244 1 1 1
v -0.05 1.024725 0.5099244 1 1 1
v -0.075 -0.04151687 0.5183069 1 1 1
v -0.075 0.008483127 0.5183069 1 1 1
v -0.075 -0.04151687 0.5683068 1 1 1
v -0.075 0.008483127 0.5683068 1 1 1
v -0.05 -0.04151687 0.5683068 1 1 1
v -0.05 -0.04151687 0.5183069 1 1 1
v -0.05 0.008483127 0.5683068 1 1 1
v -0.05 0.008483127 0.5183069 1 1 1
v -0.05 0.4442041 -0.5549212 1 1 1
v -0.05 0.4942041 -0.5549212 1 1 1
v -0.05 0.4442041 -0.5049213 1 1 1
v -0.05 0.4942041 -0.5049213 1 1 1
v -0.025 0.4442041 -0.5049213 1 1 1
v -0.025 0.4442041 -0.5549212 1 1 1
v -0.025 0.4942041 -0.5049213 1 1 1
v -0.025 0.4942041 -0.5549212 1 1 1
v -0.05 -0.3557956 -0.5681784 1 1 1
v -0.05 -0.3057956 -0.5681784 1 1 1
v -0.05 -0.3557956 -0.5181785 1 1 1
v -0.05 -0.3057956 -0.5181785 1 1 1
v -0.025 -0.3557956 -0.5181785 1 1 1
v -0.025 -0.3557956 -0.5681784 1 1 1
v -0.025 -0.3057956 -0.5181785 1 1 1
v -0.025 -0.3057956 -0.5681784 1 1 1
v -0.05 -0.4142439 0.4963069 1 1 1
v -0.05 -0.3642439 0.4963069 1 1 1
v -0.05 -0.4142439 0.5463068 1 1 1
v -0.05 -0.3642439 0.5463068 1 1 1
v -0.025 -0.4142439 0.5463068 1 1 1
v -0.025 -0.4142439 0.4963069 1 1 1
v -0.025 -0.3642439 0.5463068 1 1 1
v -0.025 -0.3642439 0.4963069 1 1 1

vn 1 0 0
vn -1 0 0
vn 0 -0.09410831 -0.9955619
vn 0 -0.9955619 0.09410831
vn 0 0.09410831 0.9955619
vn 0 0.9955619 -0.09410831
vn 0 -0.0732382 -0.9973144
vn 0 -0.9973144 0.0732382
vn 0 0.0732382 0.9973144
vn 0 0.9973144 -0.0732382
vn 0 0.05407882 -0.9985366
vn 0 -0.9985366 -0.05407882
vn 0 -0.05407882 0.9985366
vn 0 0.9985366 0.05407882
vn 0 -0.7071068 0.7071068
vn 0 -0.7071068 -0.7071068
vn 0 0.7071068 0.7071068
vn 0 0.7071068 -0.7071068

vt 0.09375 0.175
vt 0.09375 0.075
vt 0.59375 0.075
vt 0.59375 0.175

usemtl colormap

f 3/1/1 2/2/1 1/1/1
f 2/2/1 3/1/1 4/2/1
f 7/2/2 6/1/2 5/2/2
f 6/1/2 7/2/2 8/1/2
f 5/2/3 1/1/3 2/2/3
f 1/1/3 5/2/3 6/1/3
f 4/2/4 5/2/4 2/2/4
f 5/2/4 4/2/4 7/2/4
f 3/1/5 7/2/5 4/2/5
f 7/2/5 3/1/5 8/1/5
f 6/1/6 3/1/6 1/1/6
f 3/1/6 6/1/6 8/1/6
f 11/1/1 10/2/1 9/1/1
f 10/2/1 11/1/1 12/2/1
f 15/2/2 14/1/2 13/2/2
f 14/1/2 15/2/2 16/1/2
f 13/2/7 9/1/7 10/2/7
f 9/1/7 13/2/7 14/1/7
f 12/2/8 13/2/8 10/2/8
f 13/2/8 12/2/8 15/2/8
f 11/1/9 15/2/9 12/2/9
f 15/2/9 11/1/9 16/1/9
f 14/1/10 11/1/10 9/1/10
f 11/1/10 14/1/10 16/1/10
f 19/1/1 18/2/1 17/2/1
f 18/2/1 19/1/1 20/1/1
f 23/2/2 22/1/2 21/2/2
f 22/1/2 23/2/2 24/1/2
f 21/2/11 19/1/11 17/2/11
f 19/1/11 21/2/11 22/1/11
f 18/2/12 21/2/12 17/2/12
f 21/2/12 18/2/12 23/2/12
f 20/1/13 23/2/13 18/2/13
f 23/2/13 20/1/13 24/1/13
f 22/1/14 20/1/14 19/1/14
f 20/1/14 22/1/14 24/1/14
f 27/1/1 26/2/1 25/2/1
f 26/2/1 27/1/1 28/1/1
f 31/2/2 30/1/2 29/2/2
f 30/1/2 31/2/2 32/1/2
f 29/2/11 27/1/11 25/2/11
f 27/1/11 29/2/11 30/1/11
f 26/2/12 29/2/12 25/2/12
f 29/2/12 26/2/12 31/2/12
f 28/1/13 31/2/13 26/2/13
f 31/2/13 28/1/13 32/1/13
f 30/1/14 28/1/14 27/1/14
f 28/1/14 30/1/14 32/1/14
f 35/3/2 34/4/2 33/3/2
f 34/4/2 35/3/2 36/4/2
f 35/3/15 38/3/16 37/3/15
f 38/3/16 35/3/15 33/3/16
f 39/4/17 35/3/15 37/3/15
f 35/3/15 39/4/17 36/4/17
f 34/4/18 39/4/17 40/4/18
f 39/4/17 34/4/18 36/4/17
f 34/4/18 38/3/16 33/3/16
f 38/3/16 34/4/18 40/4/18
f 43/3/2 42/4/2 41/3/2
f 42/4/2 43/3/2 44/4/2
f 43/3/15 46/3/16 45/3/15
f 46/3/16 43/3/15 41/3/16
f 47/4/17 43/3/15 45/3/15
f 43/3/15 47/4/17 44/4/17
f 42/4/18 47/4/17 48/4/18
f 47/4/17 42/4/18 44/4/17
f 42/4/18 46/3/16 41/3/16
f 46/3/16 42/4/18 48/4/18
f 51/3/2 50/4/2 49/3/2
f 50/4/2 51/3/2 52/4/2
f 51/3/15 54/3/16 53/3/15
f 54/3/16 51/3/15 49/3/16
f 55/4/17 51/3/15 53/3/15
f 51/3/15 55/4/17 52/4/17
f 50/4/18 55/4/17 56/4/18
f 55/4/17 50/4/18 52/4/17
f 50/4/18 54/3/16 49/3/16
f 54/3/16 50/4/18 56/4/18
f 59/3/2 58/4/2 57/3/2
f 58/4/2 59/3/2 60/4/2
f 59/3/15 62/3/16 61/3/15
f 62/3/16 59/3/15 57/3/16
f 63/4/17 59/3/15 61/3/15
f 59/3/15 63/4/17 60/4/17
f 58/4/18 63/4/17 64/4/18
f 63/4/17 58/4/18 60/4/17
f 58/4/18 62/3/16 57/3/16
f 62/3/16 58/4/18 64/4/18
f 67/3/2 66/4/2 65/3/2
f 66/4/2 67/3/2 68/4/2
f 67/3/15 70/3/16 69/3/15
f 70/3/16 67/3/15 65/3/16
f 71/4/17 67/3/15 69/3/15
f 67/3/15 71/4/17 68/4/17
f 66/4/18 71/4/17 72/4/18
f 71/4/17 66/4/18 68/4/17
f 66/4/18 70/3/16 65/3/16
f 70/3/16 66/4/18 72/4/18
f 75/3/2 74/4/2 73/3/2
f 74/4/2 75/3/2 76/4/2
f 75/3/15 78/3/16 77/3/15
f 78/3/16 75/3/15 73/3/16
f 79/4/17 75/3/15 77/3/15
f 75/3/15 79/4/17 76/4/17
f 74/4/18 79/4/17 80/4/18
f 79/4/17 74/4/18 76/4/17
f 74/4/18 78/3/16 73/3/16
f 78/3/16 74/4/18 80/4/18

g barricade-doorway-b




usemtl colormap

f 3/1/1 2/2/1 1/1/1
f 2/2/1 3/1/1 4/2/1
f 7/2/2 6/1/2 5/2/2
f 6/1/2 7/2/2 8/1/2
f 5/2/3 1/1/3 2/2/3
f 1/1/3 5/2/3 6/1/3
f 4/2/4 5/2/4 2/2/4
f 5/2/4 4/2/4 7/2/4
f 3/1/5 7/2/5 4/2/5
f 7/2/5 3/1/5 8/1/5
f 6/1/6 3/1/6 1/1/6
f 3/1/6 6/1/6 8/1/6
f 11/1/1 10/2/1 9/1/1
f 10/2/1 11/1/1 12/2/1
f 15/2/2 14/1/2 13/2/2
f 14/1/2 15/2/2 16/1/2
f 13/2/7 9/1/7 10/2/7
f 9/1/7 13/2/7 14/1/7
f 12/2/8 13/2/8 10/2/8
f 13/2/8 12/2/8 15/2/8
f 11/1/9 15/2/9 12/2/9
f 15/2/9 11/1/9 16/1/9
f 14/1/10 11/1/10 9/1/10
f 11/1/10 14/1/10 16/1/10
f 19/1/1 18/2/1 17/2/1
f 18/2/1 19/1/1 20/1/1
f 23/2/2 22/1/2 21/2/2
f 22/1/2 23/2/2 24/1/2
f 21/2/11 19/1/11 17/2/11
f 19/1/11 21/2/11 22/1/11
f 18/2/12 21/2/12 17/2/12
f 21/2/12 18/2/12 23/2/12
f 20/1/13 23/2/13 18/2/13
f 23/2/13 20/1/13 24/1/13
f 22/1/14 20/1/14 19/1/14
f 20/1/14 22/1/14 24/1/14
f 27/1/1 26/2/1 25/2/1
f 26/2/1 27/1/1 28/1/1
f 31/2/2 30/1/2 29/2/2
f 30/1/2 31/2/2 32/1/2
f 29/2/11 27/1/11 25/2/11
f 27/1/11 29/2/11 30/1/11
f 26/2/12 29/2/12 25/2/12
f 29/2/12 26/2/12 31/2/12
f 28/1/13 31/2/13 26/2/13
f 31/2/13 28/1/13 32/1/13
f 30/1/14 28/1/14 27/1/14
f 28/1/14 30/1/14 32/1/14
f 35/3/2 34/4/2 33/3/2
f 34/4/2 35/3/2 36/4/2
f 35/3/15 38/3/16 37/3/15
f 38/3/16 35/3/15 33/3/16
f 39/4/17 35/3/15 37/3/15
f 35/3/15 39/4/17 36/4/17
f 34/4/18 39/4/17 40/4/18
f 39/4/17 34/4/18 36/4/17
f 34/4/18 38/3/16 33/3/16
f 38/3/16 34/4/18 40/4/18
f 43/3/2 42/4/2 41/3/2
f 42/4/2 43/3/2 44/4/2
f 43/3/15 46/3/16 45/3/15
f 46/3/16 43/3/15 41/3/16
f 47/4/17 43/3/15 45/3/15
f 43/3/15 47/4/17 44/4/17
f 42/4/18 47/4/17 48/4/18
f 47/4/17 42/4/18 44/4/17
f 42/4/18 46/3/16 41/3/16
f 46/3/16 42/4/18 48/4/18
f 51/3/2 50/4/2 49/3/2
f 50/4/2 51/3/2 52/4/2
f 51/3/15 54/3/16 53/3/15
f 54/3/16 51/3/15 49/3/16
f 55/4/17 51/3/15 53/3/15
f 51/3/15 55/4/17 52/4/17
f 50/4/18 55/4/17 56/4/18
f 55/4/17 50/4/18 52/4/17
f 50/4/18 54/3/16 49/3/16
f 54/3/16 50/4/18 56/4/18
f 59/3/2 58/4/2 57/3/2
f 58/4/2 59/3/2 60/4/2
f 59/3/15 62/3/16 61/3/15
f 62/3/16 59/3/15 57/3/16
f 63/4/17 59/3/15 61/3/15
f 59/3/15 63/4/17 60/4/17
f 58/4/18 63/4/17 64/4/18
f 63/4/17 58/4/18 60/4/17
f 58/4/18 62/3/16 57/3/16
f 62/3/16 58/4/18 64/4/18
f 67/3/2 66/4/2 65/3/2
f 66/4/2 67/3/2 68/4/2
f 67/3/15 70/3/16 69/3/15
f 70/3/16 67/3/15 65/3/16
f 71/4/17 67/3/15 69/3/15
f 67/3/15 71/4/17 68/4/17
f 66/4/18 71/4/17 72/4/18
f 71/4/17 66/4/18 68/4/17
f 66/4/18 70/3/16 65/3/16
f 70/3/16 66/4/18 72/4/18
f 75/3/2 74/4/2 73/3/2
f 74/4/2 75/3/2 76/4/2
f 75/3/15 78/3/16 77/3/15
f 78/3/16 75/3/15 73/3/16
f 79/4/17 75/3/15 77/3/15
f 75/3/15 79/4/17 76/4/17
f 74/4/18 79/4/17 80/4/18
f 79/4/17 74/4/18 76/4/17
f 74/4/18 78/3/16 73/3/16
f 78/3/16 74/4/18 80/4/18

