# Created by Kenney (www.kenney.nl)

mtllib border-high-corner-diagonal.mtl

g border-high-corner-diagonal

v 0.04142134 0 1.1 1 1 1
v -1 0 1.1 1 1 1
v 0.04142134 0.4 1.1 1 1 1
v -1 0.4 1.1 1 1 1
v 1 0 -1 1 1 1
v 1.1 0 -1 1 1 1
v 1 0.5 -1 1 1 1
v 1.1 0.4 -1 1 1 1
v 1.2 0.4 -1 1 1 1
v 1.2 0.5 -1 1 1 1
v 1.2 0.4 0.08284271 1 1 1
v 0.08284269 0.4 1.2 1 1 1
v 1.2 0.5 0.08284271 1 1 1
v 0.08284269 0.5 1.2 1 1 1
v 1.1 0 0.04142135 1 1 1
v 1.1 0.4 0.04142135 1 1 1
v 1 0.5 -7.450732E-09 1 1 1
v -1.490148E-08 0.5 1 1 1 1
v -1 0.5 1.2 1 1 1
v -1 0.5 1 1 1 1
v -1.490148E-08 0 1 1 1 1
v 1 0 -7.450732E-09 1 1 1
v -1 0.4 1.2 1 1 1
v -1 0 1 1 1 1

vn 0 0 1
vn 0 0 -1
vn 0.7071068 0 0.7071068
vn 0.7172835 0.6302625 0.2971086
vn 0.2971086 0.6302625 0.7172835
vn 1 0 0
vn 0.7071068 0.7071068 0
vn 0 1 0
vn 0 0.7071068 0.7071068
vn -0.7071068 0 -0.7071068
vn -1 0 0
vn 0 -1 0

vt 0.59375 0.025
vt 0.59375 0.185
vt 0.59375 0.225

usemtl colormap

f 3/2/1 2/1/1 1/1/1
f 2/1/1 3/2/1 4/2/1
f 7/3/2 6/1/2 5/1/2
f 6/1/2 7/3/2 8/2/2
f 8/2/2 7/3/2 9/2/2
f 9/2/2 7/3/2 10/3/2
f 13/3/4 12/2/3 11/2/3
f 12/2/3 13/3/4 14/3/5
f 16/2/3 1/1/3 15/1/3
f 1/1/3 16/2/3 3/2/3
f 16/2/6 6/1/6 8/2/6
f 6/1/6 16/2/6 15/1/6
f 7/3/8 13/3/4 10/3/7
f 13/3/4 7/3/8 17/3/8
f 13/3/4 17/3/8 14/3/5
f 14/3/5 17/3/8 18/3/8
f 14/3/5 18/3/8 19/3/9
f 19/3/9 18/3/8 20/3/8
f 13/3/4 9/2/6 10/3/7
f 9/2/6 13/3/4 11/2/6
f 18/3/10 22/1/10 21/1/10
f 22/1/10 18/3/10 17/3/10
f 22/1/11 7/3/11 5/1/11
f 7/3/11 22/1/11 17/3/11
f 14/3/5 23/2/1 12/2/1
f 23/2/1 14/3/5 19/3/9
f 11/2/12 8/2/12 9/2/12
f 8/2/12 11/2/12 16/2/12
f 16/2/12 11/2/12 12/2/12
f 16/2/12 12/2/12 3/2/12
f 3/2/12 12/2/12 23/2/12
f 3/2/12 23/2/12 4/2/12
f 2/1/11 20/3/11 24/1/11
f 20/3/11 2/1/11 4/2/11
f 20/3/11 4/2/11 19/3/11
f 19/3/11 4/2/11 23/2/11
f 20/3/2 21/1/2 24/1/2
f 21/1/2 20/3/2 18/3/2
f 15/1/12 5/1/12 6/1/12
f 5/1/12 15/1/12 22/1/12
f 22/1/12 15/1/12 1/1/12
f 22/1/12 1/1/12 21/1/12
f 21/1/12 1/1/12 2/1/12
f 21/1/12 2/1/12 24/1/12

g border-high-corner-diagonal




usemtl colormap

f 3/2/1 2/1/1 1/1/1
f 2/1/1 3/2/1 4/2/1
f 7/3/2 6/1/2 5/1/2
f 6/1/2 7/3/2 8/2/2
f 8/2/2 7/3/2 9/2/2
f 9/2/2 7/3/2 10/3/2
f 13/3/4 12/2/3 11/2/3
f 12/2/3 13/3/4 14/3/5
f 16/2/3 1/1/3 15/1/3
f 1/1/3 16/2/3 3/2/3
f 16/2/6 6/1/6 8/2/6
f 6/1/6 16/2/6 15/1/6
f 7/3/8 13/3/4 10/3/7
f 13/3/4 7/3/8 17/3/8
f 13/3/4 17/3/8 14/3/5
f 14/3/5 17/3/8 18/3/8
f 14/3/5 18/3/8 19/3/9
f 19/3/9 18/3/8 20/3/8
f 13/3/4 9/2/6 10/3/7
f 9/2/6 13/3/4 11/2/6
f 18/3/10 22/1/10 21/1/10
f 22/1/10 18/3/10 17/3/10
f 22/1/11 7/3/11 5/1/11
f 7/3/11 22/1/11 17/3/11
f 14/3/5 23/2/1 12/2/1
f 23/2/1 14/3/5 19/3/9
f 11/2/12 8/2/12 9/2/12
f 8/2/12 11/2/12 16/2/12
f 16/2/12 11/2/12 12/2/12
f 16/2/12 12/2/12 3/2/12
f 3/2/12 12/2/12 23/2/12
f 3/2/12 23/2/12 4/2/12
f 2/1/11 20/3/11 24/1/11
f 20/3/11 2/1/11 4/2/11
f 20/3/11 4/2/11 19/3/11
f 19/3/11 4/2/11 23/2/11
f 20/3/2 21/1/2 24/1/2
f 21/1/2 20/3/2 18/3/2
f 15/1/12 5/1/12 6/1/12
f 5/1/12 15/1/12 22/1/12
f 22/1/12 15/1/12 1/1/12
f 22/1/12 1/1/12 21/1/12
f 21/1/12 1/1/12 2/1/12
f 21/1/12 2/1/12 24/1/12

