# Created by Kenney (www.kenney.nl)

mtllib border-high.mtl

g border-high

v 0.25 0.4 1 1 1 1
v 0.15 0.4 1 1 1 1
v 0.25 0.5 1 1 1 1
v 0.04999998 0.5 1 1 1 1
v 0.04999998 0 1 1 1 1
v 0.15 0 1 1 1 1
v 0.25 0.5 -1 1 1 1
v 0.04999998 0.5 -1 1 1 1
v 0.04999998 0 -1 1 1 1
v 0.15 0 -1 1 1 1
v 0.15 0.4 -1 1 1 1
v 0.25 0.4 -1 1 1 1

vn 0 0 1
vn 0.7071068 0.7071068 0
vn 0 1 0
vn 0 0 -1
vn 0 -1 0
vn 1 0 0
vn -1 0 0

vt 0.59375 0.185
vt 0.59375 0.225
vt 0.59375 0.025

usemtl colormap

f 3/2/1 2/1/1 1/1/1
f 4/2/1 2/1/1 3/2/1
f 5/3/1 2/1/1 4/2/1
f 2/1/1 5/3/1 6/3/1
f 8/2/3 3/2/2 7/2/2
f 3/2/2 8/2/3 4/2/3
f 8/2/4 10/3/4 9/3/4
f 10/3/4 8/2/4 11/1/4
f 11/1/4 8/2/4 12/1/4
f 12/1/4 8/2/4 7/2/4
f 5/3/5 10/3/5 6/3/5
f 10/3/5 5/3/5 9/3/5
f 2/1/6 10/3/6 11/1/6
f 10/3/6 2/1/6 6/3/6
f 3/2/2 12/1/6 7/2/2
f 12/1/6 3/2/2 1/1/6
f 5/3/7 8/2/7 9/3/7
f 8/2/7 5/3/7 4/2/7
f 2/1/5 12/1/5 1/1/5
f 12/1/5 2/1/5 11/1/5

g border-high




usemtl colormap

f 3/2/1 2/1/1 1/1/1
f 4/2/1 2/1/1 3/2/1
f 5/3/1 2/1/1 4/2/1
f 2/1/1 5/3/1 6/3/1
f 8/2/3 3/2/2 7/2/2
f 3/2/2 8/2/3 4/2/3
f 8/2/4 10/3/4 9/3/4
f 10/3/4 8/2/4 11/1/4
f 11/1/4 8/2/4 12/1/4
f 12/1/4 8/2/4 7/2/4
f 5/3/5 10/3/5 6/3/5
f 10/3/5 5/3/5 9/3/5
f 2/1/6 10/3/6 11/1/6
f 10/3/6 2/1/6 6/3/6
f 3/2/2 12/1/6 7/2/2
f 12/1/6 3/2/2 1/1/6
f 5/3/7 8/2/7 9/3/7
f 8/2/7 5/3/7 4/2/7
f 2/1/5 12/1/5 1/1/5
f 12/1/5 2/1/5 11/1/5

