# Created by Kenney (www.kenney.nl)

mtllib border-corner-small.mtl

g border-corner-small

v 1.05 1.680831E-25 1.1 1 1 1
v 3.465175E-14 1.680831E-25 1.1 1 1 1
v 1.05 0.2 1.1 1 1 1
v 3.465175E-14 0.2 1.1 1 1 1
v 1.15 0.2 1.2 1 1 1
v 7.074732E-14 0.2 1.2 1 1 1
v 1.15 0.3 1.2 1 1 1
v 7.074732E-14 0.3 1.2 1 1 1
v 1.2 0.3 1.15 1 1 1
v 1.2 0.2 1.15 1 1 1
v 1.1 0.2 1.05 1 1 1
v 1.1 1.680831E-25 1.05 1 1 1
v 1 1.680831E-25 0 1 1 1
v 1.1 1.680831E-25 0 1 1 1
v 1 0.3 0 1 1 1
v 1.1 0.2 0 1 1 1
v 1.2 0.2 0 1 1 1
v 1.2 0.3 0 1 1 1
v 1 1.680831E-25 1 1 1 1
v 1 0.3 1 1 1 1
v 1 0.2 1 1 1 1
v 0 1.680831E-25 1 1 1 1
v 0 0.3 1 1 1 1
v 1.1 0.2 1.1 1 1 1
v 1.1 0.2 1 1 1 1

vn 0 0 1
vn 0.2971086 0.6302625 0.7172835
vn 0 0.7071068 0.7071068
vn 0.7172835 0.6302625 0.2971086
vn 0.7071068 0 0.7071068
vn 0 0 -1
vn -1 0 0
vn 0.7071068 0.7071068 0
vn 1 0 0
vn 0 1 0
vn 0 -1 0

vt 0.59375 0.025
vt 0.59375 0.1583333
vt 0.59375 0.225

usemtl colormap

f 3/2/1 2/1/1 1/1/1
f 2/1/1 3/2/1 4/2/1
f 7/3/2 6/2/1 5/2/1
f 6/2/1 7/3/2 8/3/3
f 7/3/2 10/2/5 9/3/4
f 10/2/5 7/3/2 5/2/5
f 3/2/5 12/1/5 11/2/5
f 12/1/5 3/2/5 1/1/5
f 15/3/6 14/1/6 13/1/6
f 14/1/6 15/3/6 16/2/6
f 16/2/6 15/3/6 17/2/6
f 17/2/6 15/3/6 18/3/6
f 19/1/7 15/3/7 13/1/7
f 15/3/7 19/1/7 20/3/7
f 20/3/7 19/1/7 21/2/7
f 2/1/7 23/3/7 22/1/7
f 23/3/7 2/1/7 4/2/7
f 23/3/7 4/2/7 8/3/7
f 8/3/7 4/2/7 6/2/7
f 9/3/4 17/2/9 18/3/8
f 17/2/9 9/3/4 10/2/9
f 18/3/8 7/3/2 9/3/4
f 7/3/2 18/3/8 15/3/10
f 7/3/2 15/3/10 20/3/10
f 7/3/2 20/3/10 8/3/3
f 8/3/3 20/3/10 23/3/10
f 23/3/6 19/1/6 22/1/6
f 19/1/6 23/3/6 21/2/6
f 21/2/6 23/3/6 20/3/6
f 1/1/11 14/1/11 12/1/11
f 14/1/11 1/1/11 13/1/11
f 13/1/11 1/1/11 19/1/11
f 19/1/11 1/1/11 2/1/11
f 19/1/11 2/1/11 22/1/11
f 3/2/11 6/2/11 4/2/11
f 24/2/11 6/2/11 3/2/11
f 3/2/11 11/2/11 24/2/11
f 6/2/11 24/2/11 5/2/11
f 16/2/11 24/2/11 11/2/11
f 16/2/11 5/2/11 24/2/11
f 16/2/11 11/2/11 25/2/11
f 17/2/11 5/2/11 16/2/11
f 5/2/11 17/2/11 10/2/11
f 25/2/9 14/1/9 16/2/9
f 14/1/9 25/2/9 12/1/9
f 12/1/9 25/2/9 11/2/9

g border-corner-small




usemtl colormap

f 3/2/1 2/1/1 1/1/1
f 2/1/1 3/2/1 4/2/1
f 7/3/2 6/2/1 5/2/1
f 6/2/1 7/3/2 8/3/3
f 7/3/2 10/2/5 9/3/4
f 10/2/5 7/3/2 5/2/5
f 3/2/5 12/1/5 11/2/5
f 12/1/5 3/2/5 1/1/5
f 15/3/6 14/1/6 13/1/6
f 14/1/6 15/3/6 16/2/6
f 16/2/6 15/3/6 17/2/6
f 17/2/6 15/3/6 18/3/6
f 19/1/7 15/3/7 13/1/7
f 15/3/7 19/1/7 20/3/7
f 20/3/7 19/1/7 21/2/7
f 2/1/7 23/3/7 22/1/7
f 23/3/7 2/1/7 4/2/7
f 23/3/7 4/2/7 8/3/7
f 8/3/7 4/2/7 6/2/7
f 9/3/4 17/2/9 18/3/8
f 17/2/9 9/3/4 10/2/9
f 18/3/8 7/3/2 9/3/4
f 7/3/2 18/3/8 15/3/10
f 7/3/2 15/3/10 20/3/10
f 7/3/2 20/3/10 8/3/3
f 8/3/3 20/3/10 23/3/10
f 23/3/6 19/1/6 22/1/6
f 19/1/6 23/3/6 21/2/6
f 21/2/6 23/3/6 20/3/6
f 1/1/11 14/1/11 12/1/11
f 14/1/11 1/1/11 13/1/11
f 13/1/11 1/1/11 19/1/11
f 19/1/11 1/1/11 2/1/11
f 19/1/11 2/1/11 22/1/11
f 3/2/11 6/2/11 4/2/11
f 24/2/11 6/2/11 3/2/11
f 3/2/11 11/2/11 24/2/11
f 6/2/11 24/2/11 5/2/11
f 16/2/11 24/2/11 11/2/11
f 16/2/11 5/2/11 24/2/11
f 16/2/11 11/2/11 25/2/11
f 17/2/11 5/2/11 16/2/11
f 5/2/11 17/2/11 10/2/11
f 25/2/9 14/1/9 16/2/9
f 14/1/9 25/2/9 12/1/9
f 12/1/9 25/2/9 11/2/9

