# Created by Kenney (www.kenney.nl)

mtllib column-wide.mtl

g column-wide

v 0.3 2.4 -0.3 1 1 1
v 0.3 2.4 0.3 1 1 1
v -0.3 2.4 -0.3 1 1 1
v -0.3 2.4 0.3 1 1 1
v -0.3 0.4 -0.3 1 1 1
v 0.3 0.4 -0.3 1 1 1
v -0.3 0.4 0.3 1 1 1
v 0.3 0.4 0.3 1 1 1
v -0.35 0.4 0.3 1 1 1
v -0.35 0.4 -0.3 1 1 1
v -0.3 0.4 0.35 1 1 1
v 0.3 0.4 0.35 1 1 1
v -0.3 0.4 -0.35 1 1 1
v 0.3 0.4 -0.35 1 1 1
v 0.35 0.4 0.3 1 1 1
v 0.35 0.4 -0.3 1 1 1
v 0.35 0 0.3 1 1 1
v 0.35 0 -0.3 1 1 1
v 0.3 0 0.35 1 1 1
v 0.3 0 -0.35 1 1 1
v -0.3 0 0.35 1 1 1
v -0.3 0 -0.35 1 1 1
v -0.35 0 0.3 1 1 1
v -0.35 0 -0.3 1 1 1

vn 0 1 0
vn 0 0 -1
vn -1 0 0
vn 0 0 1
vn 1 0 0
vn 0 -1 0
vn 0.3826834 0 -0.9238795
vn -0.3826834 0 -0.9238795
vn 0.9238795 0 -0.3826834
vn -0.9238795 0 -0.3826834
vn 0.9238795 0 0.3826834
vn -0.9238795 0 0.3826834
vn 0.3826834 0 0.9238795
vn -0.3826834 0 0.9238795

vt 0.46875 0.225
vt 0.59375 0.05833333
vt 0.59375 0.225
vt 0.71875 0.05833333
vt 0.71875 0.025

usemtl colormap

f 3/1/1 2/1/1 1/1/1
f 2/1/1 3/1/1 4/1/1
f 3/3/2 6/2/2 5/2/2
f 6/2/2 3/3/2 1/3/2
f 7/2/3 3/3/3 5/2/3
f 3/3/3 7/2/3 4/3/3
f 2/3/4 7/2/4 8/2/4
f 7/2/4 2/3/4 4/3/4
f 2/3/5 6/2/5 1/3/5
f 6/2/5 2/3/5 8/2/5
f 11/4/1 10/4/1 9/4/1
f 7/4/1 10/4/1 11/4/1
f 12/4/1 7/4/1 11/4/1
f 5/4/1 10/4/1 7/4/1
f 5/4/1 13/4/1 10/4/1
f 12/4/1 8/4/1 7/4/1
f 6/4/1 13/4/1 5/4/1
f 12/4/1 6/4/1 8/4/1
f 13/4/1 6/4/1 14/4/1
f 12/4/1 14/4/1 6/4/1
f 15/4/1 14/4/1 12/4/1
f 14/4/1 15/4/1 16/4/1
f 19/5/6 18/5/6 17/5/6
f 18/5/6 19/5/6 20/5/6
f 20/5/6 19/5/6 21/5/6
f 20/5/6 21/5/6 22/5/6
f 22/5/6 21/5/6 23/5/6
f 22/5/6 23/5/6 24/5/6
f 20/5/7 13/4/8 14/4/7
f 16/4/9 20/5/7 14/4/7
f 13/4/8 20/5/7 22/5/8
f 20/5/7 16/4/9 18/5/9
f 24/5/10 13/4/8 22/5/8
f 15/4/11 18/5/9 16/4/9
f 13/4/8 24/5/10 10/4/10
f 18/5/9 15/4/11 17/5/11
f 23/5/12 10/4/10 24/5/10
f 10/4/10 23/5/12 9/4/12
f 12/4/13 17/5/11 15/4/11
f 17/5/11 12/4/13 19/5/13
f 21/5/14 9/4/12 23/5/12
f 12/4/13 21/5/14 19/5/13
f 9/4/12 21/5/14 11/4/14
f 21/5/14 12/4/13 11/4/14

g column-wide




usemtl colormap

f 3/1/1 2/1/1 1/1/1
f 2/1/1 3/1/1 4/1/1
f 3/3/2 6/2/2 5/2/2
f 6/2/2 3/3/2 1/3/2
f 7/2/3 3/3/3 5/2/3
f 3/3/3 7/2/3 4/3/3
f 2/3/4 7/2/4 8/2/4
f 7/2/4 2/3/4 4/3/4
f 2/3/5 6/2/5 1/3/5
f 6/2/5 2/3/5 8/2/5
f 11/4/1 10/4/1 9/4/1
f 7/4/1 10/4/1 11/4/1
f 12/4/1 7/4/1 11/4/1
f 5/4/1 10/4/1 7/4/1
f 5/4/1 13/4/1 10/4/1
f 12/4/1 8/4/1 7/4/1
f 6/4/1 13/4/1 5/4/1
f 12/4/1 6/4/1 8/4/1
f 13/4/1 6/4/1 14/4/1
f 12/4/1 14/4/1 6/4/1
f 15/4/1 14/4/1 12/4/1
f 14/4/1 15/4/1 16/4/1
f 19/5/6 18/5/6 17/5/6
f 18/5/6 19/5/6 20/5/6
f 20/5/6 19/5/6 21/5/6
f 20/5/6 21/5/6 22/5/6
f 22/5/6 21/5/6 23/5/6
f 22/5/6 23/5/6 24/5/6
f 20/5/7 13/4/8 14/4/7
f 16/4/9 20/5/7 14/4/7
f 13/4/8 20/5/7 22/5/8
f 20/5/7 16/4/9 18/5/9
f 24/5/10 13/4/8 22/5/8
f 15/4/11 18/5/9 16/4/9
f 13/4/8 24/5/10 10/4/10
f 18/5/9 15/4/11 17/5/11
f 23/5/12 10/4/10 24/5/10
f 10/4/10 23/5/12 9/4/12
f 12/4/13 17/5/11 15/4/11
f 17/5/11 12/4/13 19/5/13
f 21/5/14 9/4/12 23/5/12
f 12/4/13 21/5/14 19/5/13
f 9/4/12 21/5/14 11/4/14
f 21/5/14 12/4/13 11/4/14

