# Created by Kenney (www.kenney.nl)

mtllib detail-pipe.mtl

g detail-pipe

v -0.1145513 0 -0.1145513 1 1 1
v -0.09164104 0.22032 -0.09164104 1 1 1
v -0.162 0 0 1 1 1
v -0.1296 0.22032 0 1 1 1
v 0.1296 0.22032 0 1 1 1
v 0.162 0 0 1 1 1
v 0.09164104 0.22032 0.09164104 1 1 1
v 0.1145513 0 0.1145513 1 1 1
v 7.038636E-15 0 -0.162 1 1 1
v 0.1145513 0 -0.1145513 1 1 1
v 2.346212E-15 0.22032 -0.1296 1 1 1
v 0.09164104 0.22032 -0.09164104 1 1 1
v -0.1145513 0 0.1145513 1 1 1
v -0.09164104 0.22032 0.09164104 1 1 1
v 7.038636E-15 0 0.162 1 1 1
v 2.346212E-15 0.22032 0.1296 1 1 1
v -0.21708 0.324 0 1 1 1
v -0.1458 0.42768 0 1 1 1
v -0.1534987 0.324 0.1534987 1 1 1
v -0.1030962 0.42768 0.1030962 1 1 1
v 0.1458 0.42768 0 1 1 1
v 0.1030962 0.42768 0.1030962 1 1 1
v 0.1030962 0.42768 -0.1030962 1 1 1
v 4.692424E-15 0.42768 -0.1458 1 1 1
v 4.692424E-15 0.42768 0.1458 1 1 1
v -0.1030962 0.42768 -0.1030962 1 1 1
v 2.346212E-15 0.324 -0.21708 1 1 1
v 0.1534987 0.324 -0.1534987 1 1 1
v -0.1534987 0.324 -0.1534987 1 1 1
v 0.21708 0.324 0 1 1 1
v 2.346212E-15 0.324 0.21708 1 1 1
v 0.1534987 0.324 0.1534987 1 1 1

vn -0.6995826 0.145494 -0.6995826
vn -0.9893591 0.145494 0
vn 0.9893591 0.145494 0
vn 0.6995826 0.145494 0.6995826
vn 0 0.145494 -0.9893591
vn 0.6995826 0.145494 -0.6995826
vn -0.6995826 0.145494 0.6995826
vn 0 0.145494 0.9893591
vn 0 -1 0
vn -0.824042 0.5665288 0
vn -0.5826856 0.5665288 0.5826856
vn 0 1 0
vn 0 -0.6448709 -0.7642915
vn 0.5404357 -0.644871 -0.5404357
vn -0.5404357 -0.644871 -0.5404357
vn -0.5826856 0.5665288 -0.5826856
vn 0 0.5665288 -0.824042
vn 0.5826856 0.5665288 -0.5826856
vn 0.824042 0.5665288 0
vn 0 -0.6448709 0.7642915
vn -0.5404357 -0.644871 0.5404357
vn 0 0.5665288 0.824042
vn -0.7642915 -0.6448709 0
vn 0.5826856 0.5665288 0.5826856
vn 0.5404357 -0.644871 0.5404357
vn 0.7642915 -0.6448709 0

vt 0.59375 0.025
vt 0.59375 0.225
vt 0.59375 0.125

usemtl colormap

f 3/1/2 2/2/1 1/1/1
f 2/2/1 3/1/2 4/2/2
f 7/2/4 6/1/3 5/2/3
f 6/1/3 7/2/4 8/1/4
f 11/2/5 10/1/6 9/1/5
f 10/1/6 11/2/5 12/2/6
f 13/1/7 4/2/2 3/1/2
f 4/2/2 13/1/7 14/2/7
f 16/2/8 13/1/7 15/1/8
f 13/1/7 16/2/8 14/2/7
f 7/2/4 15/1/8 8/1/4
f 15/1/8 7/2/4 16/2/8
f 8/1/9 10/1/9 6/1/9
f 10/1/9 8/1/9 15/1/9
f 10/1/9 15/1/9 9/1/9
f 9/1/9 15/1/9 13/1/9
f 9/1/9 13/1/9 1/1/9
f 1/1/9 13/1/9 3/1/9
f 2/2/1 9/1/5 1/1/1
f 9/1/5 2/2/1 11/2/5
f 12/2/6 6/1/3 10/1/6
f 6/1/3 12/2/6 5/2/3
f 19/3/11 18/2/10 17/3/10
f 18/2/10 19/3/11 20/2/11
f 23/2/12 22/2/12 21/2/12
f 22/2/12 23/2/12 24/2/12
f 22/2/12 24/2/12 25/2/12
f 25/2/12 24/2/12 26/2/12
f 25/2/12 26/2/12 20/2/12
f 20/2/12 26/2/12 18/2/12
f 27/3/13 12/1/14 11/1/13
f 12/1/14 27/3/13 28/3/14
f 29/3/15 11/1/13 2/1/15
f 11/1/13 29/3/15 27/3/13
f 26/2/16 27/3/17 29/3/16
f 27/3/17 26/2/16 24/2/17
f 23/2/18 30/3/19 28/3/18
f 30/3/19 23/2/18 21/2/19
f 31/3/20 14/1/21 16/1/20
f 14/1/21 31/3/20 19/3/21
f 17/3/10 26/2/16 29/3/16
f 26/2/16 17/3/10 18/2/10
f 25/2/22 19/3/11 31/3/22
f 19/3/11 25/2/22 20/2/11
f 2/1/15 17/3/23 29/3/15
f 17/3/23 2/1/15 4/1/23
f 22/2/24 31/3/22 32/3/24
f 31/3/22 22/2/24 25/2/22
f 32/3/25 16/1/20 7/1/25
f 16/1/20 32/3/25 31/3/20
f 24/2/17 28/3/18 27/3/17
f 28/3/18 24/2/17 23/2/18
f 14/1/21 17/3/23 4/1/23
f 17/3/23 14/1/21 19/3/21
f 32/3/25 5/1/26 30/3/26
f 5/1/26 32/3/25 7/1/25
f 30/3/26 12/1/14 28/3/14
f 12/1/14 30/3/26 5/1/26
f 22/2/24 30/3/19 21/2/19
f 30/3/19 22/2/24 32/3/24

g detail-pipe




usemtl colormap

f 3/1/2 2/2/1 1/1/1
f 2/2/1 3/1/2 4/2/2
f 7/2/4 6/1/3 5/2/3
f 6/1/3 7/2/4 8/1/4
f 11/2/5 10/1/6 9/1/5
f 10/1/6 11/2/5 12/2/6
f 13/1/7 4/2/2 3/1/2
f 4/2/2 13/1/7 14/2/7
f 16/2/8 13/1/7 15/1/8
f 13/1/7 16/2/8 14/2/7
f 7/2/4 15/1/8 8/1/4
f 15/1/8 7/2/4 16/2/8
f 8/1/9 10/1/9 6/1/9
f 10/1/9 8/1/9 15/1/9
f 10/1/9 15/1/9 9/1/9
f 9/1/9 15/1/9 13/1/9
f 9/1/9 13/1/9 1/1/9
f 1/1/9 13/1/9 3/1/9
f 2/2/1 9/1/5 1/1/1
f 9/1/5 2/2/1 11/2/5
f 12/2/6 6/1/3 10/1/6
f 6/1/3 12/2/6 5/2/3
f 19/3/11 18/2/10 17/3/10
f 18/2/10 19/3/11 20/2/11
f 23/2/12 22/2/12 21/2/12
f 22/2/12 23/2/12 24/2/12
f 22/2/12 24/2/12 25/2/12
f 25/2/12 24/2/12 26/2/12
f 25/2/12 26/2/12 20/2/12
f 20/2/12 26/2/12 18/2/12
f 27/3/13 12/1/14 11/1/13
f 12/1/14 27/3/13 28/3/14
f 29/3/15 11/1/13 2/1/15
f 11/1/13 29/3/15 27/3/13
f 26/2/16 27/3/17 29/3/16
f 27/3/17 26/2/16 24/2/17
f 23/2/18 30/3/19 28/3/18
f 30/3/19 23/2/18 21/2/19
f 31/3/20 14/1/21 16/1/20
f 14/1/21 31/3/20 19/3/21
f 17/3/10 26/2/16 29/3/16
f 26/2/16 17/3/10 18/2/10
f 25/2/22 19/3/11 31/3/22
f 19/3/11 25/2/22 20/2/11
f 2/1/15 17/3/23 29/3/15
f 17/3/23 2/1/15 4/1/23
f 22/2/24 31/3/22 32/3/24
f 31/3/22 22/2/24 25/2/22
f 32/3/25 16/1/20 7/1/25
f 16/1/20 32/3/25 31/3/20
f 24/2/17 28/3/18 27/3/17
f 28/3/18 24/2/17 23/2/18
f 14/1/21 17/3/23 4/1/23
f 17/3/23 14/1/21 19/3/21
f 32/3/25 5/1/26 30/3/26
f 5/1/26 32/3/25 7/1/25
f 30/3/26 12/1/14 28/3/14
f 12/1/14 30/3/26 5/1/26
f 22/2/24 30/3/19 21/2/19
f 30/3/19 22/2/24 32/3/24

