# Created by Kenney (www.kenney.nl)

mtllib door-rotate-square-c.mtl

g door

v -0.05 0.875 0.225 1 1 1
v -0.05 1.875 0.225 1 1 1
v -0.05 0.875 0.675 1 1 1
v -0.05 1.875 0.675 1 1 1
v -0.05 0.225 0.225 1 1 1
v -0.05 0.725 0.225 1 1 1
v -0.05 0.225 0.675 1 1 1
v -0.05 0.725 0.675 1 1 1
v -0.025 0.85 0.2 1 1 1
v -0.025 1.9 0.2 1 1 1
v -0.025 0.2 0.7 1 1 1
v -0.025 0.75 0.7 1 1 1
v -0.025 1.9 0.7 1 1 1
v -0.025 0.2 0.2 1 1 1
v -0.025 0.85 0.7 1 1 1
v -0.025 0.75 0.2 1 1 1
v -0.025 0.1 0.1 1 1 1
v -0.025 0.1 0.8 1 1 1
v -0.05 0.075 0.075 1 1 1
v -0.05 0.075 0.825 1 1 1
v -0.05 2.025 0.075 1 1 1
v -0.025 2 0.1 1 1 1
v -0.05 2.025 0.825 1 1 1
v -0.025 2 0.8 1 1 1
v 0.025 0.2 0.7 1 1 1
v 0.025 0.75 0.7 1 1 1
v 0.05 0.225 0.675 1 1 1
v 0.05 0.725 0.675 1 1 1
v 0.05 0.875 0.675 1 1 1
v 0.025 0.85 0.7 1 1 1
v 0.05 1.875 0.675 1 1 1
v 0.025 1.9 0.7 1 1 1
v 0.05 0.075 0.075 1 1 1
v 0.05 0.075 0.825 1 1 1
v 0.025 0.1 0.1 1 1 1
v 0.025 0.1 0.8 1 1 1
v 0.05 0.725 0.225 1 1 1
v 0.05 0.225 0.225 1 1 1
v 0.025 0.75 0.2 1 1 1
v 0.025 0.85 0.2 1 1 1
v 0.05 0.875 0.225 1 1 1
v 0.025 0.2 0.2 1 1 1
v 0.025 2 0.8 1 1 1
v 0.05 2.025 0.825 1 1 1
v 0.025 1.9 0.2 1 1 1
v 0.05 1.875 0.225 1 1 1
v 0.05 2.025 0.075 1 1 1
v 0.025 2 0.1 1 1 1
v 0.05 2.1 0.9 1 1 1
v 0.05 2.1 0 1 1 1
v 0.05 -6.203926E-17 0.9 1 1 1
v 0.05 -6.203926E-17 0 1 1 1
v -0.05 6.203926E-17 0.9 1 1 1
v -0.05 6.203926E-17 0 1 1 1
v -0.05 2.1 0.9 1 1 1
v -0.05 2.1 0 1 1 1
v 0.0250001 0.1 0.0999999 1 1 1
v 0.0250001 1.9 0.1999999 1 1 1
v 0.0250001 2 0.0999999 1 1 1
v 0.0250001 2 0.7999999 1 1 1
v 0.0250001 0.2 0.1999999 1 1 1
v 0.0250001 0.1 0.7999999 1 1 1
v 0.0250001 0.85 0.1999999 1 1 1
v 0.0250001 1.9 0.6999999 1 1 1
v 0.0250001 0.75 0.1999999 1 1 1
v 0.0250001 0.85 0.6999999 1 1 1
v 0.0250001 0.75 0.6999999 1 1 1
v 0.0250001 0.2 0.6999999 1 1 1
v -0.0250001 2 0.0999999 1 1 1
v -0.0250001 0.2 0.1999999 1 1 1
v -0.0250001 0.1 0.0999999 1 1 1
v -0.0250001 0.1 0.7999999 1 1 1
v -0.0250001 1.9 0.1999999 1 1 1
v -0.0250001 2 0.7999999 1 1 1
v -0.0250001 0.75 0.1999999 1 1 1
v -0.0250001 0.2 0.6999999 1 1 1
v -0.0250001 0.85 0.1999999 1 1 1
v -0.0250001 0.75 0.6999999 1 1 1
v -0.0250001 0.85 0.6999999 1 1 1
v -0.0250001 1.9 0.6999999 1 1 1
v -0.075 0.8 0.7 1 1 1
v -0.075 0.95 0.7 1 1 1
v -0.075 0.7646447 0.7146447 1 1 1
v -0.075 0.9853553 0.7146447 1 1 1
v -0.075 0.75 0.75 1 1 1
v -0.075 1 0.75 1 1 1
v -0.075 0.7646447 0.7853553 1 1 1
v -0.075 0.9853553 0.7853553 1 1 1
v -0.075 0.8 0.8 1 1 1
v -0.075 0.95 0.8 1 1 1
v 0.075 0.7646447 0.7853553 1 1 1
v 0.075 0.8 0.8 1 1 1
v 0.075 0.95 0.7 1 1 1
v 0.075 0.8 0.7 1 1 1
v 0.075 0.9853553 0.7146447 1 1 1
v 0.075 0.7646447 0.7146447 1 1 1
v 0.075 1 0.75 1 1 1
v 0.075 0.75 0.75 1 1 1
v 0.075 0.9853553 0.7853553 1 1 1
v 0.075 0.95 0.8 1 1 1
v -0.05 1.8 -0.02499995 1 1 1
v 0.05 1.8 -0.02499995 1 1 1
v -0.05 1.9 -0.02499995 1 1 1
v 0.05 1.9 -0.02499995 1 1 1
v -0.075 1.9 0.05000005 1 1 1
v -0.075 1.9 4.749745E-08 1 1 1
v -0.05 1.9 0.05000005 1 1 1
v -0.05 1.9 4.749745E-08 1 1 1
v 0.05 1.9 4.749745E-08 1 1 1
v 0.075 1.9 0.05000005 1 1 1
v 0.05 1.9 0.05000005 1 1 1
v 0.075 1.9 4.749745E-08 1 1 1
v -0.075 1.8 4.749745E-08 1 1 1
v -0.075 1.8 0.05000005 1 1 1
v 0.075 1.8 4.749745E-08 1 1 1
v 0.075 1.8 0.05000005 1 1 1
v 0.05 1.8 0.05000005 1 1 1
v -0.05 1.8 0.05000005 1 1 1
v 0.05 1.8 4.749745E-08 1 1 1
v -0.05 1.8 4.749745E-08 1 1 1
v -0.05 0.2 -0.02499995 1 1 1
v 0.05 0.2 -0.02499995 1 1 1
v -0.05 0.3 -0.02499995 1 1 1
v 0.05 0.3 -0.02499995 1 1 1
v -0.075 0.3 0.05000005 1 1 1
v -0.075 0.3 4.749745E-08 1 1 1
v -0.05 0.3 0.05000005 1 1 1
v -0.05 0.3 4.749745E-08 1 1 1
v 0.05 0.3 4.749745E-08 1 1 1
v 0.075 0.3 0.05000005 1 1 1
v 0.05 0.3 0.05000005 1 1 1
v 0.075 0.3 4.749745E-08 1 1 1
v -0.075 0.2 4.749745E-08 1 1 1
v -0.075 0.2 0.05000005 1 1 1
v 0.075 0.2 4.749745E-08 1 1 1
v 0.075 0.2 0.05000005 1 1 1
v 0.05 0.2 0.05000005 1 1 1
v -0.05 0.2 0.05000005 1 1 1
v 0.05 0.2 4.749745E-08 1 1 1
v -0.05 0.2 4.749745E-08 1 1 1

vn -1 0 0
vn -0.8164966 -0.4082483 -0.4082483
vn -0.8164966 0.4082483 -0.4082483
vn -0.8164966 -0.4082483 0.4082483
vn -0.8164966 0.4082483 0.4082483
vn 0.8164966 -0.4082483 0.4082483
vn 0.8164966 0.4082483 0.4082483
vn 0.8164966 0.4082483 -0.4082483
vn 1 0 0
vn 0.8164966 -0.4082483 -0.4082483
vn 0 0 -1
vn 0 0 1
vn 0 -1 0
vn 0 1 0
vn 0 -0.7071068 0.7071068
vn 0 -0.1950903 0.9807853
vn 0 0.7071068 -0.7071068
vn 0 0.7071068 0.7071068
vn 0 0.1950903 -0.9807853
vn 0 0.1950903 0.9807853
vn 0 -0.7071068 -0.7071068
vn 0 -0.1950903 -0.9807853
vn -0.3826834 0 -0.9238795
vn 0.3826834 0 -0.9238795
vn -0.9238795 0 -0.3826834
vn 0.9238795 0 -0.3826834

vt 0.09375 0.1083333
vt 0.09375 0.2035714
vt 0.09375 0.04642857
vt 0.09375 0.09404761
vt 0.09375 0.1059524
vt 0.09375 0.2059524
vt 0.09375 0.04404762
vt 0.09375 0.09642857
vt 0.09375 0.03452381
vt 0.09375 0.03214286
vt 0.09375 0.2178572
vt 0.09375 0.2154762
vt 0.09375 0.225
vt 0.09375 0.025
vt 0.09375 0.1197368
vt 0.09375 0.125
vt 0.09375 0.03026316
vt 0.09375 0.06447368
vt 0.09375 0.05921053
vt 0.46875 0.025
vt 0.46875 0.225
vt 0.59375 0.065
vt 0.59375 0.185
vt 0.59375 0.03671573
vt 0.59375 0.2132843
vt 0.59375 0.025
vt 0.59375 0.225
vt 0.59375 0.075
vt 0.59375 0.175

usemtl colormap

f 3/1/1 2/2/1 1/1/1
f 2/2/1 3/1/1 4/2/1
f 7/3/1 6/4/1 5/3/1
f 6/4/1 7/3/1 8/4/1
f 1/1/2 10/6/3 9/5/2
f 10/6/3 1/1/2 2/2/3
f 12/8/5 7/3/4 11/7/4
f 7/3/4 12/8/5 8/4/5
f 2/2/3 13/6/5 10/6/3
f 13/6/5 2/2/3 4/2/5
f 7/3/4 14/7/2 11/7/4
f 14/7/2 7/3/4 5/3/2
f 15/5/4 4/2/5 3/1/4
f 4/2/5 15/5/4 13/6/5
f 6/4/3 12/8/5 16/8/3
f 12/8/5 6/4/3 8/4/5
f 5/3/2 16/8/3 14/7/2
f 16/8/3 5/3/2 6/4/3
f 15/5/4 1/1/2 9/5/2
f 1/1/2 15/5/4 3/1/4
f 19/10/5 18/9/3 17/9/5
f 18/9/3 19/10/5 20/10/3
f 17/9/5 21/11/4 19/10/5
f 21/11/4 17/9/5 22/12/4
f 22/12/4 23/11/2 21/11/4
f 23/11/2 22/12/4 24/12/2
f 20/10/3 24/12/2 18/9/3
f 24/12/2 20/10/3 23/11/2
f 27/3/6 26/8/7 25/7/6
f 26/8/7 27/3/6 28/4/7
f 31/2/7 30/5/6 29/1/6
f 30/5/6 31/2/7 32/6/7
f 35/9/7 34/10/8 33/10/7
f 34/10/8 35/9/7 36/9/8
f 28/4/9 38/3/9 37/4/9
f 38/3/9 28/4/9 27/3/9
f 39/8/8 28/4/7 37/4/8
f 28/4/7 39/8/8 26/8/7
f 41/1/10 30/5/6 40/5/10
f 30/5/6 41/1/10 29/1/6
f 25/7/6 38/3/10 27/3/6
f 38/3/10 25/7/6 42/7/10
f 44/11/10 36/9/8 43/12/10
f 36/9/8 44/11/10 34/10/8
f 32/6/7 46/2/8 45/6/8
f 46/2/8 32/6/7 31/2/7
f 37/4/8 42/7/10 39/8/8
f 42/7/10 37/4/8 38/3/10
f 46/2/8 40/5/10 45/6/8
f 40/5/10 46/2/8 41/1/10
f 44/11/10 48/12/6 47/11/6
f 48/12/6 44/11/10 43/12/10
f 48/12/6 33/10/7 47/11/6
f 33/10/7 48/12/6 35/9/7
f 31/2/9 41/1/9 46/2/9
f 41/1/9 31/2/9 29/1/9
f 47/11/9 49/13/9 44/11/9
f 44/11/9 49/13/9 34/10/9
f 47/11/9 50/13/9 49/13/9
f 51/14/9 34/10/9 49/13/9
f 50/13/9 47/11/9 52/14/9
f 51/14/9 33/10/9 34/10/9
f 52/14/9 33/10/9 51/14/9
f 33/10/9 52/14/9 47/11/9
f 19/10/1 53/14/1 20/10/1
f 20/10/1 53/14/1 23/11/1
f 19/10/1 54/14/1 53/14/1
f 55/13/1 23/11/1 53/14/1
f 54/14/1 19/10/1 56/13/1
f 55/13/1 21/11/1 23/11/1
f 56/13/1 21/11/1 55/13/1
f 21/11/1 56/13/1 19/10/1
f 59/16/9 58/15/9 57/14/9
f 58/15/9 59/16/9 60/16/9
f 61/17/9 57/14/9 58/15/9
f 57/14/9 61/17/9 62/14/9
f 61/17/9 58/15/9 63/18/9
f 58/15/9 60/16/9 64/15/9
f 61/17/9 63/18/9 65/19/9
f 66/18/9 65/19/9 63/18/9
f 65/19/9 66/18/9 67/19/9
f 67/19/9 66/18/9 64/15/9
f 62/14/9 61/17/9 68/17/9
f 62/14/9 68/17/9 60/16/9
f 64/15/9 60/16/9 68/17/9
f 67/19/9 64/15/9 68/17/9
f 71/14/1 70/17/1 69/16/1
f 70/17/1 71/14/1 72/14/1
f 73/15/1 69/16/1 70/17/1
f 69/16/1 73/15/1 74/16/1
f 73/15/1 70/17/1 75/19/1
f 70/17/1 72/14/1 76/17/1
f 73/15/1 75/19/1 77/18/1
f 78/19/1 77/18/1 75/19/1
f 77/18/1 78/19/1 79/18/1
f 79/18/1 78/19/1 76/17/1
f 74/16/1 73/15/1 80/15/1
f 74/16/1 80/15/1 72/14/1
f 76/17/1 72/14/1 80/15/1
f 79/18/1 76/17/1 80/15/1
f 54/20/11 50/21/11 52/20/11
f 50/21/11 54/20/11 56/21/11
f 49/21/12 53/20/12 51/20/12
f 53/20/12 49/21/12 55/21/12
f 53/20/13 52/20/13 51/20/13
f 52/20/13 53/20/13 54/20/13
f 50/21/14 55/21/14 49/21/14
f 55/21/14 50/21/14 56/21/14
f 83/24/1 82/23/1 81/22/1
f 82/23/1 83/24/1 84/25/1
f 84/25/1 83/24/1 85/26/1
f 84/25/1 85/26/1 86/27/1
f 86/27/1 85/26/1 87/24/1
f 86/27/1 87/24/1 88/25/1
f 88/25/1 87/24/1 89/22/1
f 88/25/1 89/22/1 90/23/1
f 92/22/16 87/24/15 91/24/15
f 87/24/15 92/22/16 89/22/16
f 95/25/9 94/22/9 93/23/9
f 94/22/9 95/25/9 96/24/9
f 96/24/9 95/25/9 97/27/9
f 96/24/9 97/27/9 98/26/9
f 98/26/9 97/27/9 99/25/9
f 98/26/9 99/25/9 91/24/9
f 91/24/9 99/25/9 100/23/9
f 91/24/9 100/23/9 92/22/9
f 84/25/17 97/27/14 95/25/17
f 97/27/14 84/25/17 86/27/14
f 87/24/15 98/26/13 91/24/15
f 98/26/13 87/24/15 85/26/13
f 86/27/14 99/25/18 97/27/14
f 99/25/18 86/27/14 88/25/18
f 84/25/17 93/23/19 82/23/19
f 93/23/19 84/25/17 95/25/17
f 99/25/18 90/23/20 100/23/20
f 90/23/20 99/25/18 88/25/18
f 85/26/13 96/24/21 98/26/13
f 96/24/21 85/26/13 83/24/21
f 82/23/19 94/22/22 81/22/22
f 94/22/22 82/23/19 93/23/19
f 100/23/20 89/22/16 92/22/16
f 89/22/16 100/23/20 90/23/20
f 81/22/22 96/24/21 83/24/21
f 96/24/21 81/22/22 94/22/22
f 103/29/23 102/28/24 101/28/23
f 102/28/24 103/29/23 104/29/24
f 107/29/14 106/29/14 105/29/14
f 108/29/14 106/29/14 107/29/14
f 108/29/14 103/29/14 106/29/14
f 109/29/14 103/29/14 108/29/14
f 103/29/14 109/29/14 104/29/14
f 110/29/14 104/29/14 109/29/14
f 110/29/14 109/29/14 111/29/14
f 104/29/14 110/29/14 112/29/14
f 114/28/1 106/29/25 113/28/25
f 106/29/25 114/28/1 105/29/1
f 110/29/9 115/28/26 112/29/26
f 115/28/26 110/29/9 116/28/9
f 104/29/24 115/28/26 102/28/24
f 115/28/26 104/29/24 112/29/26
f 113/28/25 103/29/23 101/28/23
f 103/29/23 113/28/25 106/29/25
f 110/29/12 117/28/12 116/28/12
f 117/28/12 110/29/12 111/29/12
f 118/28/12 105/29/12 114/28/12
f 105/29/12 118/28/12 107/29/12
f 117/28/13 119/28/13 116/28/13
f 102/28/13 116/28/13 119/28/13
f 116/28/13 102/28/13 115/28/13
f 102/28/13 119/28/13 120/28/13
f 102/28/13 120/28/13 101/28/13
f 101/28/13 120/28/13 113/28/13
f 113/28/13 120/28/13 118/28/13
f 113/28/13 118/28/13 114/28/13
f 123/29/23 122/28/24 121/28/23
f 122/28/24 123/29/23 124/29/24
f 127/29/14 126/29/14 125/29/14
f 128/29/14 126/29/14 127/29/14
f 128/29/14 123/29/14 126/29/14
f 129/29/14 123/29/14 128/29/14
f 123/29/14 129/29/14 124/29/14
f 130/29/14 124/29/14 129/29/14
f 130/29/14 129/29/14 131/29/14
f 124/29/14 130/29/14 132/29/14
f 134/28/1 126/29/25 133/28/25
f 126/29/25 134/28/1 125/29/1
f 130/29/9 135/28/26 132/29/26
f 135/28/26 130/29/9 136/28/9
f 124/29/24 135/28/26 122/28/24
f 135/28/26 124/29/24 132/29/26
f 133/28/25 123/29/23 121/28/23
f 123/29/23 133/28/25 126/29/25
f 130/29/12 137/28/12 136/28/12
f 137/28/12 130/29/12 131/29/12
f 138/28/12 125/29/12 134/28/12
f 125/29/12 138/28/12 127/29/12
f 137/28/13 139/28/13 136/28/13
f 122/28/13 136/28/13 139/28/13
f 136/28/13 122/28/13 135/28/13
f 122/28/13 139/28/13 140/28/13
f 122/28/13 140/28/13 121/28/13
f 121/28/13 140/28/13 133/28/13
f 133/28/13 140/28/13 138/28/13
f 133/28/13 138/28/13 134/28/13

g handle

v -0.125 0.875 0.75 1 1 1
v -0.125 0.925 0.75 1 1 1
v -0.1 0.875 0.775 1 1 1
v -0.1 0.925 0.775 1 1 1
v -0.125 0.875 0.625 1 1 1
v -0.1 0.875 0.625 1 1 1
v -0.125 0.925 0.625 1 1 1
v -0.1 0.925 0.625 1 1 1
v -0.1 0.925 0.725 1 1 1
v -0.1 0.875 0.725 1 1 1
v 0.125 0.925 0.75 1 1 1
v 0.125 0.875 0.75 1 1 1
v 0.1 0.925 0.775 1 1 1
v 0.1 0.875 0.775 1 1 1
v 0.1 0.875 0.725 1 1 1
v 0.1 0.875 0.625 1 1 1
v 0.125 0.875 0.625 1 1 1
v 0.125 0.925 0.625 1 1 1
v 0.1 0.925 0.625 1 1 1
v 0.1 0.925 0.725 1 1 1

vn -0.9238795 0 0.3826834
vn -0.3826834 0 0.9238795
vn 0.9238795 0 0.3826834
vn 0.3826834 0 0.9238795


usemtl colormap

f 143/26/28 142/27/27 141/26/27
f 142/27/27 143/26/28 144/27/28
f 147/27/11 146/26/11 145/26/11
f 146/26/11 147/27/11 148/27/11
f 141/26/27 147/27/1 145/26/1
f 147/27/1 141/26/27 142/27/27
f 149/27/9 146/26/9 148/27/9
f 146/26/9 149/27/9 150/26/9
f 153/27/30 152/26/29 151/27/29
f 152/26/29 153/27/30 154/26/30
f 146/26/13 141/26/13 145/26/13
f 150/26/13 141/26/13 146/26/13
f 150/26/13 143/26/13 141/26/13
f 155/26/13 143/26/13 150/26/13
f 143/26/13 155/26/13 154/26/13
f 156/26/13 154/26/13 155/26/13
f 157/26/13 154/26/13 156/26/13
f 154/26/13 157/26/13 152/26/13
f 151/27/29 157/26/9 158/27/9
f 157/26/9 151/27/29 152/26/29
f 155/26/1 159/27/1 156/26/1
f 159/27/1 155/26/1 160/27/1
f 153/27/30 143/26/28 154/26/30
f 143/26/28 153/27/30 144/27/28
f 149/27/11 155/26/11 150/26/11
f 155/26/11 149/27/11 160/27/11
f 147/27/14 149/27/14 148/27/14
f 149/27/14 147/27/14 144/27/14
f 144/27/14 147/27/14 142/27/14
f 153/27/14 149/27/14 144/27/14
f 153/27/14 160/27/14 149/27/14
f 153/27/14 159/27/14 160/27/14
f 151/27/14 159/27/14 153/27/14
f 159/27/14 151/27/14 158/27/14
f 156/26/11 158/27/11 157/26/11
f 158/27/11 156/26/11 159/27/11

