# Created by Kenney (www.kenney.nl)

mtllib door-rotate-square-b.mtl

g door

v -0.05 0.225 0.225 1 1 1
v -0.05 1.875 0.225 1 1 1
v -0.05 0.225 0.675 1 1 1
v -0.05 1.875 0.675 1 1 1
v 0.05 1.875 0.225 1 1 1
v 0.05 0.225 0.225 1 1 1
v 0.05 1.875 0.675 1 1 1
v 0.05 0.225 0.675 1 1 1
v 0.025 1.9 0.7 1 1 1
v 0.025 1.9 0.2 1 1 1
v 0.025 0.2 0.7 1 1 1
v 0.025 0.2 0.2 1 1 1
v 0.05 2.025 0.825 1 1 1
v 0.05 2.1 0.9 1 1 1
v 0.05 2.025 0.075 1 1 1
v 0.05 0.075 0.825 1 1 1
v 0.05 2.1 0 1 1 1
v 0.05 -6.203926E-17 0.9 1 1 1
v 0.05 -6.203926E-17 0 1 1 1
v 0.05 0.075 0.075 1 1 1
v -0.05 0.075 0.825 1 1 1
v -0.05 0.075 0.075 1 1 1
v -0.025 0.1 0.8 1 1 1
v -0.05 2.025 0.825 1 1 1
v -0.025 0.1 0.1 1 1 1
v -0.025 2 0.8 1 1 1
v -0.05 2.025 0.075 1 1 1
v -0.025 2 0.1 1 1 1
v -0.025 0.2 0.7 1 1 1
v -0.025 0.2 0.2 1 1 1
v -0.025 1.9 0.7 1 1 1
v -0.025 1.9 0.2 1 1 1
v 0.025 0.1 0.8 1 1 1
v 0.025 0.1 0.1 1 1 1
v 0.025 2 0.8 1 1 1
v 0.025 2 0.1 1 1 1
v -0.05 6.203926E-17 0.9 1 1 1
v -0.05 6.203926E-17 0 1 1 1
v -0.05 2.1 0.9 1 1 1
v -0.05 2.1 0 1 1 1
v -0.0250001 0.2 0.6999999 1 1 1
v -0.0250001 0.1 0.7999999 1 1 1
v -0.0250001 0.2 0.1999999 1 1 1
v -0.0250001 1.9 0.6999999 1 1 1
v -0.0250001 0.1 0.0999999 1 1 1
v -0.0250001 2 0.7999999 1 1 1
v -0.0250001 2 0.0999999 1 1 1
v -0.0250001 1.9 0.1999999 1 1 1
v 0.0250001 1.9 0.6999999 1 1 1
v 0.0250001 2 0.7999999 1 1 1
v 0.0250001 1.9 0.1999999 1 1 1
v 0.0250001 0.2 0.6999999 1 1 1
v 0.0250001 2 0.0999999 1 1 1
v 0.0250001 0.1 0.7999999 1 1 1
v 0.0250001 0.1 0.0999999 1 1 1
v 0.0250001 0.2 0.1999999 1 1 1
v -0.075 0.8 0.7 1 1 1
v -0.075 0.95 0.7 1 1 1
v -0.075 0.7646447 0.7146447 1 1 1
v -0.075 0.9853553 0.7146447 1 1 1
v -0.075 0.75 0.75 1 1 1
v -0.075 1 0.75 1 1 1
v -0.075 0.7646447 0.7853553 1 1 1
v -0.075 0.9853553 0.7853553 1 1 1
v -0.075 0.8 0.8 1 1 1
v -0.075 0.95 0.8 1 1 1
v 0.075 0.7646447 0.7853553 1 1 1
v 0.075 0.8 0.8 1 1 1
v 0.075 0.95 0.7 1 1 1
v 0.075 0.8 0.7 1 1 1
v 0.075 0.9853553 0.7146447 1 1 1
v 0.075 0.7646447 0.7146447 1 1 1
v 0.075 1 0.75 1 1 1
v 0.075 0.75 0.75 1 1 1
v 0.075 0.9853553 0.7853553 1 1 1
v 0.075 0.95 0.8 1 1 1
v -0.05 0.2 -0.02499995 1 1 1
v 0.05 0.2 -0.02499995 1 1 1
v -0.05 0.3 -0.02499995 1 1 1
v 0.05 0.3 -0.02499995 1 1 1
v -0.075 0.3 0.05000005 1 1 1
v -0.075 0.3 4.749745E-08 1 1 1
v -0.05 0.3 0.05000005 1 1 1
v -0.05 0.3 4.749745E-08 1 1 1
v 0.05 0.3 4.749745E-08 1 1 1
v 0.075 0.3 0.05000005 1 1 1
v 0.05 0.3 0.05000005 1 1 1
v 0.075 0.3 4.749745E-08 1 1 1
v -0.075 0.2 4.749745E-08 1 1 1
v -0.075 0.2 0.05000005 1 1 1
v 0.075 0.2 4.749745E-08 1 1 1
v 0.075 0.2 0.05000005 1 1 1
v 0.05 0.2 0.05000005 1 1 1
v -0.05 0.2 0.05000005 1 1 1
v 0.05 0.2 4.749745E-08 1 1 1
v -0.05 0.2 4.749745E-08 1 1 1
v -0.05 1.8 -0.02499995 1 1 1
v 0.05 1.8 -0.02499995 1 1 1
v -0.05 1.9 -0.02499995 1 1 1
v 0.05 1.9 -0.02499995 1 1 1
v -0.075 1.9 0.05000005 1 1 1
v -0.075 1.9 4.749745E-08 1 1 1
v -0.05 1.9 0.05000005 1 1 1
v -0.05 1.9 4.749745E-08 1 1 1
v 0.05 1.9 4.749745E-08 1 1 1
v 0.075 1.9 0.05000005 1 1 1
v 0.05 1.9 0.05000005 1 1 1
v 0.075 1.9 4.749745E-08 1 1 1
v -0.075 1.8 4.749745E-08 1 1 1
v -0.075 1.8 0.05000005 1 1 1
v 0.075 1.8 4.749745E-08 1 1 1
v 0.075 1.8 0.05000005 1 1 1
v 0.05 1.8 0.05000005 1 1 1
v -0.05 1.8 0.05000005 1 1 1
v 0.05 1.8 4.749745E-08 1 1 1
v -0.05 1.8 4.749745E-08 1 1 1

vn -1 0 0
vn 1 0 0
vn 0.8164966 0.4082483 0.4082483
vn 0.8164966 0.4082483 -0.4082483
vn 0.8164966 -0.4082483 0.4082483
vn 0.8164966 -0.4082483 -0.4082483
vn -0.8164966 0.4082483 -0.4082483
vn -0.8164966 0.4082483 0.4082483
vn -0.8164966 -0.4082483 -0.4082483
vn -0.8164966 -0.4082483 0.4082483
vn 0 0 -1
vn 0 0 1
vn 0 -1 0
vn 0 1 0
vn 0 -0.7071068 0.7071068
vn 0 -0.1950903 0.9807853
vn 0 0.7071068 -0.7071068
vn 0 0.7071068 0.7071068
vn 0 0.1950903 -0.9807853
vn 0 0.1950903 0.9807853
vn 0 -0.7071068 -0.7071068
vn 0 -0.1950903 -0.9807853
vn -0.3826834 0 -0.9238795
vn 0.3826834 0 -0.9238795
vn -0.9238795 0 -0.3826834
vn 0.9238795 0 -0.3826834

vt 0.71875 0.04642857
vt 0.71875 0.2035714
vt 0.71875 0.2059524
vt 0.71875 0.04404762
vt 0.71875 0.2178572
vt 0.71875 0.225
vt 0.71875 0.03214286
vt 0.71875 0.025
vt 0.71875 0.03452381
vt 0.71875 0.2154762
vt 0.71875 0.03026316
vt 0.71875 0.1197368
vt 0.71875 0.125
vt 0.46875 0.025
vt 0.46875 0.225
vt 0.59375 0.065
vt 0.59375 0.185
vt 0.59375 0.03671573
vt 0.59375 0.2132843
vt 0.59375 0.025
vt 0.59375 0.225
vt 0.59375 0.075
vt 0.59375 0.175

usemtl colormap

f 3/1/1 2/2/1 1/1/1
f 2/2/1 3/1/1 4/2/1
f 7/2/2 6/1/2 5/2/2
f 6/1/2 7/2/2 8/1/2
f 5/2/4 9/3/3 7/2/3
f 9/3/3 8/1/5 7/2/3
f 9/3/3 5/2/4 10/3/4
f 8/1/5 9/3/3 11/4/5
f 5/2/4 12/4/6 10/3/4
f 11/4/5 6/1/6 8/1/5
f 12/4/6 5/2/4 6/1/6
f 6/1/6 11/4/5 12/4/6
f 15/5/2 14/6/2 13/5/2
f 13/5/2 14/6/2 16/7/2
f 15/5/2 17/6/2 14/6/2
f 18/8/2 16/7/2 14/6/2
f 17/6/2 15/5/2 19/8/2
f 18/8/2 20/7/2 16/7/2
f 19/8/2 20/7/2 18/8/2
f 20/7/2 19/8/2 15/5/2
f 23/9/7 22/7/8 21/7/7
f 24/5/9 23/9/7 21/7/7
f 22/7/8 23/9/7 25/9/8
f 23/9/7 24/5/9 26/10/9
f 25/9/8 27/5/10 22/7/8
f 24/5/9 28/10/10 26/10/9
f 27/5/10 25/9/8 28/10/10
f 28/10/10 24/5/9 27/5/10
f 1/1/9 29/4/10 3/1/10
f 29/4/10 4/2/8 3/1/10
f 29/4/10 1/1/9 30/4/9
f 4/2/8 29/4/10 31/3/8
f 1/1/9 32/3/7 30/4/9
f 31/3/8 2/2/7 4/2/8
f 32/3/7 1/1/9 2/2/7
f 2/2/7 31/3/8 32/3/7
f 20/7/3 33/9/4 16/7/4
f 33/9/4 13/5/6 16/7/4
f 33/9/4 20/7/3 34/9/3
f 13/5/6 33/9/4 35/10/6
f 15/5/5 34/9/3 20/7/3
f 36/10/5 13/5/6 35/10/6
f 34/9/3 15/5/5 36/10/5
f 13/5/6 36/10/5 15/5/5
f 22/7/1 37/8/1 21/7/1
f 21/7/1 37/8/1 24/5/1
f 22/7/1 38/8/1 37/8/1
f 39/6/1 24/5/1 37/8/1
f 38/8/1 22/7/1 40/6/1
f 39/6/1 27/5/1 24/5/1
f 40/6/1 27/5/1 39/6/1
f 27/5/1 40/6/1 22/7/1
f 43/11/1 42/8/1 41/11/1
f 41/11/1 42/8/1 44/12/1
f 43/11/1 45/8/1 42/8/1
f 46/13/1 44/12/1 42/8/1
f 45/8/1 43/11/1 47/13/1
f 46/13/1 48/12/1 44/12/1
f 47/13/1 48/12/1 46/13/1
f 48/12/1 47/13/1 43/11/1
f 51/12/2 50/13/2 49/12/2
f 49/12/2 50/13/2 52/11/2
f 51/12/2 53/13/2 50/13/2
f 54/8/2 52/11/2 50/13/2
f 53/13/2 51/12/2 55/8/2
f 54/8/2 56/11/2 52/11/2
f 55/8/2 56/11/2 54/8/2
f 56/11/2 55/8/2 51/12/2
f 38/14/11 17/15/11 19/14/11
f 17/15/11 38/14/11 40/15/11
f 14/15/12 37/14/12 18/14/12
f 37/14/12 14/15/12 39/15/12
f 37/14/13 19/14/13 18/14/13
f 19/14/13 37/14/13 38/14/13
f 17/15/14 39/15/14 14/15/14
f 39/15/14 17/15/14 40/15/14
f 59/18/1 58/17/1 57/16/1
f 58/17/1 59/18/1 60/19/1
f 60/19/1 59/18/1 61/20/1
f 60/19/1 61/20/1 62/21/1
f 62/21/1 61/20/1 63/18/1
f 62/21/1 63/18/1 64/19/1
f 64/19/1 63/18/1 65/16/1
f 64/19/1 65/16/1 66/17/1
f 68/16/16 63/18/15 67/18/15
f 63/18/15 68/16/16 65/16/16
f 71/19/2 70/16/2 69/17/2
f 70/16/2 71/19/2 72/18/2
f 72/18/2 71/19/2 73/21/2
f 72/18/2 73/21/2 74/20/2
f 74/20/2 73/21/2 75/19/2
f 74/20/2 75/19/2 67/18/2
f 67/18/2 75/19/2 76/17/2
f 67/18/2 76/17/2 68/16/2
f 60/19/17 73/21/14 71/19/17
f 73/21/14 60/19/17 62/21/14
f 63/18/15 74/20/13 67/18/15
f 74/20/13 63/18/15 61/20/13
f 62/21/14 75/19/18 73/21/14
f 75/19/18 62/21/14 64/19/18
f 60/19/17 69/17/19 58/17/19
f 69/17/19 60/19/17 71/19/17
f 75/19/18 66/17/20 76/17/20
f 66/17/20 75/19/18 64/19/18
f 61/20/13 72/18/21 74/20/13
f 72/18/21 61/20/13 59/18/21
f 58/17/19 70/16/22 57/16/22
f 70/16/22 58/17/19 69/17/19
f 76/17/20 65/16/16 68/16/16
f 65/16/16 76/17/20 66/17/20
f 57/16/22 72/18/21 59/18/21
f 72/18/21 57/16/22 70/16/22
f 79/23/23 78/22/24 77/22/23
f 78/22/24 79/23/23 80/23/24
f 83/23/14 82/23/14 81/23/14
f 84/23/14 82/23/14 83/23/14
f 84/23/14 79/23/14 82/23/14
f 85/23/14 79/23/14 84/23/14
f 79/23/14 85/23/14 80/23/14
f 86/23/14 80/23/14 85/23/14
f 86/23/14 85/23/14 87/23/14
f 80/23/14 86/23/14 88/23/14
f 90/22/1 82/23/25 89/22/25
f 82/23/25 90/22/1 81/23/1
f 86/23/2 91/22/26 88/23/26
f 91/22/26 86/23/2 92/22/2
f 80/23/24 91/22/26 78/22/24
f 91/22/26 80/23/24 88/23/26
f 89/22/25 79/23/23 77/22/23
f 79/23/23 89/22/25 82/23/25
f 86/23/12 93/22/12 92/22/12
f 93/22/12 86/23/12 87/23/12
f 94/22/12 81/23/12 90/22/12
f 81/23/12 94/22/12 83/23/12
f 93/22/13 95/22/13 92/22/13
f 78/22/13 92/22/13 95/22/13
f 92/22/13 78/22/13 91/22/13
f 78/22/13 95/22/13 96/22/13
f 78/22/13 96/22/13 77/22/13
f 77/22/13 96/22/13 89/22/13
f 89/22/13 96/22/13 94/22/13
f 89/22/13 94/22/13 90/22/13
f 99/23/23 98/22/24 97/22/23
f 98/22/24 99/23/23 100/23/24
f 103/23/14 102/23/14 101/23/14
f 104/23/14 102/23/14 103/23/14
f 104/23/14 99/23/14 102/23/14
f 105/23/14 99/23/14 104/23/14
f 99/23/14 105/23/14 100/23/14
f 106/23/14 100/23/14 105/23/14
f 106/23/14 105/23/14 107/23/14
f 100/23/14 106/23/14 108/23/14
f 110/22/1 102/23/25 109/22/25
f 102/23/25 110/22/1 101/23/1
f 106/23/2 111/22/26 108/23/26
f 111/22/26 106/23/2 112/22/2
f 100/23/24 111/22/26 98/22/24
f 111/22/26 100/23/24 108/23/26
f 109/22/25 99/23/23 97/22/23
f 99/23/23 109/22/25 102/23/25
f 106/23/12 113/22/12 112/22/12
f 113/22/12 106/23/12 107/23/12
f 114/22/12 101/23/12 110/22/12
f 101/23/12 114/22/12 103/23/12
f 113/22/13 115/22/13 112/22/13
f 98/22/13 112/22/13 115/22/13
f 112/22/13 98/22/13 111/22/13
f 98/22/13 115/22/13 116/22/13
f 98/22/13 116/22/13 97/22/13
f 97/22/13 116/22/13 109/22/13
f 109/22/13 116/22/13 114/22/13
f 109/22/13 114/22/13 110/22/13

g handle

v -0.125 0.875 0.75 1 1 1
v -0.125 0.925 0.75 1 1 1
v -0.1 0.875 0.775 1 1 1
v -0.1 0.925 0.775 1 1 1
v -0.125 0.875 0.625 1 1 1
v -0.1 0.875 0.625 1 1 1
v -0.125 0.925 0.625 1 1 1
v -0.1 0.925 0.625 1 1 1
v -0.1 0.925 0.725 1 1 1
v -0.1 0.875 0.725 1 1 1
v 0.125 0.925 0.75 1 1 1
v 0.125 0.875 0.75 1 1 1
v 0.1 0.925 0.775 1 1 1
v 0.1 0.875 0.775 1 1 1
v 0.1 0.875 0.725 1 1 1
v 0.1 0.875 0.625 1 1 1
v 0.125 0.875 0.625 1 1 1
v 0.125 0.925 0.625 1 1 1
v 0.1 0.925 0.625 1 1 1
v 0.1 0.925 0.725 1 1 1

vn -0.9238795 0 0.3826834
vn -0.3826834 0 0.9238795
vn 0.9238795 0 0.3826834
vn 0.3826834 0 0.9238795


usemtl colormap

f 119/20/28 118/21/27 117/20/27
f 118/21/27 119/20/28 120/21/28
f 123/21/11 122/20/11 121/20/11
f 122/20/11 123/21/11 124/21/11
f 117/20/27 123/21/1 121/20/1
f 123/21/1 117/20/27 118/21/27
f 125/21/2 122/20/2 124/21/2
f 122/20/2 125/21/2 126/20/2
f 129/21/30 128/20/29 127/21/29
f 128/20/29 129/21/30 130/20/30
f 122/20/13 117/20/13 121/20/13
f 126/20/13 117/20/13 122/20/13
f 126/20/13 119/20/13 117/20/13
f 131/20/13 119/20/13 126/20/13
f 119/20/13 131/20/13 130/20/13
f 132/20/13 130/20/13 131/20/13
f 133/20/13 130/20/13 132/20/13
f 130/20/13 133/20/13 128/20/13
f 127/21/29 133/20/2 134/21/2
f 133/20/2 127/21/29 128/20/29
f 131/20/1 135/21/1 132/20/1
f 135/21/1 131/20/1 136/21/1
f 129/21/30 119/20/28 130/20/30
f 119/20/28 129/21/30 120/21/28
f 125/21/11 131/20/11 126/20/11
f 131/20/11 125/21/11 136/21/11
f 123/21/14 125/21/14 124/21/14
f 125/21/14 123/21/14 120/21/14
f 120/21/14 123/21/14 118/21/14
f 129/21/14 125/21/14 120/21/14
f 129/21/14 136/21/14 125/21/14
f 129/21/14 135/21/14 136/21/14
f 127/21/14 135/21/14 129/21/14
f 135/21/14 127/21/14 134/21/14
f 132/20/11 134/21/11 133/20/11
f 134/21/11 132/20/11 135/21/11

