# Created by Kenney (www.kenney.nl)

mtllib door-rotate-square-d.mtl

g door

v -0.05 0.225 0.225 1 1 1
v -0.05 0.725 0.225 1 1 1
v -0.05 0.225 0.675 1 1 1
v -0.05 0.725 0.675 1 1 1
v -0.025 0.2 0.7 1 1 1
v -0.025 0.75 0.7 1 1 1
v -0.025 0.2 0.2 1 1 1
v -0.025 0.75 0.2 1 1 1
v -0.025 0.1 0.1 1 1 1
v -0.025 0.1 0.8 1 1 1
v -0.05 0.075 0.075 1 1 1
v -0.05 0.075 0.825 1 1 1
v -0.05 2.025 0.075 1 1 1
v -0.025 2 0.1 1 1 1
v -0.05 2.025 0.825 1 1 1
v -0.025 2 0.8 1 1 1
v 0.025 0.2 0.7 1 1 1
v 0.025 0.75 0.7 1 1 1
v 0.05 0.225 0.675 1 1 1
v 0.05 0.725 0.675 1 1 1
v 0.05 0.075 0.075 1 1 1
v 0.05 0.075 0.825 1 1 1
v 0.025 0.1 0.1 1 1 1
v 0.025 0.1 0.8 1 1 1
v 0.05 0.725 0.225 1 1 1
v 0.05 0.225 0.225 1 1 1
v 0.025 0.75 0.2 1 1 1
v 0.025 0.2 0.2 1 1 1
v 0.025 2 0.8 1 1 1
v 0.05 2.025 0.825 1 1 1
v 0.05 2.025 0.075 1 1 1
v 0.025 2 0.1 1 1 1
v 0.025 1.9 0.2 1 1 1
v 0.025 0.85 0.2 1 1 1
v 0.025 1.9 0.7 1 1 1
v 0.025 0.85 0.7 1 1 1
v -0.025 1.9 0.2 1 1 1
v -0.025 0.85 0.2 1 1 1
v -0.025 0.85 0.7 1 1 1
v -0.025 1.9 0.7 1 1 1
v 0.05 2.1 0.9 1 1 1
v 0.05 2.1 0 1 1 1
v 0.05 -6.203926E-17 0.9 1 1 1
v 0.05 -6.203926E-17 0 1 1 1
v -0.05 6.203926E-17 0.9 1 1 1
v -0.05 6.203926E-17 0 1 1 1
v -0.05 2.1 0.9 1 1 1
v -0.05 2.1 0 1 1 1
v -0.075 0.8 0.7 1 1 1
v -0.075 0.95 0.7 1 1 1
v -0.075 0.7646447 0.7146447 1 1 1
v -0.075 0.9853553 0.7146447 1 1 1
v -0.075 0.75 0.75 1 1 1
v -0.075 1 0.75 1 1 1
v -0.075 0.7646447 0.7853553 1 1 1
v -0.075 0.9853553 0.7853553 1 1 1
v -0.075 0.8 0.8 1 1 1
v -0.075 0.95 0.8 1 1 1
v 0.075 0.7646447 0.7853553 1 1 1
v 0.075 0.8 0.8 1 1 1
v 0.075 0.95 0.7 1 1 1
v 0.075 0.8 0.7 1 1 1
v 0.075 0.9853553 0.7146447 1 1 1
v 0.075 0.7646447 0.7146447 1 1 1
v 0.075 1 0.75 1 1 1
v 0.075 0.75 0.75 1 1 1
v 0.075 0.9853553 0.7853553 1 1 1
v 0.075 0.95 0.8 1 1 1
v -0.05 1.8 -0.02499995 1 1 1
v 0.05 1.8 -0.02499995 1 1 1
v -0.05 1.9 -0.02499995 1 1 1
v 0.05 1.9 -0.02499995 1 1 1
v -0.075 1.9 0.05000005 1 1 1
v -0.075 1.9 4.749745E-08 1 1 1
v -0.05 1.9 0.05000005 1 1 1
v -0.05 1.9 4.749745E-08 1 1 1
v 0.05 1.9 4.749745E-08 1 1 1
v 0.075 1.9 0.05000005 1 1 1
v 0.05 1.9 0.05000005 1 1 1
v 0.075 1.9 4.749745E-08 1 1 1
v -0.075 1.8 4.749745E-08 1 1 1
v -0.075 1.8 0.05000005 1 1 1
v 0.075 1.8 4.749745E-08 1 1 1
v 0.075 1.8 0.05000005 1 1 1
v 0.05 1.8 0.05000005 1 1 1
v -0.05 1.8 0.05000005 1 1 1
v 0.05 1.8 4.749745E-08 1 1 1
v -0.05 1.8 4.749745E-08 1 1 1
v -0.05 0.2 -0.02499995 1 1 1
v 0.05 0.2 -0.02499995 1 1 1
v -0.05 0.3 -0.02499995 1 1 1
v 0.05 0.3 -0.02499995 1 1 1
v -0.075 0.3 0.05000005 1 1 1
v -0.075 0.3 4.749745E-08 1 1 1
v -0.05 0.3 0.05000005 1 1 1
v -0.05 0.3 4.749745E-08 1 1 1
v 0.05 0.3 4.749745E-08 1 1 1
v 0.075 0.3 0.05000005 1 1 1
v 0.05 0.3 0.05000005 1 1 1
v 0.075 0.3 4.749745E-08 1 1 1
v -0.075 0.2 4.749745E-08 1 1 1
v -0.075 0.2 0.05000005 1 1 1
v 0.075 0.2 4.749745E-08 1 1 1
v 0.075 0.2 0.05000005 1 1 1
v 0.05 0.2 0.05000005 1 1 1
v -0.05 0.2 0.05000005 1 1 1
v 0.05 0.2 4.749745E-08 1 1 1
v -0.05 0.2 4.749745E-08 1 1 1
v -0.05 0.975 0.575 1 1 1
v 0.05 0.975 0.575 1 1 1
v -0.05 1.775 0.575 1 1 1
v 0.05 1.775 0.575 1 1 1
v 0.05 1.775 0.325 1 1 1
v -0.05 1.775 0.325 1 1 1
v 0.05 0.975 0.325 1 1 1
v -0.05 0.975 0.325 1 1 1
v 0.05 0.875 0.225 1 1 1
v 0.05 1.875 0.225 1 1 1
v 0.05 1.875 0.675 1 1 1
v 0.05 0.875 0.675 1 1 1
v -0.05 0.875 0.675 1 1 1
v -0.05 1.875 0.675 1 1 1
v -0.05 0.875 0.225 1 1 1
v -0.05 1.875 0.225 1 1 1

vn -1 0 0
vn -0.8164966 -0.4082483 0.4082483
vn -0.8164966 0.4082483 0.4082483
vn -0.8164966 -0.4082483 -0.4082483
vn -0.8164966 0.4082483 -0.4082483
vn 0.8164966 -0.4082483 0.4082483
vn 0.8164966 0.4082483 0.4082483
vn 0.8164966 0.4082483 -0.4082483
vn 1 0 0
vn 0.8164966 -0.4082483 -0.4082483
vn 0 -0.7071068 0.7071068
vn 0 -0.1950903 0.9807853
vn 0 0.7071068 -0.7071068
vn 0 1 0
vn 0 -1 0
vn 0 0.7071068 0.7071068
vn 0 0.1950903 -0.9807853
vn 0 0.1950903 0.9807853
vn 0 -0.7071068 -0.7071068
vn 0 -0.1950903 -0.9807853
vn 0 0 -1
vn 0 0 1
vn -0.3826834 0 -0.9238795
vn 0.3826834 0 -0.9238795
vn -0.9238795 0 -0.3826834
vn 0.9238795 0 -0.3826834

vt 0.59375 0.04642857
vt 0.59375 0.09404761
vt 0.59375 0.04404762
vt 0.59375 0.09642857
vt 0.59375 0.03452381
vt 0.59375 0.03214286
vt 0.59375 0.2178572
vt 0.59375 0.2154762
vt 0.59375 0.2059524
vt 0.59375 0.1059524
vt 0.59375 0.225
vt 0.59375 0.025
vt 0.59375 0.065
vt 0.59375 0.185
vt 0.59375 0.03671573
vt 0.59375 0.2132843
vt 0.46875 0.025
vt 0.46875 0.225
vt 0.46875 0.075
vt 0.46875 0.175
vt 0.71875 0.1178571
vt 0.71875 0.1940476
vt 0.71875 0.1083333
vt 0.71875 0.2035714
vt 0.71875 0.1059524
vt 0.71875 0.2059524

usemtl colormap

f 3/1/1 2/2/1 1/1/1
f 2/2/1 3/1/1 4/2/1
f 6/4/3 3/1/2 5/3/2
f 3/1/2 6/4/3 4/2/3
f 3/1/2 7/3/4 5/3/2
f 7/3/4 3/1/2 1/1/4
f 2/2/5 6/4/3 8/4/5
f 6/4/3 2/2/5 4/2/3
f 1/1/4 8/4/5 7/3/4
f 8/4/5 1/1/4 2/2/5
f 11/6/3 10/5/5 9/5/3
f 10/5/5 11/6/3 12/6/5
f 9/5/3 13/7/2 11/6/3
f 13/7/2 9/5/3 14/8/2
f 14/8/2 15/7/4 13/7/2
f 15/7/4 14/8/2 16/8/4
f 12/6/5 16/8/4 10/5/5
f 16/8/4 12/6/5 15/7/4
f 19/1/6 18/4/7 17/3/6
f 18/4/7 19/1/6 20/2/7
f 23/5/7 22/6/8 21/6/7
f 22/6/8 23/5/7 24/5/8
f 20/2/9 26/1/9 25/2/9
f 26/1/9 20/2/9 19/1/9
f 27/4/8 20/2/7 25/2/8
f 20/2/7 27/4/8 18/4/7
f 17/3/6 26/1/10 19/1/6
f 26/1/10 17/3/6 28/3/10
f 30/7/10 24/5/8 29/8/10
f 24/5/8 30/7/10 22/6/8
f 25/2/8 28/3/10 27/4/8
f 28/3/10 25/2/8 26/1/10
f 30/7/10 32/8/6 31/7/6
f 32/8/6 30/7/10 29/8/10
f 32/8/6 21/6/7 31/7/6
f 21/6/7 32/8/6 23/5/7
f 32/8/9 33/9/9 23/5/9
f 33/9/9 32/8/9 29/8/9
f 28/3/9 23/5/9 33/9/9
f 23/5/9 28/3/9 24/5/9
f 28/3/9 33/9/9 34/10/9
f 33/9/9 29/8/9 35/9/9
f 28/3/9 34/10/9 27/4/9
f 36/10/9 27/4/9 34/10/9
f 27/4/9 36/10/9 18/4/9
f 18/4/9 36/10/9 35/9/9
f 24/5/9 28/3/9 17/3/9
f 24/5/9 17/3/9 29/8/9
f 35/9/9 29/8/9 17/3/9
f 18/4/9 35/9/9 17/3/9
f 9/5/1 7/3/1 14/8/1
f 7/3/1 9/5/1 10/5/1
f 37/9/1 14/8/1 7/3/1
f 14/8/1 37/9/1 16/8/1
f 37/9/1 7/3/1 8/4/1
f 7/3/1 10/5/1 5/3/1
f 37/9/1 8/4/1 38/10/1
f 6/4/1 38/10/1 8/4/1
f 38/10/1 6/4/1 39/10/1
f 39/10/1 6/4/1 5/3/1
f 16/8/1 37/9/1 40/9/1
f 16/8/1 40/9/1 10/5/1
f 5/3/1 10/5/1 40/9/1
f 39/10/1 5/3/1 40/9/1
f 31/7/9 41/11/9 30/7/9
f 30/7/9 41/11/9 22/6/9
f 31/7/9 42/11/9 41/11/9
f 43/12/9 22/6/9 41/11/9
f 42/11/9 31/7/9 44/12/9
f 43/12/9 21/6/9 22/6/9
f 44/12/9 21/6/9 43/12/9
f 21/6/9 44/12/9 31/7/9
f 11/6/1 45/12/1 12/6/1
f 12/6/1 45/12/1 15/7/1
f 11/6/1 46/12/1 45/12/1
f 47/11/1 15/7/1 45/12/1
f 46/12/1 11/6/1 48/11/1
f 47/11/1 13/7/1 15/7/1
f 48/11/1 13/7/1 47/11/1
f 13/7/1 48/11/1 11/6/1
f 51/15/1 50/14/1 49/13/1
f 50/14/1 51/15/1 52/16/1
f 52/16/1 51/15/1 53/12/1
f 52/16/1 53/12/1 54/11/1
f 54/11/1 53/12/1 55/15/1
f 54/11/1 55/15/1 56/16/1
f 56/16/1 55/15/1 57/13/1
f 56/16/1 57/13/1 58/14/1
f 60/13/12 55/15/11 59/15/11
f 55/15/11 60/13/12 57/13/12
f 63/16/9 62/13/9 61/14/9
f 62/13/9 63/16/9 64/15/9
f 64/15/9 63/16/9 65/11/9
f 64/15/9 65/11/9 66/12/9
f 66/12/9 65/11/9 67/16/9
f 66/12/9 67/16/9 59/15/9
f 59/15/9 67/16/9 68/14/9
f 59/15/9 68/14/9 60/13/9
f 52/16/13 65/11/14 63/16/13
f 65/11/14 52/16/13 54/11/14
f 55/15/11 66/12/15 59/15/11
f 66/12/15 55/15/11 53/12/15
f 54/11/14 67/16/16 65/11/14
f 67/16/16 54/11/14 56/16/16
f 52/16/13 61/14/17 50/14/17
f 61/14/17 52/16/13 63/16/13
f 67/16/16 58/14/18 68/14/18
f 58/14/18 67/16/16 56/16/16
f 53/12/15 64/15/19 66/12/15
f 64/15/19 53/12/15 51/15/19
f 50/14/17 62/13/20 49/13/20
f 62/13/20 50/14/17 61/14/17
f 68/14/18 57/13/12 60/13/12
f 57/13/12 68/14/18 58/14/18
f 49/13/20 64/15/19 51/15/19
f 64/15/19 49/13/20 62/13/20
f 46/17/21 42/18/21 44/17/21
f 42/18/21 46/17/21 48/18/21
f 41/18/22 45/17/22 43/17/22
f 45/17/22 41/18/22 47/18/22
f 45/17/15 44/17/15 43/17/15
f 44/17/15 45/17/15 46/17/15
f 42/18/14 47/18/14 41/18/14
f 47/18/14 42/18/14 48/18/14
f 71/20/23 70/19/24 69/19/23
f 70/19/24 71/20/23 72/20/24
f 75/20/14 74/20/14 73/20/14
f 76/20/14 74/20/14 75/20/14
f 76/20/14 71/20/14 74/20/14
f 77/20/14 71/20/14 76/20/14
f 71/20/14 77/20/14 72/20/14
f 78/20/14 72/20/14 77/20/14
f 78/20/14 77/20/14 79/20/14
f 72/20/14 78/20/14 80/20/14
f 82/19/1 74/20/25 81/19/25
f 74/20/25 82/19/1 73/20/1
f 78/20/9 83/19/26 80/20/26
f 83/19/26 78/20/9 84/19/9
f 72/20/24 83/19/26 70/19/24
f 83/19/26 72/20/24 80/20/26
f 81/19/25 71/20/23 69/19/23
f 71/20/23 81/19/25 74/20/25
f 78/20/22 85/19/22 84/19/22
f 85/19/22 78/20/22 79/20/22
f 86/19/22 73/20/22 82/19/22
f 73/20/22 86/19/22 75/20/22
f 85/19/15 87/19/15 84/19/15
f 70/19/15 84/19/15 87/19/15
f 84/19/15 70/19/15 83/19/15
f 70/19/15 87/19/15 88/19/15
f 70/19/15 88/19/15 69/19/15
f 69/19/15 88/19/15 81/19/15
f 81/19/15 88/19/15 86/19/15
f 81/19/15 86/19/15 82/19/15
f 91/20/23 90/19/24 89/19/23
f 90/19/24 91/20/23 92/20/24
f 95/20/14 94/20/14 93/20/14
f 96/20/14 94/20/14 95/20/14
f 96/20/14 91/20/14 94/20/14
f 97/20/14 91/20/14 96/20/14
f 91/20/14 97/20/14 92/20/14
f 98/20/14 92/20/14 97/20/14
f 98/20/14 97/20/14 99/20/14
f 92/20/14 98/20/14 100/20/14
f 102/19/1 94/20/25 101/19/25
f 94/20/25 102/19/1 93/20/1
f 98/20/9 103/19/26 100/20/26
f 103/19/26 98/20/9 104/19/9
f 92/20/24 103/19/26 90/19/24
f 103/19/26 92/20/24 100/20/26
f 101/19/25 91/20/23 89/19/23
f 91/20/23 101/19/25 94/20/25
f 98/20/22 105/19/22 104/19/22
f 105/19/22 98/20/22 99/20/22
f 106/19/22 93/20/22 102/19/22
f 93/20/22 106/19/22 95/20/22
f 105/19/15 107/19/15 104/19/15
f 90/19/15 104/19/15 107/19/15
f 104/19/15 90/19/15 103/19/15
f 90/19/15 107/19/15 108/19/15
f 90/19/15 108/19/15 89/19/15
f 89/19/15 108/19/15 101/19/15
f 101/19/15 108/19/15 106/19/15
f 101/19/15 106/19/15 102/19/15
f 111/22/21 110/21/21 109/21/21
f 110/21/21 111/22/21 112/22/21
f 111/22/15 113/22/15 112/22/15
f 113/22/15 111/22/15 114/22/15
f 113/22/22 116/21/22 115/21/22
f 116/21/22 113/22/22 114/22/22
f 116/21/14 110/21/14 115/21/14
f 110/21/14 116/21/14 109/21/14
f 118/24/9 113/22/9 117/23/9
f 113/22/9 118/24/9 119/24/9
f 115/21/9 117/23/9 113/22/9
f 113/22/9 119/24/9 112/22/9
f 117/23/9 115/21/9 120/23/9
f 112/22/9 119/24/9 120/23/9
f 120/23/9 115/21/9 110/21/9
f 120/23/9 110/21/9 112/22/9
f 39/25/2 122/24/3 121/23/2
f 123/23/4 39/25/2 121/23/2
f 122/24/3 39/25/2 40/26/3
f 39/25/2 123/23/4 38/25/4
f 40/26/3 124/24/5 122/24/3
f 123/23/4 37/26/5 38/25/4
f 37/26/5 123/23/4 124/24/5
f 124/24/5 40/26/3 37/26/5
f 35/26/7 118/24/8 33/26/8
f 118/24/8 34/25/10 33/26/8
f 118/24/8 35/26/7 119/24/7
f 34/25/10 118/24/8 117/23/10
f 35/26/7 120/23/6 119/24/7
f 117/23/10 36/25/6 34/25/10
f 120/23/6 35/26/7 36/25/6
f 36/25/6 117/23/10 120/23/6
f 116/21/1 121/23/1 109/21/1
f 109/21/1 121/23/1 111/22/1
f 116/21/1 123/23/1 121/23/1
f 122/24/1 111/22/1 121/23/1
f 123/23/1 116/21/1 124/24/1
f 122/24/1 114/22/1 111/22/1
f 124/24/1 114/22/1 122/24/1
f 114/22/1 124/24/1 116/21/1

g (%ignore)

v -7.219114E-16 0.975 0.325 1 1 1
v -7.219114E-16 1.775 0.325 1 1 1
v -7.219114E-16 0.975 0.575 1 1 1
v 7.219114E-16 1.775 0.575 1 1 1


vt -4.92126 -1.799197E-29
vt -4.92126 31.49606
vt 4.92126 -5.397591E-29
vt 4.92126 31.49606

usemtl glass

f 127/29/1 126/28/1 125/27/1
f 126/28/1 127/29/1 128/30/1
f 125/27/9 126/28/9 127/29/9
f 128/30/9 127/29/9 126/28/9

g handle

v -0.125 0.875 0.625 1 1 1
v -0.1 0.875 0.625 1 1 1
v -0.125 0.925 0.625 1 1 1
v -0.1 0.925 0.625 1 1 1
v -0.125 0.875 0.75 1 1 1
v -0.125 0.925 0.75 1 1 1
v -0.1 0.875 0.775 1 1 1
v -0.1 0.925 0.775 1 1 1
v 0.1 0.925 0.775 1 1 1
v 0.1 0.875 0.775 1 1 1
v 0.125 0.875 0.75 1 1 1
v 0.125 0.925 0.75 1 1 1
v 0.125 0.875 0.625 1 1 1
v 0.125 0.925 0.625 1 1 1
v -0.1 0.925 0.725 1 1 1
v -0.1 0.875 0.725 1 1 1
v 0.1 0.875 0.725 1 1 1
v 0.1 0.875 0.625 1 1 1
v 0.1 0.925 0.625 1 1 1
v 0.1 0.925 0.725 1 1 1

vn -0.9238795 0 0.3826834
vn -0.3826834 0 0.9238795
vn 0.3826834 0 0.9238795
vn 0.9238795 0 0.3826834

vt 0.71875 0.025
vt 0.71875 0.225

usemtl colormap

f 131/32/21 130/31/21 129/31/21
f 130/31/21 131/32/21 132/32/21
f 133/31/27 131/32/1 129/31/1
f 131/32/1 133/31/27 134/32/27
f 135/31/28 134/32/27 133/31/27
f 134/32/27 135/31/28 136/32/28
f 135/31/28 137/32/29 136/32/28
f 137/32/29 135/31/28 138/31/29
f 139/31/30 137/32/29 138/31/29
f 137/32/29 139/31/30 140/32/30
f 141/31/9 140/32/30 139/31/30
f 140/32/30 141/31/9 142/32/9
f 143/32/9 130/31/9 132/32/9
f 130/31/9 143/32/9 144/31/9
f 130/31/15 133/31/15 129/31/15
f 144/31/15 133/31/15 130/31/15
f 144/31/15 135/31/15 133/31/15
f 145/31/15 135/31/15 144/31/15
f 135/31/15 145/31/15 138/31/15
f 146/31/15 138/31/15 145/31/15
f 141/31/15 138/31/15 146/31/15
f 138/31/15 141/31/15 139/31/15
f 145/31/1 147/32/1 146/31/1
f 147/32/1 145/31/1 148/32/1
f 143/32/21 145/31/21 144/31/21
f 145/31/21 143/32/21 148/32/21
f 131/32/14 143/32/14 132/32/14
f 143/32/14 131/32/14 136/32/14
f 136/32/14 131/32/14 134/32/14
f 137/32/14 143/32/14 136/32/14
f 137/32/14 148/32/14 143/32/14
f 137/32/14 147/32/14 148/32/14
f 140/32/14 147/32/14 137/32/14
f 147/32/14 140/32/14 142/32/14
f 146/31/21 142/32/21 141/31/21
f 142/32/21 146/31/21 147/32/21

