# Created by Kenney (www.kenney.nl)

mtllib floor-corner-round.mtl

g floor-corner-round

v -1 0 -1 1 1 1
v -1 0.1 -1 1 1 1
v -1 0 1 1 1 1
v -1 0.1 1 1 1 1
v 1 0.1 -1 1 1 1
v 1 0 -1 1 1 1
v 0.9828897 0.1 -0.7389476 1 1 1
v 0.9828897 0 -0.7389476 1 1 1
v -0.4823619 0 0.9318516 1 1 1
v -0.7389476 0 0.9828897 1 1 1
v -0.4823619 0.1 0.9318516 1 1 1
v -0.7389476 0.1 0.9828897 1 1 1
v 0.9318516 0.1 -0.4823619 1 1 1
v 0.9318516 0 -0.4823619 1 1 1
v 0.4142136 0 0.4142136 1 1 1
v 0.2175229 0 0.5867067 1 1 1
v 0.4142136 0.1 0.4142136 1 1 1
v 0.2175229 0.1 0.5867067 1 1 1
v 0.5867067 0.1 0.2175229 1 1 1
v 0.5867067 0 0.2175229 1 1 1
v -0.2346331 0 0.8477591 1 1 1
v -0.2346331 0.1 0.8477591 1 1 1
v 0.7320508 0.1 0 1 1 1
v 0.7320508 0 0 1 1 1
v 0 0 0.7320508 1 1 1
v 0 0.1 0.7320508 1 1 1
v 0.8477591 0.1 -0.2346331 1 1 1
v 0.8477591 0 -0.2346331 1 1 1

vn -1 0 0
vn 0.9978589 0 0.06540313
vn 0.9914449 0 0.1305262
vn 0.258819 0 0.9659258
vn 0.1305262 0 0.9914449
vn 0 0 -1
vn 0.9659258 0 0.258819
vn 0.7071068 0 0.7071068
vn 0.6087614 0 0.7933533
vn 0.7933533 0 0.6087614
vn 0.3826834 0 0.9238795
vn 0.06540313 0 0.9978589
vn 0.8660254 0 0.5
vn 0.5 0 0.8660254
vn 0.9238795 0 0.3826834
vn 0 -1 0
vn 0 1 0

vt 0.59375 0.075
vt 0.59375 0.175
vt 0.71875 0.175

usemtl colormap

f 3/1/1 2/2/1 1/1/1
f 2/2/1 3/1/1 4/2/1
f 7/2/3 6/1/2 5/2/2
f 6/1/2 7/2/3 8/1/3
f 11/2/4 10/1/5 9/1/4
f 10/1/5 11/2/4 12/2/5
f 2/2/6 6/1/6 1/1/6
f 6/1/6 2/2/6 5/2/6
f 13/2/7 8/1/3 7/2/3
f 8/1/3 13/2/7 14/1/7
f 17/2/8 16/1/9 15/1/8
f 16/1/9 17/2/8 18/2/9
f 17/2/8 20/1/10 19/2/10
f 20/1/10 17/2/8 15/1/8
f 22/2/11 9/1/4 21/1/11
f 9/1/4 22/2/11 11/2/4
f 12/2/5 3/1/12 10/1/5
f 3/1/12 12/2/5 4/2/12
f 19/2/10 24/1/13 23/2/13
f 24/1/13 19/2/10 20/1/10
f 26/2/14 21/1/11 25/1/14
f 21/1/11 26/2/14 22/2/11
f 18/2/9 25/1/14 16/1/9
f 25/1/14 18/2/9 26/2/14
f 27/2/15 14/1/7 13/2/7
f 14/1/7 27/2/15 28/1/15
f 8/1/16 1/1/16 6/1/16
f 1/1/16 8/1/16 14/1/16
f 1/1/16 14/1/16 28/1/16
f 1/1/16 28/1/16 24/1/16
f 1/1/16 24/1/16 20/1/16
f 1/1/16 20/1/16 15/1/16
f 1/1/16 15/1/16 16/1/16
f 1/1/16 16/1/16 25/1/16
f 1/1/16 25/1/16 21/1/16
f 1/1/16 21/1/16 9/1/16
f 1/1/16 9/1/16 10/1/16
f 1/1/16 10/1/16 3/1/16
f 23/2/13 28/1/15 27/2/15
f 28/1/15 23/2/13 24/1/13
f 2/3/17 7/3/17 5/3/17
f 7/3/17 2/3/17 13/3/17
f 13/3/17 2/3/17 27/3/17
f 27/3/17 2/3/17 23/3/17
f 23/3/17 2/3/17 19/3/17
f 19/3/17 2/3/17 17/3/17
f 17/3/17 2/3/17 18/3/17
f 18/3/17 2/3/17 26/3/17
f 26/3/17 2/3/17 22/3/17
f 22/3/17 2/3/17 11/3/17
f 11/3/17 2/3/17 12/3/17
f 12/3/17 2/3/17 4/3/17

g floor-corner-round




usemtl colormap

f 3/1/1 2/2/1 1/1/1
f 2/2/1 3/1/1 4/2/1
f 7/2/3 6/1/2 5/2/2
f 6/1/2 7/2/3 8/1/3
f 11/2/4 10/1/5 9/1/4
f 10/1/5 11/2/4 12/2/5
f 2/2/6 6/1/6 1/1/6
f 6/1/6 2/2/6 5/2/6
f 13/2/7 8/1/3 7/2/3
f 8/1/3 13/2/7 14/1/7
f 17/2/8 16/1/9 15/1/8
f 16/1/9 17/2/8 18/2/9
f 17/2/8 20/1/10 19/2/10
f 20/1/10 17/2/8 15/1/8
f 22/2/11 9/1/4 21/1/11
f 9/1/4 22/2/11 11/2/4
f 12/2/5 3/1/12 10/1/5
f 3/1/12 12/2/5 4/2/12
f 19/2/10 24/1/13 23/2/13
f 24/1/13 19/2/10 20/1/10
f 26/2/14 21/1/11 25/1/14
f 21/1/11 26/2/14 22/2/11
f 18/2/9 25/1/14 16/1/9
f 25/1/14 18/2/9 26/2/14
f 27/2/15 14/1/7 13/2/7
f 14/1/7 27/2/15 28/1/15
f 8/1/16 1/1/16 6/1/16
f 1/1/16 8/1/16 14/1/16
f 1/1/16 14/1/16 28/1/16
f 1/1/16 28/1/16 24/1/16
f 1/1/16 24/1/16 20/1/16
f 1/1/16 20/1/16 15/1/16
f 1/1/16 15/1/16 16/1/16
f 1/1/16 16/1/16 25/1/16
f 1/1/16 25/1/16 21/1/16
f 1/1/16 21/1/16 9/1/16
f 1/1/16 9/1/16 10/1/16
f 1/1/16 10/1/16 3/1/16
f 23/2/13 28/1/15 27/2/15
f 28/1/15 23/2/13 24/1/13
f 2/3/17 7/3/17 5/3/17
f 7/3/17 2/3/17 13/3/17
f 13/3/17 2/3/17 27/3/17
f 27/3/17 2/3/17 23/3/17
f 23/3/17 2/3/17 19/3/17
f 19/3/17 2/3/17 17/3/17
f 17/3/17 2/3/17 18/3/17
f 18/3/17 2/3/17 26/3/17
f 26/3/17 2/3/17 22/3/17
f 22/3/17 2/3/17 11/3/17
f 11/3/17 2/3/17 12/3/17
f 12/3/17 2/3/17 4/3/17

