# Created by Kenney (www.kenney.nl)

mtllib gutter-vertical-bottom.mtl

g gutter-vertical-bottom

v -0.07071068 -0.1207107 -0.07928932 1 1 1
v 0 -0.1 -0.09999999 1 1 1
v -0.07071068 -0.1 -0.07071067 1 1 1
v 0.07071068 -0.1292893 -0.09999999 1 1 1
v 0.07071068 -0.1207107 -0.07928932 1 1 1
v -0.07071068 -0.1292893 -0.09999999 1 1 1
v 0.07071068 -0.1 -0.07071067 1 1 1
v 0.07071068 -0.1292893 -0.2 1 1 1
v 0.1 -0.2 -0.2 1 1 1
v 0.1 -0.2 -0.09999999 1 1 1
v 0.1 -0.1707107 -0.02928932 1 1 1
v 0.07071068 -0.2207107 0.02071068 1 1 1
v 0.1 -0.1 3.72529E-09 1 1 1
v 0.07071068 -0.09999999 0.07071068 1 1 1
v -0.1 -0.1707107 -0.02928932 1 1 1
v -0.1 -0.1 3.72529E-09 1 1 1
v -0.07071068 -0.2207107 0.02071068 1 1 1
v -0.07071068 -0.09999999 0.07071068 1 1 1
v -0.07071068 0 -0.07071067 1 1 1
v -0.1 0 0 1 1 1
v 0.07071068 -0.2707107 -0.09999999 1 1 1
v 0.07071068 -0.2707107 -0.2 1 1 1
v 0 -0.3 -0.09999999 1 1 1
v 0 -0.3 -0.2 1 1 1
v 0 -0.1 -0.2 1 1 1
v 0 -0.2414214 0.04142136 1 1 1
v 0 -0.09999999 0.1 1 1 1
v -0.07071068 -0.1292893 -0.2 1 1 1
v -0.1 -0.2 -0.2 1 1 1
v -0.1 -0.2 -0.09999999 1 1 1
v -0.07071068 -0.2707107 -0.09999999 1 1 1
v -0.07071068 -0.2707107 -0.2 1 1 1
v -0.07071068 0 0.07071068 1 1 1
v 0 0 0.1 1 1 1
v 0 0 -0.1 1 1 1
v 0.07071068 0 0.07071068 1 1 1
v 0.07071068 0 -0.07071067 1 1 1
v 0.1 0 0 1 1 1

vn -0.7310967 0.2610949 -0.6303388
vn -0.3574067 0.3574067 -0.8628562
vn 0.7310967 0.6303388 -0.2610949
vn 0.3574067 0.8628562 -0.3574067
vn -0.7310967 0.6303388 -0.2610949
vn -0.3574067 0.8628562 -0.3574067
vn 0.3574067 0.3574067 -0.8628562
vn 0.7310967 0.2610949 -0.6303388
vn 0.7071068 0.7071068 0
vn 1 0 0
vn 0.994723 -0.03926264 0.09478841
vn 0.6332577 -0.2961744 0.7150283
vn -0.994723 -0.03926264 0.09478841
vn -0.6332577 -0.2961744 0.7150283
vn -0.7071068 0 -0.7071068
vn -1 0 0
vn 0.7071068 -0.7071068 0
vn 0 -1 0
vn 0 1 0
vn 0 -0.3826834 0.9238795
vn -0.7071068 0.7071068 0
vn -0.994723 -0.0947884 0.03926264
vn -0.7071068 -0.7071068 0
vn -0.7071068 0 0.7071068
vn 0 0 1
vn 0.6332577 -0.7150283 0.2961744
vn 0 -0.9238795 0.3826834
vn 0 0 -1
vn 0.7071068 0 0.7071068
vn -0.6332577 -0.7150283 0.2961744
vn 0.7071068 0 -0.7071068
vn 0.994723 -0.0947884 0.03926264

vt 0.53125 0.125
vt 0.40625 0.125

usemtl colormap

f 3/1/1 2/1/2 1/1/1
f 2/1/4 5/1/3 4/1/3
f 1/1/5 2/1/6 6/1/5
f 7/1/8 5/1/8 2/1/7
f 4/1/9 9/1/10 8/1/9
f 9/1/10 4/1/9 10/1/10
f 13/1/11 12/1/12 11/1/11
f 12/1/12 13/1/11 14/1/12
f 17/1/14 16/1/13 15/1/13
f 16/1/13 17/1/14 18/1/14
f 3/1/15 20/1/16 19/1/15
f 20/1/16 3/1/15 16/1/16
f 23/1/18 22/1/17 21/1/17
f 22/1/17 23/1/18 24/1/18
f 25/1/19 4/1/9 8/1/9
f 4/1/9 25/1/19 2/1/19
f 12/1/12 27/1/20 26/1/20
f 27/1/20 12/1/12 14/1/12
f 29/1/16 6/1/21 28/1/21
f 6/1/21 29/1/16 30/1/16
f 30/1/22 1/1/5 6/1/5
f 1/1/5 30/1/22 15/1/22
f 15/1/13 3/1/1 1/1/1
f 3/1/1 15/1/13 16/1/13
f 31/1/23 24/1/18 23/1/18
f 24/1/18 31/1/23 32/1/23
f 27/1/25 33/1/24 18/1/24
f 33/1/24 27/1/25 34/1/25
f 26/1/27 21/1/26 12/1/26
f 21/1/26 26/1/27 23/1/27
f 3/1/15 35/1/28 2/1/28
f 35/1/28 3/1/15 19/1/15
f 36/1/29 27/1/25 14/1/29
f 27/1/25 36/1/29 34/1/25
f 7/1/8 11/1/11 5/1/8
f 11/1/11 7/1/8 13/1/11
f 32/1/23 30/1/16 29/1/16
f 30/1/16 32/1/23 31/1/23
f 10/1/10 22/1/17 9/1/10
f 22/1/17 10/1/10 21/1/17
f 27/1/20 17/1/14 26/1/20
f 17/1/14 27/1/20 18/1/14
f 31/1/30 15/1/22 30/1/22
f 15/1/22 31/1/30 17/1/30
f 38/1/10 7/1/31 37/1/31
f 7/1/31 38/1/10 13/1/10
f 16/1/16 33/1/24 20/1/16
f 33/1/24 16/1/16 18/1/24
f 11/1/32 21/1/26 10/1/32
f 21/1/26 11/1/32 12/1/26
f 35/1/28 7/1/31 2/1/28
f 7/1/31 35/1/28 37/1/31
f 36/1/29 13/1/10 38/1/10
f 13/1/10 36/1/29 14/1/29
f 5/1/3 10/1/32 4/1/3
f 10/1/32 5/1/3 11/1/32
f 17/1/30 23/1/27 26/1/27
f 23/1/27 17/1/30 31/1/30
f 28/1/21 2/1/19 25/1/19
f 2/1/19 28/1/21 6/1/21
f 37/2/19 36/2/19 38/2/19
f 36/2/19 37/2/19 35/2/19
f 36/2/19 35/2/19 34/2/19
f 34/2/19 35/2/19 19/2/19
f 34/2/19 19/2/19 33/2/19
f 33/2/19 19/2/19 20/2/19
f 32/2/28 22/2/28 24/2/28
f 22/2/28 32/2/28 29/2/28
f 22/2/28 29/2/28 9/2/28
f 9/2/28 29/2/28 28/2/28
f 9/2/28 28/2/28 8/2/28
f 8/2/28 28/2/28 25/2/28

g gutter-vertical-bottom




usemtl colormap

f 3/1/1 2/1/2 1/1/1
f 2/1/4 5/1/3 4/1/3
f 1/1/5 2/1/6 6/1/5
f 7/1/8 5/1/8 2/1/7
f 4/1/9 9/1/10 8/1/9
f 9/1/10 4/1/9 10/1/10
f 13/1/11 12/1/12 11/1/11
f 12/1/12 13/1/11 14/1/12
f 17/1/14 16/1/13 15/1/13
f 16/1/13 17/1/14 18/1/14
f 3/1/15 20/1/16 19/1/15
f 20/1/16 3/1/15 16/1/16
f 23/1/18 22/1/17 21/1/17
f 22/1/17 23/1/18 24/1/18
f 25/1/19 4/1/9 8/1/9
f 4/1/9 25/1/19 2/1/19
f 12/1/12 27/1/20 26/1/20
f 27/1/20 12/1/12 14/1/12
f 29/1/16 6/1/21 28/1/21
f 6/1/21 29/1/16 30/1/16
f 30/1/22 1/1/5 6/1/5
f 1/1/5 30/1/22 15/1/22
f 15/1/13 3/1/1 1/1/1
f 3/1/1 15/1/13 16/1/13
f 31/1/23 24/1/18 23/1/18
f 24/1/18 31/1/23 32/1/23
f 27/1/25 33/1/24 18/1/24
f 33/1/24 27/1/25 34/1/25
f 26/1/27 21/1/26 12/1/26
f 21/1/26 26/1/27 23/1/27
f 3/1/15 35/1/28 2/1/28
f 35/1/28 3/1/15 19/1/15
f 36/1/29 27/1/25 14/1/29
f 27/1/25 36/1/29 34/1/25
f 7/1/8 11/1/11 5/1/8
f 11/1/11 7/1/8 13/1/11
f 32/1/23 30/1/16 29/1/16
f 30/1/16 32/1/23 31/1/23
f 10/1/10 22/1/17 9/1/10
f 22/1/17 10/1/10 21/1/17
f 27/1/20 17/1/14 26/1/20
f 17/1/14 27/1/20 18/1/14
f 31/1/30 15/1/22 30/1/22
f 15/1/22 31/1/30 17/1/30
f 38/1/10 7/1/31 37/1/31
f 7/1/31 38/1/10 13/1/10
f 16/1/16 33/1/24 20/1/16
f 33/1/24 16/1/16 18/1/24
f 11/1/32 21/1/26 10/1/32
f 21/1/26 11/1/32 12/1/26
f 35/1/28 7/1/31 2/1/28
f 7/1/31 35/1/28 37/1/31
f 36/1/29 13/1/10 38/1/10
f 13/1/10 36/1/29 14/1/29
f 5/1/3 10/1/32 4/1/3
f 10/1/32 5/1/3 11/1/32
f 17/1/30 23/1/27 26/1/27
f 23/1/27 17/1/30 31/1/30
f 28/1/21 2/1/19 25/1/19
f 2/1/19 28/1/21 6/1/21
f 37/2/19 36/2/19 38/2/19
f 36/2/19 37/2/19 35/2/19
f 36/2/19 35/2/19 34/2/19
f 34/2/19 35/2/19 19/2/19
f 34/2/19 19/2/19 33/2/19
f 33/2/19 19/2/19 20/2/19
f 32/2/28 22/2/28 24/2/28
f 22/2/28 32/2/28 29/2/28
f 22/2/28 29/2/28 9/2/28
f 9/2/28 29/2/28 28/2/28
f 9/2/28 28/2/28 8/2/28
f 8/2/28 28/2/28 25/2/28

