# Created by Kenney (www.kenney.nl)

mtllib roof-flat-patch.mtl

g roof-flat-patch

v 0.55 0.05 -0.45 1 1 1
v 0.55 0 -0.45 1 1 1
v 0.55 0.05 0.45 1 1 1
v 0.55 0 0.45 1 1 1
v -0.55 0 -0.45 1 1 1
v -0.55 0.05 -0.45 1 1 1
v -0.55 0 0.45 1 1 1
v -0.55 0.05 0.45 1 1 1
v -0.45 0 -0.55 1 1 1
v 0.45 0 -0.55 1 1 1
v -0.45 0.05 -0.55 1 1 1
v 0.45 0.05 -0.55 1 1 1
v 0.5207106 0 -0.5207106 1 1 1
v 0.5207106 0.05 -0.5207106 1 1 1
v 0.45 0 0.55 1 1 1
v -0.45 0 0.55 1 1 1
v 0.45 0.05 0.55 1 1 1
v -0.45 0.05 0.55 1 1 1
v 0.5207106 0.05 0.5207106 1 1 1
v -0.5207106 0.05 0.5207106 1 1 1
v -0.5207106 0.05 -0.5207106 1 1 1
v -0.5207106 0 -0.5207106 1 1 1
v -0.5207106 0 0.5207106 1 1 1
v 0.5207106 0 0.5207106 1 1 1

vn 0.9807853 0 -0.1950903
vn 0.9807853 0 0.1950903
vn -0.9807853 0 -0.1950903
vn -0.9807853 0 0.1950903
vn -0.1950903 0 -0.9807853
vn 0.1950903 0 -0.9807853
vn 0.7071068 0 -0.7071068
vn 0.1950903 0 0.9807853
vn -0.1950903 0 0.9807853
vn 0 1 0
vn -0.7071068 0 -0.7071068
vn -0.7071068 0 0.7071068
vn 0.7071068 0 0.7071068
vn 0 -1 0

vt 0.46875 0.225
vt 0.46875 0.025

usemtl colormap

f 3/1/2 2/2/1 1/1/1
f 2/2/1 3/1/2 4/2/2
f 7/2/4 6/1/3 5/2/3
f 6/1/3 7/2/4 8/1/4
f 11/1/5 10/2/6 9/2/5
f 10/2/6 11/1/5 12/1/6
f 12/1/6 13/2/7 10/2/6
f 13/2/7 12/1/6 14/1/7
f 17/1/8 16/2/9 15/2/8
f 16/2/9 17/1/8 18/1/9
f 14/1/10 3/1/10 1/1/10
f 3/1/10 14/1/10 19/1/10
f 19/1/10 14/1/10 12/1/10
f 19/1/10 12/1/10 17/1/10
f 17/1/10 12/1/10 11/1/10
f 17/1/10 11/1/10 18/1/10
f 18/1/10 11/1/10 20/1/10
f 20/1/10 11/1/10 21/1/10
f 20/1/10 21/1/10 8/1/10
f 8/1/10 21/1/10 6/1/10
f 5/2/3 21/1/11 22/2/11
f 21/1/11 5/2/3 6/1/3
f 23/2/12 8/1/4 7/2/4
f 8/1/4 23/2/12 20/1/12
f 21/1/11 9/2/5 22/2/11
f 9/2/5 21/1/11 11/1/5
f 19/1/13 4/2/2 3/1/2
f 4/2/2 19/1/13 24/2/13
f 24/2/14 2/2/14 4/2/14
f 2/2/14 24/2/14 13/2/14
f 13/2/14 24/2/14 15/2/14
f 13/2/14 15/2/14 10/2/14
f 10/2/14 15/2/14 9/2/14
f 9/2/14 15/2/14 16/2/14
f 9/2/14 16/2/14 23/2/14
f 9/2/14 23/2/14 22/2/14
f 22/2/14 23/2/14 7/2/14
f 22/2/14 7/2/14 5/2/14
f 1/1/1 13/2/7 14/1/7
f 13/2/7 1/1/1 2/2/1
f 19/1/13 15/2/8 24/2/13
f 15/2/8 19/1/13 17/1/8
f 18/1/9 23/2/12 16/2/9
f 23/2/12 18/1/9 20/1/12

g roof-flat-patch




usemtl colormap

f 3/1/2 2/2/1 1/1/1
f 2/2/1 3/1/2 4/2/2
f 7/2/4 6/1/3 5/2/3
f 6/1/3 7/2/4 8/1/4
f 11/1/5 10/2/6 9/2/5
f 10/2/6 11/1/5 12/1/6
f 12/1/6 13/2/7 10/2/6
f 13/2/7 12/1/6 14/1/7
f 17/1/8 16/2/9 15/2/8
f 16/2/9 17/1/8 18/1/9
f 14/1/10 3/1/10 1/1/10
f 3/1/10 14/1/10 19/1/10
f 19/1/10 14/1/10 12/1/10
f 19/1/10 12/1/10 17/1/10
f 17/1/10 12/1/10 11/1/10
f 17/1/10 11/1/10 18/1/10
f 18/1/10 11/1/10 20/1/10
f 20/1/10 11/1/10 21/1/10
f 20/1/10 21/1/10 8/1/10
f 8/1/10 21/1/10 6/1/10
f 5/2/3 21/1/11 22/2/11
f 21/1/11 5/2/3 6/1/3
f 23/2/12 8/1/4 7/2/4
f 8/1/4 23/2/12 20/1/12
f 21/1/11 9/2/5 22/2/11
f 9/2/5 21/1/11 11/1/5
f 19/1/13 4/2/2 3/1/2
f 4/2/2 19/1/13 24/2/13
f 24/2/14 2/2/14 4/2/14
f 2/2/14 24/2/14 13/2/14
f 13/2/14 24/2/14 15/2/14
f 13/2/14 15/2/14 10/2/14
f 10/2/14 15/2/14 9/2/14
f 9/2/14 15/2/14 16/2/14
f 9/2/14 16/2/14 23/2/14
f 9/2/14 23/2/14 22/2/14
f 22/2/14 23/2/14 7/2/14
f 22/2/14 7/2/14 5/2/14
f 1/1/1 13/2/7 14/1/7
f 13/2/7 1/1/1 2/2/1
f 19/1/13 15/2/8 24/2/13
f 15/2/8 19/1/13 17/1/8
f 18/1/9 23/2/12 16/2/9
f 23/2/12 18/1/9 20/1/12

