# Created by Kenney (www.kenney.nl)

mtllib roof-flat-side.mtl

g roof-flat-side

v 0.6999999 0.15 -1 1 1 1
v 0.6999999 0.4 -1 1 1 1
v 0.6999999 0.15 1 1 1 1
v 0.6999999 0.4 1 1 1 1
v 0.5 0.15 -1 1 1 1
v 0.5 0.15 1 1 1 1
v 1.2 0.4 -1 1 1 1
v 1.2 0.4 1 1 1 1
v 1.2 0.3 -1 1 1 1
v 1.2 0.3 1 1 1 1
v 1.1 0.3 1 1 1 1
v 1.1 0.3 -1 1 1 1
v 0.5 0 -1 1 1 1
v 0.5 0 1 1 1 1
v 1.077742 0 1 1 1 1
v 1.077742 0 -1 1 1 1
v 1.077742 0.1 -1 1 1 1
v 1.077742 0.1 1 1 1 1
v 1 0.15 -1 1 1 1
v 1 0.15 1 1 1 1
v 0.5 0 1 1 1 1
v -1 0 1 1 1 1
v 0.5 0.1 1 1 1 1
v -1 0.1 1 1 1 1
v 0.5 0 -1 1 1 1
v -1 0 -1 1 1 1
v -1 0.1 -1 1 1 1
v 0.5 0.1 -1 1 1 1

vn -1 0 0
vn 0 1 0
vn 0.7071068 0.7071068 0
vn 1 0 0
vn 0 -1 0
vn 0.8777618 0.4790972 0
vn 0.5409318 0.8410665 0
vn 0 0 -1
vn 0 0 1
vn 0.8320503 -0.5547002 0

vt 0.59375 0.1
vt 0.59375 0.225
vt 0.59375 0.175
vt 0.59375 0.025
vt 0.59375 0.075
vt 0.46875 0.175

usemtl colormap

f 3/1/1 2/2/1 1/1/1
f 2/2/1 3/1/1 4/2/1
f 5/1/2 3/1/2 1/1/2
f 3/1/2 5/1/2 6/1/2
f 2/2/2 8/2/3 7/2/3
f 8/2/3 2/2/2 4/2/2
f 8/2/3 9/3/4 7/2/3
f 9/3/4 8/2/3 10/3/4
f 11/3/5 9/3/5 10/3/5
f 9/3/5 11/3/5 12/3/5
f 14/4/1 5/1/1 13/4/1
f 5/1/1 14/4/1 6/1/1
f 14/4/5 16/4/5 15/4/5
f 16/4/5 14/4/5 13/4/5
f 18/5/6 16/4/4 17/5/6
f 16/4/4 18/5/6 15/4/4
f 19/1/7 18/5/6 17/5/6
f 18/5/6 19/1/7 20/1/7
f 5/1/8 16/4/8 13/4/8
f 16/4/8 5/1/8 17/5/8
f 17/5/8 5/1/8 19/1/8
f 19/1/8 5/1/8 1/1/8
f 19/1/8 1/1/8 12/3/8
f 12/3/8 1/1/8 2/2/8
f 12/3/8 2/2/8 9/3/8
f 9/3/8 2/2/8 7/2/8
f 8/2/9 11/3/9 10/3/9
f 4/2/9 11/3/9 8/2/9
f 3/1/9 11/3/9 4/2/9
f 11/3/9 3/1/9 20/1/9
f 6/1/9 20/1/9 3/1/9
f 6/1/9 18/5/9 20/1/9
f 14/4/9 18/5/9 6/1/9
f 18/5/9 14/4/9 15/4/9
f 11/3/10 19/1/10 12/3/10
f 19/1/10 11/3/10 20/1/10
f 23/3/9 22/5/9 21/5/9
f 22/5/9 23/3/9 24/3/9
f 22/5/5 25/5/5 21/5/5
f 25/5/5 22/5/5 26/5/5
f 27/3/8 25/5/8 26/5/8
f 25/5/8 27/3/8 28/3/8
f 22/5/1 27/3/1 26/5/1
f 27/3/1 22/5/1 24/3/1
f 27/6/2 23/6/2 28/6/2
f 23/6/2 27/6/2 24/6/2

g roof-flat-side




usemtl colormap

f 3/1/1 2/2/1 1/1/1
f 2/2/1 3/1/1 4/2/1
f 5/1/2 3/1/2 1/1/2
f 3/1/2 5/1/2 6/1/2
f 2/2/2 8/2/3 7/2/3
f 8/2/3 2/2/2 4/2/2
f 8/2/3 9/3/4 7/2/3
f 9/3/4 8/2/3 10/3/4
f 11/3/5 9/3/5 10/3/5
f 9/3/5 11/3/5 12/3/5
f 14/4/1 5/1/1 13/4/1
f 5/1/1 14/4/1 6/1/1
f 14/4/5 16/4/5 15/4/5
f 16/4/5 14/4/5 13/4/5
f 18/5/6 16/4/4 17/5/6
f 16/4/4 18/5/6 15/4/4
f 19/1/7 18/5/6 17/5/6
f 18/5/6 19/1/7 20/1/7
f 5/1/8 16/4/8 13/4/8
f 16/4/8 5/1/8 17/5/8
f 17/5/8 5/1/8 19/1/8
f 19/1/8 5/1/8 1/1/8
f 19/1/8 1/1/8 12/3/8
f 12/3/8 1/1/8 2/2/8
f 12/3/8 2/2/8 9/3/8
f 9/3/8 2/2/8 7/2/8
f 8/2/9 11/3/9 10/3/9
f 4/2/9 11/3/9 8/2/9
f 3/1/9 11/3/9 4/2/9
f 11/3/9 3/1/9 20/1/9
f 6/1/9 20/1/9 3/1/9
f 6/1/9 18/5/9 20/1/9
f 14/4/9 18/5/9 6/1/9
f 18/5/9 14/4/9 15/4/9
f 11/3/10 19/1/10 12/3/10
f 19/1/10 11/3/10 20/1/10
f 23/3/9 22/5/9 21/5/9
f 22/5/9 23/3/9 24/3/9
f 22/5/5 25/5/5 21/5/5
f 25/5/5 22/5/5 26/5/5
f 27/3/8 25/5/8 26/5/8
f 25/5/8 27/3/8 28/3/8
f 22/5/1 27/3/1 26/5/1
f 27/3/1 22/5/1 24/3/1
f 27/6/2 23/6/2 28/6/2
f 23/6/2 27/6/2 24/6/2

