# Created by Kenney (www.kenney.nl)

mtllib roof-flat-patch-large.mtl

g roof-flat-patch-large

v 0.7707106 0.05 -0.7707106 1 1 1
v 0.7707106 0 -0.7707106 1 1 1
v 0.8 0.05 -0.7 1 1 1
v 0.8 0 -0.7 1 1 1
v -0.7707106 0 -0.7707106 1 1 1
v -0.7 0 -0.8 1 1 1
v -0.7707106 0.05 -0.7707106 1 1 1
v -0.7 0.05 -0.8 1 1 1
v 0.7 0 -0.8 1 1 1
v 0.7 0.05 -0.8 1 1 1
v -0.7 0 0.8 1 1 1
v -0.7707106 0 0.7707106 1 1 1
v -0.7 0.05 0.8 1 1 1
v -0.7707106 0.05 0.7707106 1 1 1
v 0.8 0.05 0.7 1 1 1
v 0.7707106 0.05 0.7707106 1 1 1
v 0.7 0.05 0.8 1 1 1
v -0.8 0.05 -0.7 1 1 1
v -0.8 0.05 0.7 1 1 1
v 0.8 0 0.7 1 1 1
v 0.7707106 0 0.7707106 1 1 1
v -0.8 0 -0.7 1 1 1
v -0.8 0 0.7 1 1 1
v 0.7 0 0.8 1 1 1

vn 0.7071068 0 -0.7071068
vn 0.9807853 0 -0.1950903
vn -0.7071068 0 -0.7071068
vn -0.1950903 0 -0.9807853
vn 0.1950903 0 -0.9807853
vn -0.1950903 0 0.9807853
vn -0.7071068 0 0.7071068
vn 0 1 0
vn 0.9807853 0 0.1950903
vn 0.7071068 0 0.7071068
vn -0.9807853 0 -0.1950903
vn -0.9807853 0 0.1950903
vn 0.1950903 0 0.9807853
vn 0 -1 0

vt 0.46875 0.225
vt 0.46875 0.025

usemtl colormap

f 3/1/2 2/2/1 1/1/1
f 2/2/1 3/1/2 4/2/2
f 7/1/3 6/2/4 5/2/3
f 6/2/4 7/1/3 8/1/4
f 10/1/5 2/2/1 9/2/5
f 2/2/1 10/1/5 1/1/1
f 13/1/6 12/2/7 11/2/6
f 12/2/7 13/1/6 14/1/7
f 3/1/8 16/1/8 15/1/8
f 16/1/8 3/1/8 1/1/8
f 16/1/8 1/1/8 17/1/8
f 17/1/8 1/1/8 10/1/8
f 17/1/8 10/1/8 8/1/8
f 17/1/8 8/1/8 13/1/8
f 13/1/8 8/1/8 14/1/8
f 14/1/8 8/1/8 7/1/8
f 14/1/8 7/1/8 18/1/8
f 14/1/8 18/1/8 19/1/8
f 16/1/10 20/2/9 15/1/9
f 20/2/9 16/1/10 21/2/10
f 15/1/9 4/2/2 3/1/2
f 4/2/2 15/1/9 20/2/9
f 23/2/12 18/1/11 22/2/11
f 18/1/11 23/2/12 19/1/12
f 16/1/10 24/2/13 21/2/10
f 24/2/13 16/1/10 17/1/13
f 21/2/14 4/2/14 20/2/14
f 4/2/14 21/2/14 2/2/14
f 2/2/14 21/2/14 24/2/14
f 2/2/14 24/2/14 9/2/14
f 9/2/14 24/2/14 11/2/14
f 9/2/14 11/2/14 6/2/14
f 6/2/14 11/2/14 12/2/14
f 6/2/14 12/2/14 5/2/14
f 5/2/14 12/2/14 22/2/14
f 22/2/14 12/2/14 23/2/14
f 12/2/7 19/1/12 23/2/12
f 19/1/12 12/2/7 14/1/7
f 8/1/4 9/2/5 6/2/4
f 9/2/5 8/1/4 10/1/5
f 22/2/11 7/1/3 5/2/3
f 7/1/3 22/2/11 18/1/11
f 17/1/13 11/2/6 24/2/13
f 11/2/6 17/1/13 13/1/6

g roof-flat-patch-large




usemtl colormap

f 3/1/2 2/2/1 1/1/1
f 2/2/1 3/1/2 4/2/2
f 7/1/3 6/2/4 5/2/3
f 6/2/4 7/1/3 8/1/4
f 10/1/5 2/2/1 9/2/5
f 2/2/1 10/1/5 1/1/1
f 13/1/6 12/2/7 11/2/6
f 12/2/7 13/1/6 14/1/7
f 3/1/8 16/1/8 15/1/8
f 16/1/8 3/1/8 1/1/8
f 16/1/8 1/1/8 17/1/8
f 17/1/8 1/1/8 10/1/8
f 17/1/8 10/1/8 8/1/8
f 17/1/8 8/1/8 13/1/8
f 13/1/8 8/1/8 14/1/8
f 14/1/8 8/1/8 7/1/8
f 14/1/8 7/1/8 18/1/8
f 14/1/8 18/1/8 19/1/8
f 16/1/10 20/2/9 15/1/9
f 20/2/9 16/1/10 21/2/10
f 15/1/9 4/2/2 3/1/2
f 4/2/2 15/1/9 20/2/9
f 23/2/12 18/1/11 22/2/11
f 18/1/11 23/2/12 19/1/12
f 16/1/10 24/2/13 21/2/10
f 24/2/13 16/1/10 17/1/13
f 21/2/14 4/2/14 20/2/14
f 4/2/14 21/2/14 2/2/14
f 2/2/14 21/2/14 24/2/14
f 2/2/14 24/2/14 9/2/14
f 9/2/14 24/2/14 11/2/14
f 9/2/14 11/2/14 6/2/14
f 6/2/14 11/2/14 12/2/14
f 6/2/14 12/2/14 5/2/14
f 5/2/14 12/2/14 22/2/14
f 22/2/14 12/2/14 23/2/14
f 12/2/7 19/1/12 23/2/12
f 19/1/12 12/2/7 14/1/7
f 8/1/4 9/2/5 6/2/4
f 9/2/5 8/1/4 10/1/5
f 22/2/11 7/1/3 5/2/3
f 7/1/3 22/2/11 18/1/11
f 17/1/13 11/2/6 24/2/13
f 11/2/6 17/1/13 13/1/6

