# Created by Kenney (www.kenney.nl)

mtllib stairs-open-short.mtl

g stairs-open-short

v -0.45 0.2083095 -2 1 1 1
v -0.45 1.2 -0.3471825 1 1 1
v -0.55 0.2083095 -2 1 1 1
v -0.55 1.2 -0.3471825 1 1 1
v -0.45 1.2 -0.1528175 1 1 1
v -0.45 0.1516905 -1.9 1 1 1
v -0.45 3.158362E-16 -2 1 1 1
v -0.45 3.158362E-16 -1.9 1 1 1
v -0.55 3.158362E-16 -1.9 1 1 1
v -0.55 3.158362E-16 -2 1 1 1
v -0.55 0.1516905 -1.9 1 1 1
v -0.55 1.2 -0.1528175 1 1 1
v 0.55 0.2083095 -2 1 1 1
v 0.55 1.2 -0.3471825 1 1 1
v 0.45 0.2083095 -2 1 1 1
v 0.45 1.2 -0.3471825 1 1 1
v 0.55 1.2 -0.1528175 1 1 1
v 0.55 0.1516905 -1.9 1 1 1
v 0.55 0 -2 1 1 1
v 0.55 0 -1.9 1 1 1
v 0.45 0 -1.9 1 1 1
v 0.45 0 -2 1 1 1
v 0.45 0.1516905 -1.9 1 1 1
v 0.45 1.2 -0.1528175 1 1 1
v 0.65 1.2 0 1 1 1
v 0.65 1.2 -0.5 1 1 1
v -0.65 1.2 0 1 1 1
v -0.65 1.2 -0.5 1 1 1
v 0.65 1.3 -0.5 1 1 1
v 0.65 1.3 0 1 1 1
v -0.65 1.3 -0.5 1 1 1
v -0.65 1.3 0 1 1 1
v 0.65 0.9 -0.5 1 1 1
v 0.65 0.9 -1 1 1 1
v -0.65 0.9 -0.5 1 1 1
v -0.65 0.9 -1 1 1 1
v 0.65 1 -1 1 1 1
v 0.65 1 -0.5 1 1 1
v -0.65 1 -1 1 1 1
v -0.65 1 -0.5 1 1 1
v 0.65 0.6 -1 1 1 1
v 0.65 0.6 -1.5 1 1 1
v -0.65 0.6 -1 1 1 1
v -0.65 0.6 -1.5 1 1 1
v 0.65 0.7 -1.5 1 1 1
v 0.65 0.7 -1 1 1 1
v -0.65 0.7 -1.5 1 1 1
v -0.65 0.7 -1 1 1 1
v 0.65 0.3 -1.5 1 1 1
v 0.65 0.3 -2 1 1 1
v -0.65 0.3 -1.5 1 1 1
v -0.65 0.3 -2 1 1 1
v 0.65 0.4 -2 1 1 1
v 0.65 0.4 -1.5 1 1 1
v -0.65 0.4 -2 1 1 1
v -0.65 0.4 -1.5 1 1 1

vn 0 0.4926988 -0.8701999
vn 0 0.8574929 -0.5144957
vn 1 0 0
vn 0 -1 0
vn 0 0 -1
vn 0 0 1
vn 0 -0.8574929 0.5144957
vn -1 0 0
vn 0 1 0

vt 0.59375 0.05971825
vt 0.59375 0.225
vt 0.59375 0.05028174
vt 0.59375 0.025
vt 0.59375 0.075
vt 0.59375 0.175

usemtl colormap

f 3/1/1 2/2/2 1/1/1
f 2/2/2 3/1/1 4/2/2
f 6/3/3 2/2/3 5/2/3
f 6/3/3 1/1/3 2/2/3
f 1/1/3 6/3/3 7/4/3
f 8/4/3 7/4/3 6/3/3
f 9/4/4 7/4/4 8/4/4
f 7/4/4 9/4/4 10/4/4
f 3/1/1 7/4/5 10/4/5
f 7/4/5 3/1/1 1/1/1
f 6/3/6 9/4/6 8/4/6
f 9/4/6 6/3/6 11/3/6
f 12/2/7 6/3/7 5/2/7
f 6/3/7 12/2/7 11/3/7
f 9/4/8 3/1/8 10/4/8
f 3/1/8 9/4/8 11/3/8
f 3/1/8 11/3/8 4/2/8
f 4/2/8 11/3/8 12/2/8
f 15/1/1 14/2/2 13/1/1
f 14/2/2 15/1/1 16/2/2
f 18/3/3 14/2/3 17/2/3
f 18/3/3 13/1/3 14/2/3
f 13/1/3 18/3/3 19/4/3
f 20/4/3 19/4/3 18/3/3
f 21/4/4 19/4/4 20/4/4
f 19/4/4 21/4/4 22/4/4
f 15/1/1 19/4/5 22/4/5
f 19/4/5 15/1/1 13/1/1
f 18/3/6 21/4/6 20/4/6
f 21/4/6 18/3/6 23/3/6
f 24/2/7 18/3/7 17/2/7
f 18/3/7 24/2/7 23/3/7
f 21/4/8 15/1/8 22/4/8
f 15/1/8 21/4/8 23/3/8
f 15/1/8 23/3/8 16/2/8
f 16/2/8 23/3/8 24/2/8
f 27/5/4 26/5/4 25/5/4
f 26/5/4 27/5/4 28/5/4
f 31/6/9 30/6/9 29/6/9
f 30/6/9 31/6/9 32/6/9
f 30/6/6 27/5/6 25/5/6
f 27/5/6 30/6/6 32/6/6
f 30/6/3 26/5/3 29/6/3
f 26/5/3 30/6/3 25/5/3
f 27/5/8 31/6/8 28/5/8
f 31/6/8 27/5/8 32/6/8
f 31/6/5 26/5/5 28/5/5
f 26/5/5 31/6/5 29/6/5
f 35/5/4 34/5/4 33/5/4
f 34/5/4 35/5/4 36/5/4
f 39/6/9 38/6/9 37/6/9
f 38/6/9 39/6/9 40/6/9
f 38/6/6 35/5/6 33/5/6
f 35/5/6 38/6/6 40/6/6
f 38/6/3 34/5/3 37/6/3
f 34/5/3 38/6/3 33/5/3
f 35/5/8 39/6/8 36/5/8
f 39/6/8 35/5/8 40/6/8
f 39/6/5 34/5/5 36/5/5
f 34/5/5 39/6/5 37/6/5
f 43/5/4 42/5/4 41/5/4
f 42/5/4 43/5/4 44/5/4
f 47/6/9 46/6/9 45/6/9
f 46/6/9 47/6/9 48/6/9
f 46/6/6 43/5/6 41/5/6
f 43/5/6 46/6/6 48/6/6
f 46/6/3 42/5/3 45/6/3
f 42/5/3 46/6/3 41/5/3
f 43/5/8 47/6/8 44/5/8
f 47/6/8 43/5/8 48/6/8
f 47/6/5 42/5/5 44/5/5
f 42/5/5 47/6/5 45/6/5
f 51/5/4 50/5/4 49/5/4
f 50/5/4 51/5/4 52/5/4
f 55/6/9 54/6/9 53/6/9
f 54/6/9 55/6/9 56/6/9
f 54/6/6 51/5/6 49/5/6
f 51/5/6 54/6/6 56/6/6
f 54/6/3 50/5/3 53/6/3
f 50/5/3 54/6/3 49/5/3
f 51/5/8 55/6/8 52/5/8
f 55/6/8 51/5/8 56/6/8
f 55/6/5 50/5/5 52/5/5
f 50/5/5 55/6/5 53/6/5

g stairs-open-short




usemtl colormap

f 3/1/1 2/2/2 1/1/1
f 2/2/2 3/1/1 4/2/2
f 6/3/3 2/2/3 5/2/3
f 6/3/3 1/1/3 2/2/3
f 1/1/3 6/3/3 7/4/3
f 8/4/3 7/4/3 6/3/3
f 9/4/4 7/4/4 8/4/4
f 7/4/4 9/4/4 10/4/4
f 3/1/1 7/4/5 10/4/5
f 7/4/5 3/1/1 1/1/1
f 6/3/6 9/4/6 8/4/6
f 9/4/6 6/3/6 11/3/6
f 12/2/7 6/3/7 5/2/7
f 6/3/7 12/2/7 11/3/7
f 9/4/8 3/1/8 10/4/8
f 3/1/8 9/4/8 11/3/8
f 3/1/8 11/3/8 4/2/8
f 4/2/8 11/3/8 12/2/8
f 15/1/1 14/2/2 13/1/1
f 14/2/2 15/1/1 16/2/2
f 18/3/3 14/2/3 17/2/3
f 18/3/3 13/1/3 14/2/3
f 13/1/3 18/3/3 19/4/3
f 20/4/3 19/4/3 18/3/3
f 21/4/4 19/4/4 20/4/4
f 19/4/4 21/4/4 22/4/4
f 15/1/1 19/4/5 22/4/5
f 19/4/5 15/1/1 13/1/1
f 18/3/6 21/4/6 20/4/6
f 21/4/6 18/3/6 23/3/6
f 24/2/7 18/3/7 17/2/7
f 18/3/7 24/2/7 23/3/7
f 21/4/8 15/1/8 22/4/8
f 15/1/8 21/4/8 23/3/8
f 15/1/8 23/3/8 16/2/8
f 16/2/8 23/3/8 24/2/8
f 27/5/4 26/5/4 25/5/4
f 26/5/4 27/5/4 28/5/4
f 31/6/9 30/6/9 29/6/9
f 30/6/9 31/6/9 32/6/9
f 30/6/6 27/5/6 25/5/6
f 27/5/6 30/6/6 32/6/6
f 30/6/3 26/5/3 29/6/3
f 26/5/3 30/6/3 25/5/3
f 27/5/8 31/6/8 28/5/8
f 31/6/8 27/5/8 32/6/8
f 31/6/5 26/5/5 28/5/5
f 26/5/5 31/6/5 29/6/5
f 35/5/4 34/5/4 33/5/4
f 34/5/4 35/5/4 36/5/4
f 39/6/9 38/6/9 37/6/9
f 38/6/9 39/6/9 40/6/9
f 38/6/6 35/5/6 33/5/6
f 35/5/6 38/6/6 40/6/6
f 38/6/3 34/5/3 37/6/3
f 34/5/3 38/6/3 33/5/3
f 35/5/8 39/6/8 36/5/8
f 39/6/8 35/5/8 40/6/8
f 39/6/5 34/5/5 36/5/5
f 34/5/5 39/6/5 37/6/5
f 43/5/4 42/5/4 41/5/4
f 42/5/4 43/5/4 44/5/4
f 47/6/9 46/6/9 45/6/9
f 46/6/9 47/6/9 48/6/9
f 46/6/6 43/5/6 41/5/6
f 43/5/6 46/6/6 48/6/6
f 46/6/3 42/5/3 45/6/3
f 42/5/3 46/6/3 41/5/3
f 43/5/8 47/6/8 44/5/8
f 47/6/8 43/5/8 48/6/8
f 47/6/5 42/5/5 44/5/5
f 42/5/5 47/6/5 45/6/5
f 51/5/4 50/5/4 49/5/4
f 50/5/4 51/5/4 52/5/4
f 55/6/9 54/6/9 53/6/9
f 54/6/9 55/6/9 56/6/9
f 54/6/6 51/5/6 49/5/6
f 51/5/6 54/6/6 56/6/6
f 54/6/3 50/5/3 53/6/3
f 50/5/3 54/6/3 49/5/3
f 51/5/8 55/6/8 52/5/8
f 55/6/8 51/5/8 56/6/8
f 55/6/5 50/5/5 52/5/5
f 50/5/5 55/6/5 53/6/5

