# Created by Kenney (www.kenney.nl)

mtllib wall-corner.mtl

g wall-corner

v 1 2.4 -1 1 1 1
v 1 0 -1 1 1 1
v 1 2.4 1 1 1 1
v 1 0 1 1 1 1
v -1 0 1 1 1 1
v -1 2.4 1 1 1 1
v 0.9 1.127987E-17 -1 1 1 1
v 0.9 2.4 -1 1 1 1
v 0.9 1.127987E-17 0.9 1 1 1
v 0.9 2.4 0.9 1 1 1
v -1 1.127987E-17 0.9 1 1 1
v -1 2.4 0.9 1 1 1

vn 1 0 0
vn 0 0 1
vn -1 0 0
vn 0 0 -1
vn 0 1 0

vt 0.34375 0.175
vt 0.34375 0.075
vt 0.59375 0.075
vt 0.59375 0.175
vt 0.46875 0.175

usemtl colormap

f 3/1/1 2/2/1 1/1/1
f 2/2/1 3/1/1 4/2/1
f 3/1/2 5/2/2 4/2/2
f 5/2/2 3/1/2 6/1/2
f 9/3/3 8/4/3 7/3/3
f 8/4/3 9/3/3 10/4/3
f 12/4/4 9/3/4 11/3/4
f 9/3/4 12/4/4 10/4/4
f 5/3/3 12/4/3 11/3/3
f 12/4/3 5/3/3 6/4/3
f 7/3/4 1/4/4 2/3/4
f 1/4/4 7/3/4 8/4/4
f 8/5/5 3/5/5 1/5/5
f 3/5/5 8/5/5 10/5/5
f 3/5/5 10/5/5 6/5/5
f 6/5/5 10/5/5 12/5/5

g wall-corner




usemtl colormap

f 3/1/1 2/2/1 1/1/1
f 2/2/1 3/1/1 4/2/1
f 3/1/2 5/2/2 4/2/2
f 5/2/2 3/1/2 6/1/2
f 9/3/3 8/4/3 7/3/3
f 8/4/3 9/3/3 10/4/3
f 12/4/4 9/3/4 11/3/4
f 9/3/4 12/4/4 10/4/4
f 5/3/3 12/4/3 11/3/3
f 12/4/3 5/3/3 6/4/3
f 7/3/4 1/4/4 2/3/4
f 1/4/4 7/3/4 8/4/4
f 8/5/5 3/5/5 1/5/5
f 3/5/5 8/5/5 10/5/5
f 3/5/5 10/5/5 6/5/5
f 6/5/5 10/5/5 12/5/5

