# Created by Kenney (www.kenney.nl)

mtllib wall-low.mtl

g wall-low

v -0.05000002 1.490129E-09 -1 1 1 1
v -0.05 1.2 -1 1 1 1
v -0.05000002 1.490129E-09 1 1 1 1
v -0.05 1.2 1 1 1 1
v 0.04999998 0 1 1 1 1
v 0.05 1.2 1 1 1 1
v 0.04999998 0 -1 1 1 1
v 0.05 1.2 -1 1 1 1

vn -1 0 0
vn 0 0 1
vn 0 0 -1
vn 0 1 0
vn 1 0 0

vt 0.59375 0.075
vt 0.59375 0.175
vt 0.46875 0.175
vt 0.34375 0.175
vt 0.34375 0.075

usemtl colormap

f 3/1/1 2/2/1 1/1/1
f 2/2/1 3/1/1 4/2/1
f 6/2/2 3/1/2 5/1/2
f 3/1/2 6/2/2 4/2/2
f 1/1/3 8/2/3 7/1/3
f 8/2/3 1/1/3 2/2/3
f 2/3/4 6/3/4 8/3/4
f 6/3/4 2/3/4 4/3/4
f 6/4/5 7/5/5 8/4/5
f 7/5/5 6/4/5 5/5/5

g wall-low




usemtl colormap

f 3/1/1 2/2/1 1/1/1
f 2/2/1 3/1/1 4/2/1
f 6/2/2 3/1/2 5/1/2
f 3/1/2 6/2/2 4/2/2
f 1/1/3 8/2/3 7/1/3
f 8/2/3 1/1/3 2/2/3
f 2/3/4 6/3/4 8/3/4
f 6/3/4 2/3/4 4/3/4
f 6/4/5 7/5/5 8/4/5
f 7/5/5 6/4/5 5/5/5

