# Created by Kenney (www.kenney.nl)

mtllib wall-corner-round.mtl

g wall-corner-round

v 1 2.4 -1 1 1 1
v 0.9828897 2.4 -0.7389476 1 1 1
v 0.9 2.4 -1 1 1 1
v 0.9318516 2.4 -0.4823619 1 1 1
v 0.8837452 2.4 -0.7520002 1 1 1
v 0.8477591 2.4 -0.2346331 1 1 1
v 0.8352591 2.4 -0.5082438 1 1 1
v 0.7320508 2.4 4.387742E-10 1 1 1
v 0.7553711 2.4 -0.2729015 1 1 1
v 0.6454483 2.4 -0.05 1 1 1
v 0.5867067 2.4 0.2175229 1 1 1
v 0.5073713 2.4 0.1566467 1 1 1
v 0.4142136 2.4 0.4142136 1 1 1
v 0.3435029 2.4 0.3435029 1 1 1
v 0.2175229 2.4 0.5867067 1 1 1
v 0.1566467 2.4 0.5073714 1 1 1
v 1.340348E-08 2.4 0.7320508 1 1 1
v -0.05000002 2.4 0.6454483 1 1 1
v -0.2346331 2.4 0.8477591 1 1 1
v -0.2729015 2.4 0.7553711 1 1 1
v -0.4823619 2.4 0.9318516 1 1 1
v -0.5082438 2.4 0.8352591 1 1 1
v -0.7389476 2.4 0.9828897 1 1 1
v -0.7520003 2.4 0.8837452 1 1 1
v -1 2.4 1 1 1 1
v -1 2.4 0.9 1 1 1
v -1 0 0.9 1 1 1
v -1 2.255973E-17 1 1 1 1
v -0.7520003 1.945006E-10 0.8837452 1 1 1
v -0.5082438 3.856732E-10 0.8352591 1 1 1
v -0.2729015 5.702469E-10 0.7553711 1 1 1
v -0.05000002 7.450635E-10 0.6454483 1 1 1
v 0.1566467 9.071319E-10 0.5073714 1 1 1
v 0.3435029 1.053679E-09 0.3435029 1 1 1
v 0.5073713 1.182197E-09 0.1566467 1 1 1
v 0.6454483 1.290488E-09 -0.05 1 1 1
v 0.7553711 1.376698E-09 -0.2729015 1 1 1
v 0.8352591 1.439352E-09 -0.5082438 1 1 1
v 0.8837452 1.477379E-09 -0.7520002 1 1 1
v 0.9 1.490127E-09 -1 1 1 1
v 1 2.255973E-17 -1 1 1 1
v 0.9828897 2.255973E-17 -0.7389476 1 1 1
v 0.9318516 2.255973E-17 -0.4823619 1 1 1
v 0.8477591 2.255973E-17 -0.2346331 1 1 1
v 0.7320508 2.255973E-17 -4.387742E-10 1 1 1
v 0.5867067 2.255973E-17 0.2175229 1 1 1
v 0.4142136 2.255973E-17 0.4142136 1 1 1
v 0.2175229 2.255973E-17 0.5867067 1 1 1
v 1.341884E-08 2.255973E-17 0.7320508 1 1 1
v -0.2346331 2.255973E-17 0.8477591 1 1 1
v -0.4823619 2.255973E-17 0.9318516 1 1 1
v -0.7389476 2.255973E-17 0.9828897 1 1 1

vn 0 1 0
vn -1 0 2.682231E-07
vn -0.06540312 0 -0.9978589
vn -0.1305262 0 -0.9914449
vn -0.258819 0 -0.9659258
vn -0.3826834 0 -0.9238795
vn -0.5 0 -0.8660254
vn -0.6087614 0 -0.7933533
vn -0.7071068 0 -0.7071068
vn -0.7933533 0 -0.6087614
vn -0.8660254 0 -0.5
vn -0.9238795 0 -0.3826834
vn -0.9659258 0 -0.258819
vn -0.9914449 0 -0.1305262
vn -0.9978589 0 -0.06540313
vn 0 0 -1
vn 0.9978589 0 0.06540313
vn 0.9914449 0 0.1305262
vn 0.9659258 0 0.258819
vn 0.9238795 0 0.3826834
vn 0.8660254 0 0.5
vn 0.7933533 0 0.6087614
vn 0.7071068 0 0.7071068
vn 0.6087614 0 0.7933533
vn 0.5 0 0.8660254
vn 0.3826834 0 0.9238795
vn 0.258819 0 0.9659258
vn 0.1305262 0 0.9914449
vn 0.06540313 0 0.9978589

vt 0.46875 0.175
vt 0.59375 0.075
vt 0.59375 0.175
vt 0.34375 0.075
vt 0.34375 0.175

usemtl colormap

f 3/1/1 2/1/1 1/1/1
f 2/1/1 3/1/1 4/1/1
f 4/1/1 3/1/1 5/1/1
f 4/1/1 5/1/1 6/1/1
f 6/1/1 5/1/1 7/1/1
f 6/1/1 7/1/1 8/1/1
f 8/1/1 7/1/1 9/1/1
f 8/1/1 9/1/1 10/1/1
f 8/1/1 10/1/1 11/1/1
f 11/1/1 10/1/1 12/1/1
f 11/1/1 12/1/1 13/1/1
f 13/1/1 12/1/1 14/1/1
f 13/1/1 14/1/1 15/1/1
f 15/1/1 14/1/1 16/1/1
f 15/1/1 16/1/1 17/1/1
f 17/1/1 16/1/1 18/1/1
f 17/1/1 18/1/1 19/1/1
f 19/1/1 18/1/1 20/1/1
f 19/1/1 20/1/1 21/1/1
f 21/1/1 20/1/1 22/1/1
f 21/1/1 22/1/1 23/1/1
f 23/1/1 22/1/1 24/1/1
f 23/1/1 24/1/1 25/1/1
f 25/1/1 24/1/1 26/1/1
f 28/2/2 26/3/2 27/2/2
f 26/3/2 28/2/2 25/3/2
f 26/3/3 29/2/4 27/2/3
f 29/2/4 26/3/3 24/3/4
f 24/3/4 30/2/5 29/2/4
f 30/2/5 24/3/4 22/3/5
f 22/3/5 31/2/6 30/2/5
f 31/2/6 22/3/5 20/3/6
f 20/3/6 32/2/7 31/2/6
f 32/2/7 20/3/6 18/3/7
f 18/3/7 33/2/8 32/2/7
f 33/2/8 18/3/7 16/3/8
f 16/3/8 34/2/9 33/2/8
f 34/2/9 16/3/8 14/3/9
f 34/2/9 12/3/10 35/2/10
f 12/3/10 34/2/9 14/3/9
f 35/2/10 10/3/11 36/2/11
f 10/3/11 35/2/10 12/3/10
f 36/2/11 9/3/12 37/2/12
f 9/3/12 36/2/11 10/3/11
f 37/2/12 7/3/13 38/2/13
f 7/3/13 37/2/12 9/3/12
f 38/2/13 5/3/14 39/2/14
f 5/3/14 38/2/13 7/3/13
f 39/2/14 3/3/15 40/2/15
f 3/3/15 39/2/14 5/3/14
f 40/2/16 1/3/16 41/2/16
f 1/3/16 40/2/16 3/3/16
f 1/5/17 42/4/18 41/4/17
f 42/4/18 1/5/17 2/5/18
f 2/5/18 43/4/19 42/4/18
f 43/4/19 2/5/18 4/5/19
f 4/5/19 44/4/20 43/4/19
f 44/4/20 4/5/19 6/5/20
f 6/5/20 45/4/21 44/4/20
f 45/4/21 6/5/20 8/5/21
f 8/5/21 46/4/22 45/4/21
f 46/4/22 8/5/21 11/5/22
f 11/5/22 47/4/23 46/4/22
f 47/4/23 11/5/22 13/5/23
f 13/5/23 48/4/24 47/4/23
f 48/4/24 13/5/23 15/5/24
f 15/5/24 49/4/25 48/4/24
f 49/4/25 15/5/24 17/5/25
f 17/5/25 50/4/26 49/4/25
f 50/4/26 17/5/25 19/5/26
f 19/5/26 51/4/27 50/4/26
f 51/4/27 19/5/26 21/5/27
f 21/5/27 52/4/28 51/4/27
f 52/4/28 21/5/27 23/5/28
f 23/5/28 28/4/29 52/4/28
f 28/4/29 23/5/28 25/5/29

g wall-corner-round




usemtl colormap

f 3/1/1 2/1/1 1/1/1
f 2/1/1 3/1/1 4/1/1
f 4/1/1 3/1/1 5/1/1
f 4/1/1 5/1/1 6/1/1
f 6/1/1 5/1/1 7/1/1
f 6/1/1 7/1/1 8/1/1
f 8/1/1 7/1/1 9/1/1
f 8/1/1 9/1/1 10/1/1
f 8/1/1 10/1/1 11/1/1
f 11/1/1 10/1/1 12/1/1
f 11/1/1 12/1/1 13/1/1
f 13/1/1 12/1/1 14/1/1
f 13/1/1 14/1/1 15/1/1
f 15/1/1 14/1/1 16/1/1
f 15/1/1 16/1/1 17/1/1
f 17/1/1 16/1/1 18/1/1
f 17/1/1 18/1/1 19/1/1
f 19/1/1 18/1/1 20/1/1
f 19/1/1 20/1/1 21/1/1
f 21/1/1 20/1/1 22/1/1
f 21/1/1 22/1/1 23/1/1
f 23/1/1 22/1/1 24/1/1
f 23/1/1 24/1/1 25/1/1
f 25/1/1 24/1/1 26/1/1
f 28/2/2 26/3/2 27/2/2
f 26/3/2 28/2/2 25/3/2
f 26/3/3 29/2/4 27/2/3
f 29/2/4 26/3/3 24/3/4
f 24/3/4 30/2/5 29/2/4
f 30/2/5 24/3/4 22/3/5
f 22/3/5 31/2/6 30/2/5
f 31/2/6 22/3/5 20/3/6
f 20/3/6 32/2/7 31/2/6
f 32/2/7 20/3/6 18/3/7
f 18/3/7 33/2/8 32/2/7
f 33/2/8 18/3/7 16/3/8
f 16/3/8 34/2/9 33/2/8
f 34/2/9 16/3/8 14/3/9
f 34/2/9 12/3/10 35/2/10
f 12/3/10 34/2/9 14/3/9
f 35/2/10 10/3/11 36/2/11
f 10/3/11 35/2/10 12/3/10
f 36/2/11 9/3/12 37/2/12
f 9/3/12 36/2/11 10/3/11
f 37/2/12 7/3/13 38/2/13
f 7/3/13 37/2/12 9/3/12
f 38/2/13 5/3/14 39/2/14
f 5/3/14 38/2/13 7/3/13
f 39/2/14 3/3/15 40/2/15
f 3/3/15 39/2/14 5/3/14
f 40/2/16 1/3/16 41/2/16
f 1/3/16 40/2/16 3/3/16
f 1/5/17 42/4/18 41/4/17
f 42/4/18 1/5/17 2/5/18
f 2/5/18 43/4/19 42/4/18
f 43/4/19 2/5/18 4/5/19
f 4/5/19 44/4/20 43/4/19
f 44/4/20 4/5/19 6/5/20
f 6/5/20 45/4/21 44/4/20
f 45/4/21 6/5/20 8/5/21
f 8/5/21 46/4/22 45/4/21
f 46/4/22 8/5/21 11/5/22
f 11/5/22 47/4/23 46/4/22
f 47/4/23 11/5/22 13/5/23
f 13/5/23 48/4/24 47/4/23
f 48/4/24 13/5/23 15/5/24
f 15/5/24 49/4/25 48/4/24
f 49/4/25 15/5/24 17/5/25
f 17/5/25 50/4/26 49/4/25
f 50/4/26 17/5/25 19/5/26
f 19/5/26 51/4/27 50/4/26
f 51/4/27 19/5/26 21/5/27
f 21/5/27 52/4/28 51/4/27
f 52/4/28 21/5/27 23/5/28
f 23/5/28 28/4/29 52/4/28
f 28/4/29 23/5/28 25/5/29

