# Created by Kenney (www.kenney.nl)

mtllib wall-corner-diagonal.mtl

g wall-corner-diagonal

v 1.370933E-08 0 1 1 1 1
v -1 0 1 1 1 1
v -1.490148E-08 2.4 1 1 1 1
v -1 2.4 1 1 1 1
v 1 2.4 -1 1 1 1
v 1 0 -1 1 1 1
v 1 2.4 -7.450732E-09 1 1 1
v 1 0 -7.450723E-09 1 1 1
v -1 0 0.9 1 1 1
v -1 2.4 0.9 1 1 1
v 0.9 0 -1 1 1 1
v 0.9 2.4 -1 1 1 1
v 0.9 0 -0.04142138 1 1 1
v 0.9 2.4 -0.04142138 1 1 1
v -0.04142139 0 0.9 1 1 1
v -0.04142139 2.4 0.9 1 1 1

vn 0 0 1
vn 1 0 0
vn 0.7071068 0 0.7071068
vn -1 0 0
vn -0.7071068 0 -0.7071068
vn 0 0 -1
vn 0 1 0

vt 0.34375 0.079
vt 0.34375 0.175
vt 0.59375 0.079
vt 0.59375 0.175
vt 0.46875 0.175

usemtl colormap

f 3/2/1 2/1/1 1/1/1
f 2/1/1 3/2/1 4/2/1
f 7/2/2 6/1/2 5/2/2
f 6/1/2 7/2/2 8/1/2
f 8/1/3 3/2/3 1/1/3
f 3/2/3 8/1/3 7/2/3
f 2/3/4 10/4/4 9/3/4
f 10/4/4 2/3/4 4/4/4
f 13/3/4 12/4/4 11/3/4
f 12/4/4 13/3/4 14/4/4
f 16/4/5 13/3/5 15/3/5
f 13/3/5 16/4/5 14/4/5
f 10/4/6 15/3/6 9/3/6
f 15/3/6 10/4/6 16/4/6
f 11/3/6 5/4/6 6/3/6
f 5/4/6 11/3/6 12/4/6
f 12/5/7 7/5/7 5/5/7
f 7/5/7 12/5/7 14/5/7
f 7/5/7 14/5/7 3/5/7
f 3/5/7 14/5/7 16/5/7
f 3/5/7 16/5/7 4/5/7
f 4/5/7 16/5/7 10/5/7

g wall-corner-diagonal




usemtl colormap

f 3/2/1 2/1/1 1/1/1
f 2/1/1 3/2/1 4/2/1
f 7/2/2 6/1/2 5/2/2
f 6/1/2 7/2/2 8/1/2
f 8/1/3 3/2/3 1/1/3
f 3/2/3 8/1/3 7/2/3
f 2/3/4 10/4/4 9/3/4
f 10/4/4 2/3/4 4/4/4
f 13/3/4 12/4/4 11/3/4
f 12/4/4 13/3/4 14/4/4
f 16/4/5 13/3/5 15/3/5
f 13/3/5 16/4/5 14/4/5
f 10/4/6 15/3/6 9/3/6
f 15/3/6 10/4/6 16/4/6
f 11/3/6 5/4/6 6/3/6
f 5/4/6 11/3/6 12/4/6
f 12/5/7 7/5/7 5/5/7
f 7/5/7 12/5/7 14/5/7
f 7/5/7 14/5/7 3/5/7
f 3/5/7 14/5/7 16/5/7
f 3/5/7 16/5/7 4/5/7
f 4/5/7 16/5/7 10/5/7

