# Created by Kenney (www.kenney.nl)

mtllib wall-window-round.mtl

g wall-window-round

v 0.05 0 1 1 1 1
v -0.05 1.127987E-17 1 1 1 1
v 0.05 2.4 1 1 1 1
v -0.05 2.4 1 1 1 1
v -0.05 1.747479 -0.45 1 1 1
v -0.05 1.660476 -0.5081338 1 1 1
v -0.05 1.838909 -0.3889087 1 1 1
v -0.05 2.4 -1 1 1 1
v -0.05 1.45 -0.55 1 1 1
v -0.05 0.65 -0.55 1 1 1
v -0.05 1.127987E-17 -1 1 1 1
v -0.05 0.6 -0.5 1 1 1
v -0.05 0.6 0.5 1 1 1
v -0.05 0.65 0.55 1 1 1
v -0.05 1.45 0.55 1 1 1
v -0.05 1.660476 0.5081338 1 1 1
v -0.05 1.747479 0.45 1 1 1
v -0.05 1.838909 0.3889087 1 1 1
v -0.05 1.9 0.2974792 1 1 1
v -0.05 1.958134 0.2104759 1 1 1
v -0.05 2 2.887646E-15 1 1 1
v -0.05 1.958134 -0.2104759 1 1 1
v -0.05 1.9 -0.2974792 1 1 1
v 0.05 0 -1 1 1 1
v 0.05 2.4 -1 1 1 1
v 0.1 0.7 0.45 1 1 1
v 0.1 1.45 0.45 1 1 1
v -0.1 0.7 0.45 1 1 1
v -0.1 1.45 0.45 1 1 1
v 0.1 1.622208 0.4157458 1 1 1
v -0.1 1.622208 0.4157458 1 1 1
v 0.1 1.768198 0.318198 1 1 1
v -0.1 1.768198 0.318198 1 1 1
v 0.1 1.865746 0.1722075 1 1 1
v -0.1 1.865746 0.1722075 1 1 1
v 0.1 1.9 5.775291E-15 1 1 1
v -0.1 1.9 2.887646E-15 1 1 1
v 0.1 1.865746 -0.1722075 1 1 1
v -0.1 1.865746 -0.1722075 1 1 1
v 0.1 1.768198 -0.318198 1 1 1
v -0.1 1.768198 -0.318198 1 1 1
v -0.1 1.622208 -0.4157458 1 1 1
v 0.1 1.622208 -0.4157458 1 1 1
v -0.1 1.45 -0.45 1 1 1
v 0.1 1.45 -0.45 1 1 1
v -0.1 0.7 -0.45 1 1 1
v 0.1 0.7 -0.45 1 1 1
v 0.1 1.45 0.55 1 1 1
v 0.1 1.660476 0.5081338 1 1 1
v 0.1 0.65 0.55 1 1 1
v 0.1 0.6 0.5 1 1 1
v 0.1 1.747479 0.45 1 1 1
v 0.1 1.838909 0.3889087 1 1 1
v 0.1 1.9 0.2974792 1 1 1
v 0.1 1.958134 0.2104759 1 1 1
v 0.1 2 4.331469E-15 1 1 1
v 0.1 1.958134 -0.2104759 1 1 1
v 0.1 1.9 -0.2974792 1 1 1
v 0.1 1.838909 -0.3889087 1 1 1
v 0.1 1.747479 -0.45 1 1 1
v 0.1 0.6 -0.5 1 1 1
v 0.1 1.660476 -0.5081338 1 1 1
v 0.1 0.65 -0.55 1 1 1
v 0.1 1.45 -0.55 1 1 1
v -0.1 1.45 -0.55 1 1 1
v -0.1 1.660476 -0.5081338 1 1 1
v -0.1 0.65 -0.55 1 1 1
v -0.1 0.6 -0.5 1 1 1
v -0.1 1.747479 -0.45 1 1 1
v -0.1 0.6 0.5 1 1 1
v -0.1 1.838909 -0.3889087 1 1 1
v -0.1 1.9 -0.2974792 1 1 1
v -0.1 1.958134 -0.2104759 1 1 1
v -0.1 2 1.443823E-15 1 1 1
v -0.1 1.958134 0.2104759 1 1 1
v -0.1 1.9 0.2974792 1 1 1
v -0.1 1.838909 0.3889087 1 1 1
v -0.1 1.747479 0.45 1 1 1
v -0.1 1.660476 0.5081338 1 1 1
v -0.1 0.65 0.55 1 1 1
v -0.1 1.45 0.55 1 1 1
v 0.05 0.6 0.5 1 1 1
v 0.05 0.6 -0.5 1 1 1
v 0.05 0.65 0.55 1 1 1
v 0.05 1.45 0.55 1 1 1
v 0.05 1.660476 0.5081338 1 1 1
v 0.05 1.747479 0.45 1 1 1
v 0.05 0.65 -0.55 1 1 1
v 0.05 1.45 -0.55 1 1 1
v 0.05 1.660476 -0.5081338 1 1 1
v 0.05 1.747479 -0.45 1 1 1
v 0.05 1.838909 -0.3889087 1 1 1
v 0.05 1.9 -0.2974792 1 1 1
v 0.05 1.958134 -0.2104759 1 1 1
v 0.05 2 2.887646E-15 1 1 1
v 0.05 1.958134 0.2104759 1 1 1
v 0.05 1.9 0.2974792 1 1 1
v 0.05 1.838909 0.3889087 1 1 1
v 0.05 0.6 0.55 1 1 1
v 0.05 0.6 -0.55 1 1 1

vn 0 0 1
vn -1 0 0
vn 0 0 -1
vn 0 1 0
vn 0 -0.09801714 -0.9951847
vn 0 -0.3826834 -0.9238795
vn 0 -0.7071068 -0.7071068
vn 0 -0.9238795 -0.3826834
vn 0 -1 0
vn 0 -0.9238795 0.3826834
vn 0 -0.7071068 0.7071068
vn 0 -0.3826834 0.9238795
vn 0 -0.09801714 0.9951847
vn 1 0 0
vn 0 0.09801714 0.9951847
vn 0 0.3826834 0.9238795
vn 0 0.5555702 0.8314696
vn 0 0.09801714 -0.9951847
vn 0 0.3826834 -0.9238795
vn 0 0.5555702 -0.8314696
vn 0 0.7071068 -0.7071068
vn 0 0.8314696 -0.5555702
vn 0 0.9238795 -0.3826834
vn 0 0.9238795 0.3826834
vn 0 0.8314696 0.5555702
vn 0 0.7071068 0.7071068

vt 0.59375 0.075
vt 0.59375 0.175
vt 0.59375 0.1478116
vt 0.59375 0.1441865
vt 0.59375 0.1516212
vt 0.59375 0.1354167
vt 0.59375 0.1020833
vt 0.59375 0.1
vt 0.59375 0.1541667
vt 0.59375 0.1565889
vt 0.59375 0.1583333
vt 0.46875 0.175
vt 0.71875 0.1041667
vt 0.71875 0.1354167
vt 0.71875 0.142592
vt 0.71875 0.1486749
vt 0.71875 0.1527394
vt 0.71875 0.1541667
vt 0.71875 0.1441865
vt 0.71875 0.1020833
vt 0.71875 0.1
vt 0.71875 0.1478116
vt 0.71875 0.1516212
vt 0.71875 0.1565889
vt 0.71875 0.1583333
vt 0.34375 0.1020833
vt 0.34375 0.1
vt 0.34375 0.1354167
vt 0.34375 0.075
vt 0.34375 0.175
vt 0.34375 0.1441865
vt 0.34375 0.1478116
vt 0.34375 0.1516212
vt 0.34375 0.1541667
vt 0.34375 0.1565889
vt 0.34375 0.1583333

usemtl colormap

f 3/2/1 2/1/1 1/1/1
f 2/1/1 3/2/1 4/2/1
f 7/5/2 6/4/2 5/3/2
f 7/5/2 8/2/2 6/4/2
f 6/4/2 8/2/2 9/6/2
f 8/2/2 10/7/2 9/6/2
f 11/1/2 10/7/2 8/2/2
f 10/7/2 11/1/2 12/8/2
f 12/8/2 11/1/2 2/1/2
f 12/8/2 2/1/2 13/8/2
f 13/8/2 2/1/2 14/7/2
f 14/7/2 2/1/2 15/6/2
f 4/2/2 15/6/2 2/1/2
f 4/2/2 16/4/2 15/6/2
f 4/2/2 17/3/2 16/4/2
f 4/2/2 18/5/2 17/3/2
f 4/2/2 19/9/2 18/5/2
f 4/2/2 20/10/2 19/9/2
f 4/2/2 21/11/2 20/10/2
f 4/2/2 22/10/2 21/11/2
f 8/2/2 22/10/2 4/2/2
f 22/10/2 8/2/2 7/5/2
f 22/10/2 7/5/2 23/9/2
f 11/1/3 25/2/3 24/1/3
f 25/2/3 11/1/3 8/2/3
f 8/12/4 3/12/4 25/12/4
f 3/12/4 8/12/4 4/12/4
f 28/13/3 27/14/5 26/13/3
f 27/14/5 28/13/3 29/14/5
f 29/14/5 30/15/6 27/14/5
f 30/15/6 29/14/5 31/15/6
f 31/15/6 32/16/7 30/15/6
f 32/16/7 31/15/6 33/16/7
f 33/16/7 34/17/8 32/16/7
f 34/17/8 33/16/7 35/17/8
f 35/17/8 36/18/9 34/17/8
f 36/18/9 35/17/8 37/18/9
f 37/18/9 38/17/10 36/18/9
f 38/17/10 37/18/9 39/17/10
f 39/17/10 40/16/11 38/17/10
f 40/16/11 39/17/10 41/16/11
f 42/15/12 40/16/11 41/16/11
f 40/16/11 42/15/12 43/15/12
f 44/14/13 43/15/12 42/15/12
f 43/15/12 44/14/13 45/14/13
f 46/13/1 45/14/13 44/14/13
f 45/14/13 46/13/1 47/13/1
f 46/13/4 26/13/4 47/13/4
f 26/13/4 46/13/4 28/13/4
f 50/20/14 49/19/14 48/14/14
f 51/21/14 49/19/14 50/20/14
f 27/14/14 49/19/14 51/21/14
f 27/14/14 52/22/14 49/19/14
f 51/21/14 26/13/14 27/14/14
f 30/15/14 52/22/14 27/14/14
f 30/15/14 53/23/14 52/22/14
f 51/21/14 47/13/14 26/13/14
f 32/16/14 53/23/14 30/15/14
f 32/16/14 54/18/14 53/23/14
f 32/16/14 55/24/14 54/18/14
f 34/17/14 55/24/14 32/16/14
f 36/18/14 55/24/14 34/17/14
f 36/18/14 56/25/14 55/24/14
f 38/17/14 56/25/14 36/18/14
f 38/17/14 57/24/14 56/25/14
f 38/17/14 58/18/14 57/24/14
f 40/16/14 58/18/14 38/17/14
f 40/16/14 59/23/14 58/18/14
f 43/15/14 59/23/14 40/16/14
f 45/14/14 59/23/14 43/15/14
f 59/23/14 45/14/14 60/22/14
f 47/13/14 60/22/14 45/14/14
f 61/21/14 60/22/14 47/13/14
f 61/21/14 47/13/14 51/21/14
f 61/21/14 62/19/14 60/22/14
f 63/20/14 62/19/14 61/21/14
f 62/19/14 63/20/14 64/14/14
f 67/20/2 66/19/2 65/14/2
f 66/19/2 67/20/2 68/21/2
f 66/19/2 68/21/2 69/22/2
f 69/22/2 68/21/2 46/13/2
f 46/13/2 68/21/2 70/21/2
f 69/22/2 46/13/2 44/14/2
f 46/13/2 70/21/2 28/13/2
f 44/14/2 71/23/2 69/22/2
f 71/23/2 44/14/2 42/15/2
f 71/23/2 42/15/2 41/16/2
f 71/23/2 41/16/2 72/18/2
f 72/18/2 41/16/2 39/17/2
f 72/18/2 39/17/2 73/24/2
f 73/24/2 39/17/2 74/25/2
f 74/25/2 39/17/2 37/18/2
f 74/25/2 37/18/2 75/24/2
f 75/24/2 37/18/2 35/17/2
f 75/24/2 35/17/2 33/16/2
f 75/24/2 33/16/2 76/18/2
f 76/18/2 33/16/2 77/23/2
f 77/23/2 33/16/2 31/15/2
f 77/23/2 31/15/2 78/22/2
f 78/22/2 31/15/2 29/14/2
f 78/22/2 29/14/2 79/19/2
f 79/19/2 29/14/2 70/21/2
f 28/13/2 70/21/2 29/14/2
f 79/19/2 70/21/2 80/20/2
f 79/19/2 80/20/2 81/14/2
f 83/21/8 51/21/10 82/21/10
f 51/21/10 84/20/12 82/21/10
f 51/21/10 83/21/8 61/21/8
f 84/20/12 51/21/10 50/20/12
f 48/14/15 84/20/12 50/20/12
f 84/20/12 48/14/15 85/14/15
f 49/19/16 85/14/15 48/14/15
f 85/14/15 49/19/16 86/19/16
f 52/22/17 86/19/16 49/19/16
f 86/19/16 52/22/17 87/22/17
f 88/20/6 61/21/8 83/21/8
f 61/21/8 88/20/6 63/20/6
f 88/20/6 64/14/18 63/20/6
f 64/14/18 88/20/6 89/14/18
f 89/14/18 62/19/19 64/14/18
f 62/19/19 89/14/18 90/19/19
f 90/19/19 60/22/20 62/19/19
f 60/22/20 90/19/19 91/22/20
f 91/22/20 59/23/21 60/22/20
f 59/23/21 91/22/20 92/23/21
f 92/23/21 58/18/22 59/23/21
f 58/18/22 92/23/21 93/18/22
f 93/18/22 57/24/23 58/18/22
f 57/24/23 93/18/22 94/24/23
f 94/24/23 56/25/4 57/24/23
f 56/25/4 94/24/23 95/25/4
f 95/25/4 55/24/24 56/25/4
f 55/24/24 95/25/4 96/24/24
f 96/24/24 54/18/25 55/24/24
f 54/18/25 96/24/24 97/18/25
f 97/18/25 53/23/26 54/18/25
f 53/23/26 97/18/25 98/23/26
f 87/22/17 53/23/26 98/23/26
f 53/23/26 87/22/17 52/22/17
f 15/14/15 80/20/12 14/20/12
f 80/20/12 13/21/10 14/20/12
f 80/20/12 15/14/15 81/14/15
f 13/21/10 80/20/12 70/21/10
f 16/19/16 81/14/15 15/14/15
f 68/21/8 13/21/10 70/21/10
f 81/14/15 16/19/16 79/19/16
f 13/21/10 68/21/8 12/21/8
f 17/22/17 79/19/16 16/19/16
f 79/19/16 17/22/17 78/22/17
f 67/20/6 12/21/8 68/21/8
f 12/21/8 67/20/6 10/20/6
f 67/20/6 9/14/18 10/20/6
f 9/14/18 67/20/6 65/14/18
f 65/14/18 6/19/19 9/14/18
f 6/19/19 65/14/18 66/19/19
f 66/19/19 5/22/20 6/19/19
f 5/22/20 66/19/19 69/22/20
f 69/22/20 7/23/21 5/22/20
f 7/23/21 69/22/20 71/23/21
f 71/23/21 23/18/22 7/23/21
f 23/18/22 71/23/21 72/18/22
f 72/18/22 22/24/23 23/18/22
f 22/24/23 72/18/22 73/24/23
f 73/24/23 21/25/4 22/24/23
f 21/25/4 73/24/23 74/25/4
f 74/25/4 20/24/24 21/25/4
f 20/24/24 74/25/4 75/24/24
f 75/24/24 19/18/25 20/24/24
f 19/18/25 75/24/24 76/18/25
f 76/18/25 18/23/26 19/18/25
f 18/23/26 76/18/25 77/23/26
f 78/22/17 18/23/26 77/23/26
f 18/23/26 78/22/17 17/22/17
f 85/28/14 99/27/14 84/26/14
f 1/29/14 99/27/14 85/28/14
f 1/29/14 85/28/14 3/30/14
f 86/31/14 3/30/14 85/28/14
f 87/32/14 3/30/14 86/31/14
f 98/33/14 3/30/14 87/32/14
f 97/34/14 3/30/14 98/33/14
f 96/35/14 3/30/14 97/34/14
f 95/36/14 3/30/14 96/35/14
f 94/35/14 3/30/14 95/36/14
f 94/35/14 25/30/14 3/30/14
f 1/29/14 82/27/14 99/27/14
f 99/27/14 82/27/14 84/26/14
f 1/29/14 83/27/14 82/27/14
f 1/29/14 100/27/14 83/27/14
f 83/27/14 100/27/14 88/26/14
f 24/29/14 100/27/14 1/29/14
f 100/27/14 24/29/14 89/28/14
f 100/27/14 89/28/14 88/26/14
f 24/29/14 90/31/14 89/28/14
f 25/30/14 90/31/14 24/29/14
f 92/33/14 25/30/14 94/35/14
f 90/31/14 25/30/14 92/33/14
f 92/33/14 94/35/14 93/34/14
f 90/31/14 92/33/14 91/32/14

g wall-window-round




usemtl colormap

f 3/2/1 2/1/1 1/1/1
f 2/1/1 3/2/1 4/2/1
f 7/5/2 6/4/2 5/3/2
f 7/5/2 8/2/2 6/4/2
f 6/4/2 8/2/2 9/6/2
f 8/2/2 10/7/2 9/6/2
f 11/1/2 10/7/2 8/2/2
f 10/7/2 11/1/2 12/8/2
f 12/8/2 11/1/2 2/1/2
f 12/8/2 2/1/2 13/8/2
f 13/8/2 2/1/2 14/7/2
f 14/7/2 2/1/2 15/6/2
f 4/2/2 15/6/2 2/1/2
f 4/2/2 16/4/2 15/6/2
f 4/2/2 17/3/2 16/4/2
f 4/2/2 18/5/2 17/3/2
f 4/2/2 19/9/2 18/5/2
f 4/2/2 20/10/2 19/9/2
f 4/2/2 21/11/2 20/10/2
f 4/2/2 22/10/2 21/11/2
f 8/2/2 22/10/2 4/2/2
f 22/10/2 8/2/2 7/5/2
f 22/10/2 7/5/2 23/9/2
f 11/1/3 25/2/3 24/1/3
f 25/2/3 11/1/3 8/2/3
f 8/12/4 3/12/4 25/12/4
f 3/12/4 8/12/4 4/12/4
f 28/13/3 27/14/5 26/13/3
f 27/14/5 28/13/3 29/14/5
f 29/14/5 30/15/6 27/14/5
f 30/15/6 29/14/5 31/15/6
f 31/15/6 32/16/7 30/15/6
f 32/16/7 31/15/6 33/16/7
f 33/16/7 34/17/8 32/16/7
f 34/17/8 33/16/7 35/17/8
f 35/17/8 36/18/9 34/17/8
f 36/18/9 35/17/8 37/18/9
f 37/18/9 38/17/10 36/18/9
f 38/17/10 37/18/9 39/17/10
f 39/17/10 40/16/11 38/17/10
f 40/16/11 39/17/10 41/16/11
f 42/15/12 40/16/11 41/16/11
f 40/16/11 42/15/12 43/15/12
f 44/14/13 43/15/12 42/15/12
f 43/15/12 44/14/13 45/14/13
f 46/13/1 45/14/13 44/14/13
f 45/14/13 46/13/1 47/13/1
f 46/13/4 26/13/4 47/13/4
f 26/13/4 46/13/4 28/13/4
f 50/20/14 49/19/14 48/14/14
f 51/21/14 49/19/14 50/20/14
f 27/14/14 49/19/14 51/21/14
f 27/14/14 52/22/14 49/19/14
f 51/21/14 26/13/14 27/14/14
f 30/15/14 52/22/14 27/14/14
f 30/15/14 53/23/14 52/22/14
f 51/21/14 47/13/14 26/13/14
f 32/16/14 53/23/14 30/15/14
f 32/16/14 54/18/14 53/23/14
f 32/16/14 55/24/14 54/18/14
f 34/17/14 55/24/14 32/16/14
f 36/18/14 55/24/14 34/17/14
f 36/18/14 56/25/14 55/24/14
f 38/17/14 56/25/14 36/18/14
f 38/17/14 57/24/14 56/25/14
f 38/17/14 58/18/14 57/24/14
f 40/16/14 58/18/14 38/17/14
f 40/16/14 59/23/14 58/18/14
f 43/15/14 59/23/14 40/16/14
f 45/14/14 59/23/14 43/15/14
f 59/23/14 45/14/14 60/22/14
f 47/13/14 60/22/14 45/14/14
f 61/21/14 60/22/14 47/13/14
f 61/21/14 47/13/14 51/21/14
f 61/21/14 62/19/14 60/22/14
f 63/20/14 62/19/14 61/21/14
f 62/19/14 63/20/14 64/14/14
f 67/20/2 66/19/2 65/14/2
f 66/19/2 67/20/2 68/21/2
f 66/19/2 68/21/2 69/22/2
f 69/22/2 68/21/2 46/13/2
f 46/13/2 68/21/2 70/21/2
f 69/22/2 46/13/2 44/14/2
f 46/13/2 70/21/2 28/13/2
f 44/14/2 71/23/2 69/22/2
f 71/23/2 44/14/2 42/15/2
f 71/23/2 42/15/2 41/16/2
f 71/23/2 41/16/2 72/18/2
f 72/18/2 41/16/2 39/17/2
f 72/18/2 39/17/2 73/24/2
f 73/24/2 39/17/2 74/25/2
f 74/25/2 39/17/2 37/18/2
f 74/25/2 37/18/2 75/24/2
f 75/24/2 37/18/2 35/17/2
f 75/24/2 35/17/2 33/16/2
f 75/24/2 33/16/2 76/18/2
f 76/18/2 33/16/2 77/23/2
f 77/23/2 33/16/2 31/15/2
f 77/23/2 31/15/2 78/22/2
f 78/22/2 31/15/2 29/14/2
f 78/22/2 29/14/2 79/19/2
f 79/19/2 29/14/2 70/21/2
f 28/13/2 70/21/2 29/14/2
f 79/19/2 70/21/2 80/20/2
f 79/19/2 80/20/2 81/14/2
f 83/21/8 51/21/10 82/21/10
f 51/21/10 84/20/12 82/21/10
f 51/21/10 83/21/8 61/21/8
f 84/20/12 51/21/10 50/20/12
f 48/14/15 84/20/12 50/20/12
f 84/20/12 48/14/15 85/14/15
f 49/19/16 85/14/15 48/14/15
f 85/14/15 49/19/16 86/19/16
f 52/22/17 86/19/16 49/19/16
f 86/19/16 52/22/17 87/22/17
f 88/20/6 61/21/8 83/21/8
f 61/21/8 88/20/6 63/20/6
f 88/20/6 64/14/18 63/20/6
f 64/14/18 88/20/6 89/14/18
f 89/14/18 62/19/19 64/14/18
f 62/19/19 89/14/18 90/19/19
f 90/19/19 60/22/20 62/19/19
f 60/22/20 90/19/19 91/22/20
f 91/22/20 59/23/21 60/22/20
f 59/23/21 91/22/20 92/23/21
f 92/23/21 58/18/22 59/23/21
f 58/18/22 92/23/21 93/18/22
f 93/18/22 57/24/23 58/18/22
f 57/24/23 93/18/22 94/24/23
f 94/24/23 56/25/4 57/24/23
f 56/25/4 94/24/23 95/25/4
f 95/25/4 55/24/24 56/25/4
f 55/24/24 95/25/4 96/24/24
f 96/24/24 54/18/25 55/24/24
f 54/18/25 96/24/24 97/18/25
f 97/18/25 53/23/26 54/18/25
f 53/23/26 97/18/25 98/23/26
f 87/22/17 53/23/26 98/23/26
f 53/23/26 87/22/17 52/22/17
f 15/14/15 80/20/12 14/20/12
f 80/20/12 13/21/10 14/20/12
f 80/20/12 15/14/15 81/14/15
f 13/21/10 80/20/12 70/21/10
f 16/19/16 81/14/15 15/14/15
f 68/21/8 13/21/10 70/21/10
f 81/14/15 16/19/16 79/19/16
f 13/21/10 68/21/8 12/21/8
f 17/22/17 79/19/16 16/19/16
f 79/19/16 17/22/17 78/22/17
f 67/20/6 12/21/8 68/21/8
f 12/21/8 67/20/6 10/20/6
f 67/20/6 9/14/18 10/20/6
f 9/14/18 67/20/6 65/14/18
f 65/14/18 6/19/19 9/14/18
f 6/19/19 65/14/18 66/19/19
f 66/19/19 5/22/20 6/19/19
f 5/22/20 66/19/19 69/22/20
f 69/22/20 7/23/21 5/22/20
f 7/23/21 69/22/20 71/23/21
f 71/23/21 23/18/22 7/23/21
f 23/18/22 71/23/21 72/18/22
f 72/18/22 22/24/23 23/18/22
f 22/24/23 72/18/22 73/24/23
f 73/24/23 21/25/4 22/24/23
f 21/25/4 73/24/23 74/25/4
f 74/25/4 20/24/24 21/25/4
f 20/24/24 74/25/4 75/24/24
f 75/24/24 19/18/25 20/24/24
f 19/18/25 75/24/24 76/18/25
f 76/18/25 18/23/26 19/18/25
f 18/23/26 76/18/25 77/23/26
f 78/22/17 18/23/26 77/23/26
f 18/23/26 78/22/17 17/22/17
f 85/28/14 99/27/14 84/26/14
f 1/29/14 99/27/14 85/28/14
f 1/29/14 85/28/14 3/30/14
f 86/31/14 3/30/14 85/28/14
f 87/32/14 3/30/14 86/31/14
f 98/33/14 3/30/14 87/32/14
f 97/34/14 3/30/14 98/33/14
f 96/35/14 3/30/14 97/34/14
f 95/36/14 3/30/14 96/35/14
f 94/35/14 3/30/14 95/36/14
f 94/35/14 25/30/14 3/30/14
f 1/29/14 82/27/14 99/27/14
f 99/27/14 82/27/14 84/26/14
f 1/29/14 83/27/14 82/27/14
f 1/29/14 100/27/14 83/27/14
f 83/27/14 100/27/14 88/26/14
f 24/29/14 100/27/14 1/29/14
f 100/27/14 24/29/14 89/28/14
f 100/27/14 89/28/14 88/26/14
f 24/29/14 90/31/14 89/28/14
f 25/30/14 90/31/14 24/29/14
f 92/33/14 25/30/14 94/35/14
f 90/31/14 25/30/14 92/33/14
f 92/33/14 94/35/14 93/34/14
f 90/31/14 92/33/14 91/32/14

g (%ignore)

v -6.785967E-14 0.7 -0.45 1 1 1
v -6.208438E-14 1.45 -0.45 1 1 1
v -1.285002E-13 0.7 0.45 1 1 1
v -6.208438E-14 1.622208 -0.4157458 1 1 1
v -6.208438E-14 1.768198 -0.318198 1 1 1
v -6.208438E-14 1.865746 -0.1722075 1 1 1
v -6.208438E-14 1.9 2.887646E-15 1 1 1
v -6.208438E-14 1.865746 0.1722075 1 1 1
v -6.208438E-14 1.768198 0.318198 1 1 1
v -6.208438E-14 1.622208 0.4157458 1 1 1
v -6.208438E-14 1.45 0.45 1 1 1


vt -17.71654 2.322155E-26
vt -17.71654 29.52756
vt 17.71654 -3.036664E-26
vt -16.36794 36.30738
vt -12.52748 42.05504
vt -6.779825 45.8955
vt -2.516869E-26 47.24409
vt 6.779825 45.8955
vt 12.52748 42.05504
vt 16.36794 36.30738
vt 17.71654 29.52756

usemtl glass

f 103/39/2 102/38/2 101/37/2
f 102/38/2 103/39/2 104/40/2
f 104/40/2 103/39/2 105/41/2
f 105/41/2 103/39/2 106/42/2
f 106/42/2 103/39/2 107/43/2
f 107/43/2 103/39/2 108/44/2
f 108/44/2 103/39/2 109/45/2
f 109/45/2 103/39/2 110/46/2
f 110/46/2 103/39/2 111/47/2
f 101/37/14 102/38/14 103/39/14
f 104/40/14 103/39/14 102/38/14
f 105/41/14 103/39/14 104/40/14
f 106/42/14 103/39/14 105/41/14
f 107/43/14 103/39/14 106/42/14
f 108/44/14 103/39/14 107/43/14
f 109/45/14 103/39/14 108/44/14
f 110/46/14 103/39/14 109/45/14
f 111/47/14 103/39/14 110/46/14

