# Created by Kenney (www.kenney.nl)

mtllib wall-doorway-round.mtl

g wall-doorway-round

v 0.05 1.947479 -0.45 1 1 1
v 0.05 2.038909 -0.3889087 1 1 1
v 0.05 1.860476 -0.5081338 1 1 1
v 0.05 2.4 -1 1 1 1
v 0.05 2.1 -0.2974792 1 1 1
v 0.05 2.158134 -0.2104759 1 1 1
v 0.05 2.4 1 1 1 1
v 0.05 2.2 0 1 1 1
v 0.05 2.255973E-17 -1 1 1 1
v 0.05 1.65 -0.55 1 1 1
v 0.05 0 -0.55 1 1 1
v 0.05 2.158134 0.2104759 1 1 1
v 0.05 2.1 0.2974792 1 1 1
v 0.05 2.038909 0.3889087 1 1 1
v 0.05 1.947479 0.45 1 1 1
v 0.05 1.860476 0.5081338 1 1 1
v 0.05 1.65 0.55 1 1 1
v 0.05 6.553602E-15 1 1 1 1
v 0.05 0 0.55 1 1 1
v -0.05 3.38396E-17 1 1 1 1
v -0.05 2.4 1 1 1 1
v -0.05 0 0.55 1 1 1
v -0.05 1.65 0.55 1 1 1
v -0.05 1.860476 0.5081338 1 1 1
v -0.05 1.947479 0.45 1 1 1
v -0.05 2.038909 0.3889087 1 1 1
v -0.05 2.1 0.2974792 1 1 1
v -0.05 2.158134 0.2104759 1 1 1
v -0.05 2.2 -1.443823E-15 1 1 1
v -0.05 2.158134 -0.2104759 1 1 1
v -0.05 2.4 -1 1 1 1
v -0.05 2.038909 -0.3889087 1 1 1
v -0.05 2.1 -0.2974792 1 1 1
v -0.05 1.860476 -0.5081338 1 1 1
v -0.05 1.947479 -0.45 1 1 1
v -0.05 1.65 -0.55 1 1 1
v -0.05 0 -0.55 1 1 1
v -0.05 3.38396E-17 -1 1 1 1
v 0.1 3.38396E-17 -0.45 1 1 1
v -0.1 3.38396E-17 -0.45 1 1 1
v 0.1 1.65 -0.45 1 1 1
v -0.1 1.65 -0.45 1 1 1
v 0.1 1.822208 -0.4157458 1 1 1
v -0.1 1.822208 -0.4157458 1 1 1
v 0.1 1.968198 -0.318198 1 1 1
v -0.1 1.968198 -0.318198 1 1 1
v -0.1 2.065746 -0.1722075 1 1 1
v 0.1 2.065746 -0.1722075 1 1 1
v -0.1 2.1 0 1 1 1
v 0.1 2.1 0 1 1 1
v -0.1 2.065746 0.1722075 1 1 1
v 0.1 2.065746 0.1722075 1 1 1
v -0.1 1.968198 0.318198 1 1 1
v 0.1 1.968198 0.318198 1 1 1
v 0.1 1.822208 0.4157458 1 1 1
v -0.1 1.822208 0.4157458 1 1 1
v 0.1 1.65 0.45 1 1 1
v -0.1 1.65 0.45 1 1 1
v 0.1 3.38396E-17 0.45 1 1 1
v -0.1 3.38396E-17 0.45 1 1 1
v -0.1 0 0.55 1 1 1
v -0.1 1.947479 0.45 1 1 1
v -0.1 1.860476 0.5081338 1 1 1
v -0.1 1.65 0.55 1 1 1
v -0.1 2.038909 0.3889087 1 1 1
v -0.1 2.1 0.2974792 1 1 1
v -0.1 2.158134 0.2104759 1 1 1
v -0.1 2.2 -1.443823E-15 1 1 1
v -0.1 2.158134 -0.2104759 1 1 1
v -0.1 2.1 -0.2974792 1 1 1
v -0.1 2.038909 -0.3889087 1 1 1
v -0.1 1.947479 -0.45 1 1 1
v -0.1 1.860476 -0.5081338 1 1 1
v -0.1 1.65 -0.55 1 1 1
v -0.1 0 -0.55 1 1 1
v 0.1 1.65 0.55 1 1 1
v 0.1 1.860476 0.5081338 1 1 1
v 0.1 0 0.55 1 1 1
v 0.1 1.947479 0.45 1 1 1
v 0.1 2.038909 0.3889087 1 1 1
v 0.1 2.1 0.2974792 1 1 1
v 0.1 2.158134 0.2104759 1 1 1
v 0.1 2.2 0 1 1 1
v 0.1 2.158134 -0.2104759 1 1 1
v 0.1 2.1 -0.2974792 1 1 1
v 0.1 2.038909 -0.3889087 1 1 1
v 0.1 1.947479 -0.45 1 1 1
v 0.1 1.860476 -0.5081338 1 1 1
v 0.1 0 -0.55 1 1 1
v 0.1 1.65 -0.55 1 1 1

vn 1 0 0
vn 0 0 1
vn -1 0 0
vn 0 0 -1
vn 0 1 0
vn 0 -0.09801714 0.9951847
vn 0 -0.3826834 0.9238795
vn 0 -0.7071068 0.7071068
vn 0 -0.9238795 0.3826834
vn 0 -1 0
vn 0 -0.9238795 -0.3826834
vn 0 -0.7071068 -0.7071068
vn 0 -0.3826834 -0.9238795
vn 0 -0.09801714 -0.9951847
vn 0 0.09801714 0.9951847
vn 0 0.3826834 0.9238795
vn 0 0.5555702 0.8314696
vn 0 0.7071068 0.7071068
vn 0 0.8314696 0.5555702
vn 0 0.9238795 0.3826834
vn 0 0.9238795 -0.3826834
vn 0 0.8314696 -0.5555702
vn 0 0.7071068 -0.7071068
vn 0 0.5555702 -0.8314696
vn 0 0.3826834 -0.9238795
vn 0 0.09801714 -0.9951847

vt 0.34375 0.1561449
vt 0.34375 0.1599545
vt 0.34375 0.1525198
vt 0.34375 0.175
vt 0.34375 0.1625
vt 0.34375 0.1649222
vt 0.34375 0.1666667
vt 0.34375 0.075
vt 0.34375 0.14375
vt 0.59375 0.075
vt 0.59375 0.175
vt 0.59375 0.14375
vt 0.59375 0.1525198
vt 0.59375 0.1561449
vt 0.59375 0.1599545
vt 0.59375 0.1625
vt 0.59375 0.1649222
vt 0.59375 0.1666667
vt 0.46875 0.175
vt 0.71875 0.075
vt 0.71875 0.14375
vt 0.71875 0.1509253
vt 0.71875 0.1570082
vt 0.71875 0.1610727
vt 0.71875 0.1625
vt 0.71875 0.1561449
vt 0.71875 0.1525198
vt 0.71875 0.1599545
vt 0.71875 0.1649222
vt 0.71875 0.1666667

usemtl colormap

f 3/3/1 2/2/1 1/1/1
f 3/3/1 4/4/1 2/2/1
f 2/2/1 4/4/1 5/5/1
f 5/5/1 4/4/1 6/6/1
f 6/6/1 4/4/1 7/4/1
f 6/6/1 7/4/1 8/7/1
f 4/4/1 3/3/1 9/8/1
f 9/8/1 3/3/1 10/9/1
f 11/8/1 9/8/1 10/9/1
f 8/7/1 7/4/1 12/6/1
f 12/6/1 7/4/1 13/5/1
f 13/5/1 7/4/1 14/2/1
f 14/2/1 7/4/1 15/1/1
f 15/1/1 7/4/1 16/3/1
f 16/3/1 7/4/1 17/9/1
f 17/9/1 7/4/1 18/8/1
f 18/8/1 19/8/1 17/9/1
f 18/10/2 21/11/2 20/10/2
f 21/11/2 18/10/2 7/11/2
f 20/10/3 23/12/3 22/10/3
f 21/11/3 23/12/3 20/10/3
f 21/11/3 24/13/3 23/12/3
f 21/11/3 25/14/3 24/13/3
f 21/11/3 26/15/3 25/14/3
f 21/11/3 27/16/3 26/15/3
f 21/11/3 28/17/3 27/16/3
f 21/11/3 29/18/3 28/17/3
f 21/11/3 30/17/3 29/18/3
f 31/11/3 30/17/3 21/11/3
f 31/11/3 32/15/3 30/17/3
f 30/17/3 32/15/3 33/16/3
f 31/11/3 34/13/3 32/15/3
f 32/15/3 34/13/3 35/14/3
f 31/11/3 36/12/3 34/13/3
f 31/11/3 37/10/3 36/12/3
f 37/10/3 31/11/3 38/10/3
f 38/10/4 4/11/4 9/10/4
f 4/11/4 38/10/4 31/11/4
f 31/19/5 7/19/5 4/19/5
f 7/19/5 31/19/5 21/19/5
f 41/21/6 40/20/2 39/20/2
f 40/20/2 41/21/6 42/21/6
f 43/22/7 42/21/6 41/21/6
f 42/21/6 43/22/7 44/22/7
f 45/23/8 44/22/7 43/22/7
f 44/22/7 45/23/8 46/23/8
f 45/23/8 47/24/9 46/23/8
f 47/24/9 45/23/8 48/24/9
f 48/24/9 49/25/10 47/24/9
f 49/25/10 48/24/9 50/25/10
f 50/25/10 51/24/11 49/25/10
f 51/24/11 50/25/10 52/24/11
f 52/24/11 53/23/12 51/24/11
f 53/23/12 52/24/11 54/23/12
f 55/22/13 53/23/12 54/23/12
f 53/23/12 55/22/13 56/22/13
f 57/21/14 56/22/13 55/22/13
f 56/22/13 57/21/14 58/21/14
f 59/20/4 58/21/14 57/21/14
f 58/21/14 59/20/4 60/20/4
f 61/20/3 58/21/3 60/20/3
f 58/21/3 61/20/3 62/26/3
f 62/26/3 56/22/3 58/21/3
f 62/26/3 61/20/3 63/27/3
f 63/27/3 61/20/3 64/21/3
f 65/28/3 56/22/3 62/26/3
f 65/28/3 53/23/3 56/22/3
f 66/25/3 53/23/3 65/28/3
f 67/29/3 53/23/3 66/25/3
f 67/29/3 51/24/3 53/23/3
f 67/29/3 49/25/3 51/24/3
f 68/30/3 49/25/3 67/29/3
f 68/30/3 47/24/3 49/25/3
f 69/29/3 47/24/3 68/30/3
f 70/25/3 47/24/3 69/29/3
f 70/25/3 46/23/3 47/24/3
f 71/28/3 46/23/3 70/25/3
f 71/28/3 44/22/3 46/23/3
f 72/26/3 44/22/3 71/28/3
f 72/26/3 42/21/3 44/22/3
f 72/26/3 40/20/3 42/21/3
f 73/27/3 40/20/3 72/26/3
f 74/21/3 40/20/3 73/27/3
f 40/20/3 74/21/3 75/20/3
f 23/21/15 61/20/2 22/20/2
f 61/20/2 23/21/15 64/21/15
f 24/27/16 64/21/15 23/21/15
f 64/21/15 24/27/16 63/27/16
f 25/26/17 63/27/16 24/27/16
f 63/27/16 25/26/17 62/26/17
f 26/28/18 62/26/17 25/26/17
f 62/26/17 26/28/18 65/28/18
f 26/28/18 66/25/19 65/28/18
f 66/25/19 26/28/18 27/25/19
f 27/25/19 67/29/20 66/25/19
f 67/29/20 27/25/19 28/29/20
f 28/29/20 68/30/5 67/29/20
f 68/30/5 28/29/20 29/30/5
f 29/30/5 69/29/21 68/30/5
f 69/29/21 29/30/5 30/29/21
f 30/29/21 70/25/22 69/29/21
f 70/25/22 30/29/21 33/25/22
f 33/25/22 71/28/23 70/25/22
f 71/28/23 33/25/22 32/28/23
f 35/26/24 71/28/23 32/28/23
f 71/28/23 35/26/24 72/26/24
f 34/27/25 72/26/24 35/26/24
f 72/26/24 34/27/25 73/27/25
f 36/21/26 73/27/25 34/27/25
f 73/27/25 36/21/26 74/21/26
f 37/20/4 74/21/26 36/21/26
f 74/21/26 37/20/4 75/20/4
f 78/20/1 77/27/1 76/21/1
f 59/20/1 77/27/1 78/20/1
f 57/21/1 77/27/1 59/20/1
f 57/21/1 79/26/1 77/27/1
f 55/22/1 79/26/1 57/21/1
f 55/22/1 80/28/1 79/26/1
f 54/23/1 80/28/1 55/22/1
f 54/23/1 81/25/1 80/28/1
f 54/23/1 82/29/1 81/25/1
f 52/24/1 82/29/1 54/23/1
f 50/25/1 82/29/1 52/24/1
f 50/25/1 83/30/1 82/29/1
f 48/24/1 83/30/1 50/25/1
f 48/24/1 84/29/1 83/30/1
f 48/24/1 85/25/1 84/29/1
f 45/23/1 85/25/1 48/24/1
f 45/23/1 86/28/1 85/25/1
f 43/22/1 86/28/1 45/23/1
f 41/21/1 86/28/1 43/22/1
f 86/28/1 41/21/1 87/26/1
f 39/20/1 87/26/1 41/21/1
f 39/20/1 88/27/1 87/26/1
f 89/20/1 88/27/1 39/20/1
f 88/27/1 89/20/1 90/21/1
f 10/21/26 89/20/4 11/20/4
f 89/20/4 10/21/26 90/21/26
f 3/27/25 90/21/26 10/21/26
f 90/21/26 3/27/25 88/27/25
f 1/26/24 88/27/25 3/27/25
f 88/27/25 1/26/24 87/26/24
f 2/28/23 87/26/24 1/26/24
f 87/26/24 2/28/23 86/28/23
f 2/28/23 85/25/22 86/28/23
f 85/25/22 2/28/23 5/25/22
f 5/25/22 84/29/21 85/25/22
f 84/29/21 5/25/22 6/29/21
f 6/29/21 83/30/5 84/29/21
f 83/30/5 6/29/21 8/30/5
f 8/30/5 82/29/20 83/30/5
f 82/29/20 8/30/5 12/29/20
f 12/29/20 81/25/19 82/29/20
f 81/25/19 12/29/20 13/25/19
f 13/25/19 80/28/18 81/25/19
f 80/28/18 13/25/19 14/28/18
f 15/26/17 80/28/18 14/28/18
f 80/28/18 15/26/17 79/26/17
f 16/27/16 79/26/17 15/26/17
f 79/26/17 16/27/16 77/27/16
f 17/21/15 77/27/16 16/27/16
f 77/27/16 17/21/15 76/21/15
f 19/20/2 76/21/15 17/21/15
f 76/21/15 19/20/2 78/20/2

g wall-doorway-round




usemtl colormap

f 3/3/1 2/2/1 1/1/1
f 3/3/1 4/4/1 2/2/1
f 2/2/1 4/4/1 5/5/1
f 5/5/1 4/4/1 6/6/1
f 6/6/1 4/4/1 7/4/1
f 6/6/1 7/4/1 8/7/1
f 4/4/1 3/3/1 9/8/1
f 9/8/1 3/3/1 10/9/1
f 11/8/1 9/8/1 10/9/1
f 8/7/1 7/4/1 12/6/1
f 12/6/1 7/4/1 13/5/1
f 13/5/1 7/4/1 14/2/1
f 14/2/1 7/4/1 15/1/1
f 15/1/1 7/4/1 16/3/1
f 16/3/1 7/4/1 17/9/1
f 17/9/1 7/4/1 18/8/1
f 18/8/1 19/8/1 17/9/1
f 18/10/2 21/11/2 20/10/2
f 21/11/2 18/10/2 7/11/2
f 20/10/3 23/12/3 22/10/3
f 21/11/3 23/12/3 20/10/3
f 21/11/3 24/13/3 23/12/3
f 21/11/3 25/14/3 24/13/3
f 21/11/3 26/15/3 25/14/3
f 21/11/3 27/16/3 26/15/3
f 21/11/3 28/17/3 27/16/3
f 21/11/3 29/18/3 28/17/3
f 21/11/3 30/17/3 29/18/3
f 31/11/3 30/17/3 21/11/3
f 31/11/3 32/15/3 30/17/3
f 30/17/3 32/15/3 33/16/3
f 31/11/3 34/13/3 32/15/3
f 32/15/3 34/13/3 35/14/3
f 31/11/3 36/12/3 34/13/3
f 31/11/3 37/10/3 36/12/3
f 37/10/3 31/11/3 38/10/3
f 38/10/4 4/11/4 9/10/4
f 4/11/4 38/10/4 31/11/4
f 31/19/5 7/19/5 4/19/5
f 7/19/5 31/19/5 21/19/5
f 41/21/6 40/20/2 39/20/2
f 40/20/2 41/21/6 42/21/6
f 43/22/7 42/21/6 41/21/6
f 42/21/6 43/22/7 44/22/7
f 45/23/8 44/22/7 43/22/7
f 44/22/7 45/23/8 46/23/8
f 45/23/8 47/24/9 46/23/8
f 47/24/9 45/23/8 48/24/9
f 48/24/9 49/25/10 47/24/9
f 49/25/10 48/24/9 50/25/10
f 50/25/10 51/24/11 49/25/10
f 51/24/11 50/25/10 52/24/11
f 52/24/11 53/23/12 51/24/11
f 53/23/12 52/24/11 54/23/12
f 55/22/13 53/23/12 54/23/12
f 53/23/12 55/22/13 56/22/13
f 57/21/14 56/22/13 55/22/13
f 56/22/13 57/21/14 58/21/14
f 59/20/4 58/21/14 57/21/14
f 58/21/14 59/20/4 60/20/4
f 61/20/3 58/21/3 60/20/3
f 58/21/3 61/20/3 62/26/3
f 62/26/3 56/22/3 58/21/3
f 62/26/3 61/20/3 63/27/3
f 63/27/3 61/20/3 64/21/3
f 65/28/3 56/22/3 62/26/3
f 65/28/3 53/23/3 56/22/3
f 66/25/3 53/23/3 65/28/3
f 67/29/3 53/23/3 66/25/3
f 67/29/3 51/24/3 53/23/3
f 67/29/3 49/25/3 51/24/3
f 68/30/3 49/25/3 67/29/3
f 68/30/3 47/24/3 49/25/3
f 69/29/3 47/24/3 68/30/3
f 70/25/3 47/24/3 69/29/3
f 70/25/3 46/23/3 47/24/3
f 71/28/3 46/23/3 70/25/3
f 71/28/3 44/22/3 46/23/3
f 72/26/3 44/22/3 71/28/3
f 72/26/3 42/21/3 44/22/3
f 72/26/3 40/20/3 42/21/3
f 73/27/3 40/20/3 72/26/3
f 74/21/3 40/20/3 73/27/3
f 40/20/3 74/21/3 75/20/3
f 23/21/15 61/20/2 22/20/2
f 61/20/2 23/21/15 64/21/15
f 24/27/16 64/21/15 23/21/15
f 64/21/15 24/27/16 63/27/16
f 25/26/17 63/27/16 24/27/16
f 63/27/16 25/26/17 62/26/17
f 26/28/18 62/26/17 25/26/17
f 62/26/17 26/28/18 65/28/18
f 26/28/18 66/25/19 65/28/18
f 66/25/19 26/28/18 27/25/19
f 27/25/19 67/29/20 66/25/19
f 67/29/20 27/25/19 28/29/20
f 28/29/20 68/30/5 67/29/20
f 68/30/5 28/29/20 29/30/5
f 29/30/5 69/29/21 68/30/5
f 69/29/21 29/30/5 30/29/21
f 30/29/21 70/25/22 69/29/21
f 70/25/22 30/29/21 33/25/22
f 33/25/22 71/28/23 70/25/22
f 71/28/23 33/25/22 32/28/23
f 35/26/24 71/28/23 32/28/23
f 71/28/23 35/26/24 72/26/24
f 34/27/25 72/26/24 35/26/24
f 72/26/24 34/27/25 73/27/25
f 36/21/26 73/27/25 34/27/25
f 73/27/25 36/21/26 74/21/26
f 37/20/4 74/21/26 36/21/26
f 74/21/26 37/20/4 75/20/4
f 78/20/1 77/27/1 76/21/1
f 59/20/1 77/27/1 78/20/1
f 57/21/1 77/27/1 59/20/1
f 57/21/1 79/26/1 77/27/1
f 55/22/1 79/26/1 57/21/1
f 55/22/1 80/28/1 79/26/1
f 54/23/1 80/28/1 55/22/1
f 54/23/1 81/25/1 80/28/1
f 54/23/1 82/29/1 81/25/1
f 52/24/1 82/29/1 54/23/1
f 50/25/1 82/29/1 52/24/1
f 50/25/1 83/30/1 82/29/1
f 48/24/1 83/30/1 50/25/1
f 48/24/1 84/29/1 83/30/1
f 48/24/1 85/25/1 84/29/1
f 45/23/1 85/25/1 48/24/1
f 45/23/1 86/28/1 85/25/1
f 43/22/1 86/28/1 45/23/1
f 41/21/1 86/28/1 43/22/1
f 86/28/1 41/21/1 87/26/1
f 39/20/1 87/26/1 41/21/1
f 39/20/1 88/27/1 87/26/1
f 89/20/1 88/27/1 39/20/1
f 88/27/1 89/20/1 90/21/1
f 10/21/26 89/20/4 11/20/4
f 89/20/4 10/21/26 90/21/26
f 3/27/25 90/21/26 10/21/26
f 90/21/26 3/27/25 88/27/25
f 1/26/24 88/27/25 3/27/25
f 88/27/25 1/26/24 87/26/24
f 2/28/23 87/26/24 1/26/24
f 87/26/24 2/28/23 86/28/23
f 2/28/23 85/25/22 86/28/23
f 85/25/22 2/28/23 5/25/22
f 5/25/22 84/29/21 85/25/22
f 84/29/21 5/25/22 6/29/21
f 6/29/21 83/30/5 84/29/21
f 83/30/5 6/29/21 8/30/5
f 8/30/5 82/29/20 83/30/5
f 82/29/20 8/30/5 12/29/20
f 12/29/20 81/25/19 82/29/20
f 81/25/19 12/29/20 13/25/19
f 13/25/19 80/28/18 81/25/19
f 80/28/18 13/25/19 14/28/18
f 15/26/17 80/28/18 14/28/18
f 80/28/18 15/26/17 79/26/17
f 16/27/16 79/26/17 15/26/17
f 79/26/17 16/27/16 77/27/16
f 17/21/15 77/27/16 16/27/16
f 77/27/16 17/21/15 76/21/15
f 19/20/2 76/21/15 17/21/15
f 76/21/15 19/20/2 78/20/2

